<?xml version="1.0" encoding="utf-8"?>
<!-- Generator: Adobe Illustrator 17.0.0, SVG Export Plug-In . SVG Version: 6.00 Build 0)  -->
<!DOCTYPE svg PUBLIC "-//W3C//DTD SVG 1.1//EN" "http://www.w3.org/Graphics/SVG/1.1/DTD/svg11.dtd">
<svg version="1.1" id="_x39_6306a94-3bea-4326-87c9-b4488db4c6c8"
	 xmlns="http://www.w3.org/2000/svg" xmlns:xlink="http://www.w3.org/1999/xlink" x="0px" y="0px" width="1097.1px"
	 height="807.9px" viewBox="0 0 1097.1 807.9" enable-background="new 0 0 1097.1 807.9" xml:space="preserve">
<title>android</title>
<path opacity="0.1" fill="#008000" enable-background="new    " d="M11.85,429.95c17.36,74.2,54.11,138.34,112.19,169.43
	c120.7,64.61,392.91,31.29,596.07-7c102.657-19.282,195.838-72.551,264.54-151.23L11.85,429.95z"/>
<path opacity="0.1" fill="#008000" enable-background="new    " d="M1077.2,80.71H965.73c-5.321,0-9.635-4.314-9.635-9.635
	s4.314-9.635,9.635-9.635H985c-5.321,0-9.635-4.314-9.635-9.635s4.314-9.635,9.635-9.635l0,0h-13.76
	c-5.321,0-9.635-4.314-9.635-9.635s4.314-9.635,9.635-9.635h58.18c-12.91-6-28-10.27-45.38-12.51c-158.64-20.38-215.28-6.9-235.26,7
	c-24.65,17.1-52.15,29.68-81.54,35.74c-97.88,20.19-280.93,44.49-446.84-7.78c-82.46-26-143.75,17.92-180.48,91.28h1056.63
	c-1.38-21.32-5.51-41-13.09-58.24C1081.719,79.889,1079.497,80.712,1077.2,80.71z"/>
<path opacity="0.1" fill="#008000" enable-background="new    " d="M19.074,184.293c-4.387,41.091-2.899,82.542,4.426,123.271
	l1002.734,34.082c27.913-29.843,51.35-63.062,69.671-98.75L19.074,184.293z M415.667,272.235h-19.744
	c5.452,0,9.872,4.108,9.872,9.175s-4.42,9.175-9.872,9.175h-114.21c-5.452,0-9.872-4.108-9.872-9.175s4.42-9.175,9.872-9.175h19.744
	c-5.452,0-9.872-4.108-9.872-9.175c0-5.067,4.42-9.175,9.872-9.175h-14.098c-5.452,0-9.872-4.108-9.872-9.175
	s4.42-9.175,9.872-9.175h114.21c5.452,0,9.872,4.108,9.872,9.175s-4.42,9.175-9.872,9.175l0,0h14.098
	c5.452,0,9.872,4.108,9.872,9.175C425.539,268.127,421.119,272.235,415.667,272.235L415.667,272.235z"/>
<rect x="365.51" y="184.9" fill="#535461" width="7" height="99"/>
<rect x="365.51" y="317.9" fill="#535461" width="7" height="56"/>
<path fill="#535461" d="M413.329,87.9h200.73c23.648,0,42.819,17.813,42.819,39.787v498.219c0,21.974-19.171,39.787-42.819,39.787
	h-200.73c-23.648,0-42.819-17.813-42.819-39.787V127.687C370.51,105.713,389.681,87.9,413.329,87.9z"/>
<path fill="#FFFFFF" d="M413.329,127.936h200.73c23.648,0,42.819,17.813,42.819,39.787v446.691
	c0,21.974-19.171,39.787-42.819,39.787h-200.73c-23.648,0-42.819-17.813-42.819-39.787V167.723
	C370.51,145.749,389.681,127.936,413.329,127.936z"/>
<path fill="#EAEAF3" d="M506.01,102.9h45c1.933,0,3.5,1.567,3.5,3.5l0,0c0,1.933-1.567,3.5-3.5,3.5h-45c-1.933,0-3.5-1.567-3.5-3.5
	l0,0C502.51,104.467,504.077,102.9,506.01,102.9z"/>
<circle fill="#EAEAF3" cx="572.51" cy="106.9" r="5"/>
<path fill="#59495D" d="M213.23,715.242c0,0,7.356,21.996,16.803,26.183c9.447,4.187,24.16,8.374,16.803,13.602
	c-7.356,5.229-29.583-3.145-47.333-3.145c-3.156,0-21.004-2.103-21.004-2.103s0-28.266,4.201-33.417
	C186.901,711.213,213.23,715.242,213.23,715.242z"/>
<path fill="#59495D" d="M100.834,715.242c0,0-4.201,25.121-12.602,28.266s-10.512,16.748,3.156,16.748s21.004-3.145,25.205-9.416
	l8.402-2.103c0,0,5.246-24.08,0-30.37L100.834,715.242z"/>
<path fill="#F0B9BB" d="M239.5,300.622c0,0,19.959,13.603,25.205,18.851c5.246,5.248,8.402,9.416,13.648,3.145
	s29.406-39.785,33.528-50.262c4.122-10.477,32.561-31.451,52.52-20.934c19.959,10.516-40.963,35.598-40.963,35.598l-34.573,68.052
	c0,0-1.045,7.332-18.914,0s-59.876-26.143-59.876-26.143L239.5,300.622z"/>
<path fill="#524D64" d="M215.34,441.974c0,0,9.447,64.867,5.246,77.487l-9.447,68.052c0,0,1.045,114.127,5.246,126.688
	s-37.827,13.602-37.827,13.602s5.246-32.453,0-40.827s-4.201-93.193-4.201-93.193l-12.662-87.944l-26.27,104.692l-7.258,117.272
	c0,0-28.36-1.042-30.471-9.416s-5.246-118.314,0-128.791s0-87.944,0-87.944s4.201-59.678,16.803-67.01
	S215.34,441.974,215.34,441.974z"/>
<path fill="#F0B9BB" d="M147.042,218.968c0,0-2.11,50.262-19.959,40.827l15.778,47.176l35.717-2.103l21.004-28.266l-15.778-9.416
	c0,0-11.557,4.187-3.156-34.557L147.042,218.968z"/>
<path fill="#E2E8F0" d="M177.474,258.753c0,0,17.849,14.664,31.555,15.725c10.236,0.786,28.163,19.834,36.486,29.308
	c1.504,1.794,3.391,3.231,5.522,4.207c0,0-21.004,29.308-24.16,29.308l-6.311-4.187l-5.246,57.594v34.537l4.201,25.121
	c0,0-66.187,1.042-72.479-4.187s-42.028,4.187-42.028,4.187s10.512-68.052,3.156-76.426s-19.959-67.01-19.959-67.01
	s-8.402-24.08,0-31.451c0,0,24.278-6.801,36.092-15.273c4.033-2.957,8.898-4.573,13.904-4.619h0.769c0,0,0.71,15.725,16.468,18.851
	S181.182,271.923,177.474,258.753z"/>
<path fill="#E2E8F0" d="M106.08,336.22c0,0-31.555-4.187-34.672-4.187c-3.116,0,10.512-51.304,17.849-56.533
	s16.803,18.851,16.803,18.851L106.08,336.22z"/>
<path fill="#F0B9BB" d="M76.674,322.618c0,0-10.512,50.262-5.246,64.867c0,0-1.045,10.477,5.246,15.725
	c0,0,34.672,46.075,34.672,50.262c0,4.187,10.512,24.08,28.36,7.332c0,0,8.402-11.519-10.512-20.935
	c-18.914-9.416-34.672-57.594-34.672-57.594s15.778-38.743,9.447-51.304S76.674,322.618,76.674,322.618z"/>
<ellipse fill="#F0B9BB" cx="171.202" cy="216.865" rx="32.561" ry="32.453"/>
<path fill="#575168" d="M206.327,198.387c0.069-1.193,0.328-2.368,0.769-3.479c0.454-0.963,1.183-1.808,1.578-2.791
	c1.006-2.437,0-5.17-1.124-7.587c-2.938-7.391-6.717-14.421-11.261-20.954c-0.636-0.982-1.511-1.787-2.544-2.339
	c-1.183-0.382-2.43-0.522-3.668-0.413c-5.779,0-11.123-2.791-16.586-4.619s-11.833-2.693-16.665,0.59
	c-4.832,3.283-6.489,9.828-11.597,12.443c-1.381,0.708-2.919,1.061-4.28,1.828c-1.819,1.185-3.387,2.714-4.615,4.501
	c-5.754,5.665-8.57,13.655-7.632,21.662c0,5.897,0.611,12.462,5.305,15.902c1.07,0.781,1.992,1.746,2.722,2.85
	c0.898,1.451,1.351,3.132,1.302,4.836c0.237,3.243,1.499,6.467,1.736,9.71c-0.028,1.236,0.294,2.455,0.927,3.519
	c0.717,1.037,2.142,1.297,3.182,0.582c0.024-0.017,0.048-0.034,0.072-0.052l3.294-13.504c0.447-2.698,1.491-5.263,3.057-7.509
	c2.446-2.988,6.804-4.482,8.106-8.138c0.927-2.614,0.118-5.995,2.169-7.863c0.882-0.676,1.919-1.122,3.017-1.297
	c9.445-2.243,19.249-2.544,28.814-0.885c1.029,0.121,2.026,0.435,2.939,0.924c1.559,1.229,2.657,2.947,3.116,4.875
	c0.69,1.966,3.234,12.954,5.917,12.207C205.597,212.953,206.327,200.156,206.327,198.387z"/>
<path id="Path_222" fill="#008000" d="M550.243,224.182c-0.001,27.933-21.372,50.576-47.734,50.575
	c-26.362-0.001-47.732-22.646-47.731-50.579s21.372-50.576,47.734-50.575C528.874,173.604,550.244,196.249,550.243,224.182
	L550.243,224.182z M496.994,250.954l35.408-37.518c1.203-1.271,1.206-3.335,0.006-4.61c-0.002-0.002-0.004-0.004-0.006-0.006
	l-4.357-4.582c-1.197-1.273-3.141-1.277-4.342-0.009c-0.003,0.003-0.006,0.006-0.009,0.009l-28.879,30.6l-13.484-14.321
	c-1.205-1.27-3.152-1.27-4.357,0l-4.357,4.643c-1.198,1.277-1.198,3.339,0,4.616l20.02,21.205c1.2,1.275,3.148,1.278,4.351,0.006
	c0.002-0.002,0.004-0.004,0.006-0.006L496.994,250.954z"/>
<path fill="#008000" d="M611.794,569.459v28.6l-12.844-0.122c0-0.203,0.019-0.407,0.019-0.598c0-10.219-11.336-18.504-25.32-18.504
	s-25.32,8.285-25.32,18.504l0,0c0,0.04,0,0.081,0,0.12l-12.818-0.122h-66.438c-0.001-0.68-0.053-1.358-0.156-2.033
	c-0.047-0.325-0.106-0.645-0.181-0.962c-0.179-0.816-0.434-1.621-0.763-2.412c-0.134-0.325-0.278-0.645-0.439-0.962
	c-0.415-0.826-0.91-1.629-1.481-2.404c-0.24-0.328-0.495-0.647-0.763-0.962c-0.718-0.847-1.529-1.651-2.424-2.404
	c-0.395-0.332-0.804-0.653-1.227-0.962c-9.885-7.212-25.894-7.212-35.779,0c-0.424,0.311-0.834,0.631-1.227,0.962
	c-0.895,0.752-1.705,1.556-2.424,2.404c-0.278,0.315-0.523,0.634-0.763,0.962c-0.571,0.775-1.065,1.578-1.48,2.404
	c-0.158,0.317-0.306,0.637-0.439,0.962c-0.328,0.788-0.583,1.591-0.763,2.404c-0.075,0.317-0.134,0.637-0.181,0.962
	c-0.103,0.675-0.155,1.354-0.156,2.033h-25.32v-63.198H571.68l17.716,28.229l22.017,6.979L611.794,569.459z"/>
<polygon opacity="0.1" enable-background="new    " points="528.84,597.252 509.766,597.252 509.766,534.046 547.254,534.046 
	547.254,577.784 "/>
<path fill="#F5F5F5" d="M526.14,538.698h18.72c2.459,0,4.452,1.456,4.452,3.254v21.371c0,1.797-1.993,3.254-4.452,3.254h-18.72
	c-2.459,0-4.452-1.456-4.452-3.254v-21.371C521.688,540.155,523.681,538.698,526.14,538.698z"/>
<rect x="530.156" y="569.012" fill="#1A2246" width="3.617" height="5.769"/>
<path fill="#F5F5F5" d="M560.492,542.661v19.907c0,0.62,0.687,1.122,1.536,1.122l0,0h16.764c0.848-0.001,1.536-0.503,1.535-1.123
	c0-0.207-0.079-0.411-0.227-0.587l-16.764-19.907c-0.445-0.528-1.391-0.692-2.113-0.367
	C560.769,541.91,560.492,542.272,560.492,542.661z"/>
<ellipse fill="#FFFFFF" cx="429.857" cy="597.372" rx="9.866" ry="7.21"/>
<ellipse fill="#1A2246" cx="429.693" cy="597.252" rx="2.632" ry="1.924"/>
<ellipse fill="#1A2246" cx="573.647" cy="597.337" rx="17.757" ry="12.977"/>
<ellipse fill="#FFFFFF" cx="573.647" cy="597.337" rx="9.866" ry="7.21"/>
<ellipse fill="#1A2246" cx="573.811" cy="597.216" rx="2.632" ry="1.924"/>
<rect x="392.944" y="577.509" opacity="0.1" enable-background="new    " width="123.319" height="0.962"/>
<polyline opacity="0.1" enable-background="new    " points="595.596,578.506 539.199,578.506 539.856,577.784 539.856,577.544 
	595.596,577.544 "/>
<path opacity="0.1" enable-background="new    " d="M502.369,591.003v0.962H454.08c-0.134-0.325-0.278-0.645-0.439-0.962H502.369z"
	/>
<path fill="#F5F5F5" d="M410.837,537.012h18.72c2.459,0,4.452,1.456,4.452,3.254v21.371c0,1.797-1.993,3.254-4.452,3.254h-18.72
	c-2.459,0-4.452-1.456-4.452-3.254v-21.371C406.385,538.469,408.379,537.012,410.837,537.012z"/>
<path fill="#F5F5F5" d="M466.619,536.174h18.72c2.459,0,4.452,1.456,4.452,3.254v21.371c0,1.797-1.993,3.254-4.452,3.254h-18.72
	c-2.459,0-4.452-1.456-4.452-3.254v-21.371C462.167,537.631,464.16,536.174,466.619,536.174z"/>
<ellipse fill="#1A2246" cx="443.586" cy="595.293" rx="17.757" ry="12.977"/>
<ellipse fill="#FFFFFF" cx="442.541" cy="595.568" rx="9.866" ry="7.21"/>
<ellipse fill="#1A2246" cx="443.586" cy="597.216" rx="2.632" ry="1.924"/>
<image overflow="visible" enable-background="new    " width="379" height="306" xlink:href="../img/bus.jpg"  transform="matrix(0.7323 0 0 0.6977 374.9236 313.5885)">
</image>
<ellipse fill="#2F2E41" cx="772.248" cy="224.684" rx="51.059" ry="43.667"/>
<ellipse fill="#FFB8B8" cx="764.648" cy="239.939" rx="34.673" ry="29.653"/>
<path fill="#FFB8B8" d="M744.032,255.968c0,0,14.994,29.653,7.497,32.859s-11.245,17.632-11.245,17.632l19.679,35.264l27.176,14.426
	h15.931c0,0,15.931-60.91,10.308-68.123c-5.623-7.213-26.239-11.22-26.239-11.22s-4.686-9.617-2.811-18.433
	C786.202,249.557,744.032,255.968,744.032,255.968z"/>
<path fill="#FFB8B8" d="M721.541,340.12l-24.365-16.83c0,0-44.044-26.448-38.421-7.213s30.924,20.838,30.924,20.838l42.17,28.852
	L721.541,340.12z"/>
<path fill="#2F2E41" d="M719.667,428.279c0,0-11.245,40.072,0,94.57l4.686,21.639c0,0,0,16.83,4.686,23.242
	c0,0,12.182,95.372,18.742,95.372s27.176-3.206,29.05-5.61c1.874-2.404-36.547-233.22-36.547-233.22L719.667,428.279z"/>
<path opacity="0.1" enable-background="new    " d="M719.667,428.279c0,0-11.245,40.072,0,94.57l4.686,21.639
	c0,0,0,16.83,4.686,23.242c0,0,12.182,95.372,18.742,95.372s27.176-3.206,29.05-5.61c1.874-2.404-36.547-233.22-36.547-233.22
	L719.667,428.279z"/>
<path fill="#2F2E41" d="M750.443,656.701l-14.516,46.008c0,0-29.033,14.606-11.101,17.527c17.932,2.921,35.864-2.921,35.864-2.921
	l8.539-21.179l8.539-4.382v22.639h2.562l5.977-29.942c0,0-0.854-15.336-5.977-16.797s-7.685-9.494-7.685-9.494L750.443,656.701z"/>
<path opacity="0.1" enable-background="new    " d="M750.443,656.701l-14.516,46.008c0,0-29.033,14.606-11.101,17.527
	c17.932,2.921,35.864-2.921,35.864-2.921l8.539-21.179l8.539-4.382v22.639h2.562l5.977-29.942c0,0-0.854-15.336-5.977-16.797
	s-7.685-9.494-7.685-9.494L750.443,656.701z"/>
<path fill="#2F2E41" d="M715.919,426.676c0,0,7.497,24.043,10.308,28.051c0,0,3.748,68.123,15.931,91.365l13.119,29.653
	c0,0,21.553,87.357,15.931,96.975c0,0,29.05,5.61,30.924,0c0,0-0.937-46.484,1.874-52.895c2.811-6.412,7.497-41.675-14.994-67.321
	v-77.74c0,0,35.61-25.646,14.994-58.505C783.39,383.398,715.919,426.676,715.919,426.676z"/>
<path fill="#2F2E41" d="M774.019,667.911l-15.931,50.491c0,0-31.862,16.029-12.182,19.235c19.679,3.206,39.358-3.206,39.358-3.206
	l9.371-23.242l9.371-4.809v24.845h2.811l6.56-32.859c0,0-0.937-16.83-6.56-18.433s-8.434-10.419-8.434-10.419L774.019,667.911z"/>
<path fill="#3F3D56" d="M753.567,282.842c0,0-23.592,11.596-23.592,12.397s2.811,13.625,2.811,13.625s-29.05,24.845-9.371,46.484
	c0,0,6.56,4.007,6.56,16.83v12.823c0,0-55.289,29.653-41.233,39.271c14.057,9.617,29.05,8.014,33.736,13.625
	s31.862-4.809,37.484-6.412c5.623-1.603,6.56-3.206,11.245,2.404s30.925-4.007,30.925-4.007s16.868-4.007,20.616-4.007
	c2.315-0.024,4.58-0.577,6.56-1.603l-40.296-35.264l20.148-43.679c0,0-59.506-31.657-59.506-40.473S753.567,282.842,753.567,282.842
	z"/>
<path fill="#FFB8B8" d="M789.95,284.82c0,0-12.182,14.426-2.811,34.462s24.365,43.278,24.365,43.278l-23.428,6.412h-21.554
	c0,0-44.981-6.412-40.296,8.014c4.686,14.426,36.547,8.014,36.547,8.014h18.742c0,0,42.17,4.007,47.792-2.404
	c0,0,14.994-0.801,8.434-26.448c-6.56-25.646-25.712-69.547-25.712-69.547L789.95,284.82z"/>
<ellipse fill="#2F2E41" cx="757.905" cy="212.418" rx="32.701" ry="14.229"/>
<ellipse fill="#FFB8B8" cx="798.853" cy="237.936" rx="4.686" ry="8.816"/>
<ellipse fill="#2F2E41" cx="795.104" cy="185.842" rx="28.113" ry="24.043"/>
</svg>
