<?xml version="1.0" encoding="utf-8"?>
<!-- Generator: Adobe Illustrator 17.0.0, SVG Export Plug-In . SVG Version: 6.00 Build 0)  -->
<!DOCTYPE svg PUBLIC "-//W3C//DTD SVG 1.1//EN" "http://www.w3.org/Graphics/SVG/1.1/DTD/svg11.dtd">
<svg version="1.1" id="b788e214-8c62-4533-b5b0-3b3e1bf4c8d8"
	 xmlns="http://www.w3.org/2000/svg" xmlns:xlink="http://www.w3.org/1999/xlink" x="0px" y="0px" width="1161.522px"
	 height="792.25px" viewBox="0 0 1161.522 792.25" enable-background="new 0 0 1161.522 792.25" xml:space="preserve">
<title>file_sync</title>
<path fill="#CBD82A" d="M565.383,39.699h-1.346v-2.355h1.009c0.372,0,0.673-0.301,0.673-0.673V24.56
	c0-0.372-0.301-0.673-0.673-0.673h-1.009v-6.878c0-8.093-6.56-14.653-14.653-14.653c0,0,0,0,0,0h-1.495V0.673
	c0-0.372-0.301-0.673-0.673-0.673h-12.112c-0.372,0-0.673,0.301-0.673,0.673v1.682H315.598c-8.093,0-14.653,6.56-14.653,14.653
	c0,0,0,0,0,0v311.838c0,8.093,6.561,14.653,14.653,14.653c0,0,0,0,0,0h233.785c8.093,0,14.653-6.56,14.654-14.653c0,0,0,0,0,0
	V53.157h1.346c0.372,0,0.673-0.301,0.673-0.673V40.372C566.055,40.001,565.754,39.699,565.383,39.699L565.383,39.699z"/>
<rect x="313.055" y="11.94" fill="#F2F2F2" width="240.89" height="319.62"/>
<path fill="#CBD82A" d="M867,106.332h-1.49V65.525c0-13.044-10.574-23.618-23.618-23.618c0,0,0,0,0,0h-86.456
	c-13.044,0-23.618,10.574-23.618,23.618c0,0,0,0,0,0v223.874c0,13.044,10.574,23.618,23.618,23.618c0,0,0,0,0,0h86.456
	c13.044,0,23.618-10.574,23.618-23.618c0,0,0,0,0,0V135.38H867V106.332z"/>
<path fill="#F2F2F2" d="M860.481,66.913V290.46c0.002,9.741-7.894,17.64-17.635,17.642h-86.874
	c-9.741-0.002-17.637-7.9-17.635-17.642V66.913c0.001-9.739,7.896-17.634,17.635-17.635h10.54
	c-1.747,4.285,0.311,9.175,4.596,10.922c1.004,0.409,2.079,0.62,3.164,0.62h49.53c4.627,0,8.379-3.751,8.379-8.378
	c0-1.085-0.21-2.159-0.62-3.164h11.285C852.585,49.279,860.48,57.174,860.481,66.913z"/>
<rect x="774.348" y="79" fill="#CCCCCC" width="73.396" height="2.727"/>
<rect x="774.348" y="87.636" fill="#CCCCCC" width="73.396" height="2.727"/>
<rect x="774.348" y="96.273" fill="#CCCCCC" width="73.396" height="2.727"/>
<rect x="751.073" y="80.686" fill="#CCCCCC" width="16.629" height="16.629"/>
<rect x="774.348" y="273" fill="#CCCCCC" width="73.396" height="2.727"/>
<rect x="774.348" y="281.636" fill="#CCCCCC" width="73.396" height="2.727"/>
<rect x="774.348" y="290.273" fill="#CCCCCC" width="73.396" height="2.727"/>
<rect x="751.073" y="274.685" fill="#CCCCCC" width="16.629" height="16.629"/>
<path fill="#3F3D56" d="M839.908,380.568H631.186v-4.302h-94.642v4.302H326.962c-7.797,0-14.118,6.321-14.118,14.118v0V680.49
	c0,7.797,6.321,14.118,14.118,14.118h512.945c7.797,0,14.118-6.321,14.118-14.118V394.686
	C854.026,386.889,847.705,380.568,839.908,380.568z"/>
<rect x="331.772" y="405.519" fill="#F2F2F2" width="503.325" height="283.927"/>
<circle fill="#008000" cx="583.005" cy="392.613" r="5.162"/>
<path fill="#3F3D56" d="M868.158,684.284h-49.121v-3.539c0-0.388-0.314-0.702-0.702-0.702l0,0h-16.842
	c-0.388,0-0.702,0.314-0.702,0.702l0,0v3.539h-10.526v-3.539c0-0.388-0.314-0.702-0.702-0.702l0,0h-16.842
	c-0.388,0-0.702,0.314-0.702,0.702l0,0v3.539h-10.526v-3.539c0-0.388-0.314-0.702-0.702-0.702l0,0h-16.842
	c-0.388,0-0.702,0.314-0.702,0.702l0,0v3.539h-10.526v-3.539c0-0.388-0.314-0.702-0.702-0.702l0,0h-16.842
	c-0.388,0-0.702,0.314-0.702,0.702l0,0v3.539h-10.526v-3.539c0-0.388-0.314-0.702-0.702-0.702l0,0H686.41
	c-0.388,0-0.702,0.314-0.702,0.702l0,0v3.539h-10.526v-3.539c0-0.388-0.314-0.702-0.702-0.702l0,0h-16.842
	c-0.388,0-0.702,0.314-0.702,0.702l0,0v3.539h-10.526v-3.539c0-0.388-0.314-0.702-0.702-0.702l0,0H513.784
	c-0.388,0-0.702,0.314-0.702,0.702l0,0v3.539h-10.526v-3.539c0-0.388-0.314-0.702-0.702-0.702l0,0h-16.842
	c-0.388,0-0.702,0.314-0.702,0.702v0v3.539h-10.526v-3.539c0-0.388-0.314-0.702-0.702-0.702h0h-16.842
	c-0.388,0-0.702,0.314-0.702,0.702l0,0v3.539h-10.526v-3.539c0-0.388-0.314-0.702-0.702-0.702c0,0,0,0,0,0H427.47
	c-0.388,0-0.702,0.314-0.702,0.702l0,0v3.539h-10.526v-3.539c0-0.388-0.314-0.702-0.702-0.702c0,0,0,0,0,0h-16.842
	c-0.388,0-0.702,0.314-0.702,0.702l0,0v3.539h-10.526v-3.539c0-0.388-0.314-0.702-0.702-0.702c0,0,0,0,0,0h-16.842
	c-0.388,0-0.702,0.314-0.702,0.702l0,0v3.539h-10.526v-3.539c0-0.388-0.314-0.702-0.702-0.702c0,0,0,0,0,0h-16.842
	c-0.388,0-0.702,0.314-0.702,0.702v0v3.539h-32.28c-9.301,0-16.842,7.54-16.842,16.842v7.615c0,9.301,7.54,16.842,16.842,16.842
	h559.983c9.301,0,16.842-7.54,16.842-16.841v-7.615C885,691.824,877.46,684.284,868.158,684.284
	C868.158,684.284,868.158,684.284,868.158,684.284z"/>
<rect x="534.788" y="427.757" fill="#E6E6E6" width="141.24" height="5.248"/>
<rect x="534.788" y="444.376" fill="#E6E6E6" width="141.24" height="5.248"/>
<rect x="534.788" y="460.995" fill="#E6E6E6" width="141.24" height="5.248"/>
<rect x="534.788" y="427.757" fill="#CCCCCC" width="141.24" height="5.248"/>
<rect x="534.788" y="444.376" fill="#CCCCCC" width="141.24" height="5.248"/>
<rect x="534.788" y="460.995" fill="#CCCCCC" width="141.24" height="5.248"/>
<rect x="490" y="431" fill="#CCCCCC" width="32" height="32"/>
<rect x="534.788" y="614.756" fill="#CCCCCC" width="141.24" height="5.248"/>
<rect x="534.788" y="631.376" fill="#CCCCCC" width="141.24" height="5.248"/>
<rect x="534.788" y="647.995" fill="#CCCCCC" width="141.24" height="5.248"/>
<rect x="490" y="618" fill="#CCCCCC" width="32" height="32"/>
<rect x="385.274" y="27.757" fill="#CCCCCC" width="141.24" height="5.248"/>
<rect x="385.274" y="44.376" fill="#CCCCCC" width="141.24" height="5.248"/>
<rect x="385.274" y="60.995" fill="#CCCCCC" width="141.24" height="5.248"/>
<rect x="340.486" y="31" fill="#CCCCCC" width="32" height="32"/>
<rect x="384.788" y="276.757" fill="#CCCCCC" width="141.24" height="5.248"/>
<rect x="384.788" y="293.376" fill="#CCCCCC" width="141.24" height="5.248"/>
<rect x="384.788" y="309.995" fill="#CCCCCC" width="141.24" height="5.248"/>
<rect x="340" y="280" fill="#CCCCCC" width="32" height="32"/>
<circle fill="#008000" cx="375.864" cy="174.032" r="23.864"/>
<circle fill="#008000" cx="439.5" cy="174.032" r="19.5"/>
<circle fill="#008000" cx="503.136" cy="174.032" r="11.864"/>
<circle fill="#008000" cx="768.978" cy="177.02" r="12.536"/>
<circle fill="#008000" cx="802.409" cy="177.02" r="9.967"/>
<circle fill="#008000" cx="835.839" cy="177.02" r="6.536"/>
<ellipse opacity="0.1" fill="#008000" enable-background="new    " cx="190.26" cy="779.71" rx="156.53" ry="15.2"/>
<path fill="#C37098" d="M221.55,317.88v12.44l-25.52,12.83c0,0-25.34-15.33-19.09-21.43c4-3.86,3.23-14.46,2.15-21.75l0,0
	c-0.63-4.24-1.36-7.35-1.36-7.35s45.52-13,38.64-3.13c-2.3,3.3-2.48,7.57-1.71,11.8C216.22,309.68,221.55,317.88,221.55,317.88z"/>
<path fill="#3F3D56" d="M151.64,439.53l-3.29,40.52c0,0-4.93-4.47-11.31-10.29c-11.83-10.79-28.63-26.22-28.43-26.63
	c0.31-0.63,3-37.39,3.29-46.63c0.273-6.559,1.702-13.018,4.22-19.08c0.6-1.2,2.29-8.84,3-12.41c0.24-1.11,0.39-1.83,0.39-1.83
	l5.52-2.22c0,0,23,25.66,23,26.13s-1.57,20.18-1.57,20.18l-1.63,1.42l-0.71,0.61c0,0-1.1,8.61-1.88,11.19s0.06,7.06,0.15,7.54l0,0
	c-0.074,1.347-0.264,2.686-0.57,4c-0.13,0.505-0.308,0.998-0.53,1.47c-0.282,0.875-0.225,1.825,0.16,2.66
	c0.444,1.159,1.022,2.263,1.72,3.29L151.64,439.53z"/>
<path fill="#3F3D56" d="M291.03,443.13c0.24,0.49-24.29,22.88-34.92,32.55l-4.82,4.37l-3.26-40.52h8.45c0,0,2.82-4.07,1.88-5.95
	c-0.655-1.753-1.023-3.6-1.09-5.47c0,0,0.93-5,0.15-7.59s-1.88-11.19-1.88-11.19l-1.07-0.92l-1.27-1.11c0,0-1.57-19.71-1.57-20.18
	s23-26.13,23-26.13l5.48,2.19c0,0,0.12,0.59,0.32,1.53c0.74,3.41,2.51,11.48,3.12,12.71c2.518,6.062,3.947,12.521,4.22,19.08
	C288.03,405.74,290.71,442.5,291.03,443.13z"/>
<path opacity="0.1" enable-background="new    " d="M291.13,787.07c-1.47,2.92-11.79,1-13.92,0.84s-17.17-7.73-17.38-9.5
	s-5.42-5.42-6.88-5.42s-8.55-5.64-9.18-6.47c-0.16-0.414-0.231-0.857-0.21-1.3c-0.22-3.43,0.21-12.26,0.21-12.26l30.25,1.67
	l14.7,22.11c1.239,2.385,2.135,4.934,2.66,7.57C291.558,785.235,291.472,786.192,291.13,787.07z"/>
<path opacity="0.1" enable-background="new    " d="M148.13,768.82c0,0-4.28,5.32-10,5.73c-3.135,0.024-5.702,2.498-5.84,5.63
	c0,0,1,3.24-12.83,7.73c-8.35,2.69-13.6,1.84-16.66,0c-1.642-0.906-2.882-2.399-3.47-4.18c-0.94-3.33,17.52-28.68,17.52-28.68
	l16.8-1l12,5.42l1.84,6.87L148.13,768.82z"/>
<path fill="#3F3D56" d="M276.94,745.56c-1.88,4.38,0,13.35,0,13.35s-28,1.46-34.84-3.13s-11.68-30.88-11.68-30.88s1-30.87,0-32.33
	s-4.8-8.34-3.55-9.8s-1-9.18-2.71-12.52s-1-12.93-1-12.93l-4.18-25.46l-6.46-30.24l-5.49-20.24c0,0-5.63-16.48-7.54-23.36
	s-3.93-0.63-3.93-0.63c-0.2,6.68-15.64,36.72-15.64,36.72s-2.3,18.15-4.8,24.61s-5.22,29-5.22,29s-4,45.89-7.3,53.61
	s-5.57,19.19-5.57,19.19s0.84,15.86-1.25,17.11s-1.75,10.85-1.75,10.85s1.25,9.17-3.55,10.64s-4,4.59-4,4.59s-26.7,4.38-31.08-7.31
	s1.67-14.8,2-15.64s3.66-2.29,0.74-5.64s3.75-12.51,3.75-12.51s1.05-12.93,2.92-13.35s1.26-19.19,1.26-19.19l2.08-19.61
	c0,0,2.72-43.81,2.09-45.48s-0.21-10,1.88-14s3.75-40.48,3.75-40.48s-0.42-17.93,1.25-21.27c1-1.89,1.42-9.16,1.66-15.09
	c0.18-4.53,0.22-8.28,0.22-8.28l23.36-8.76l30-9.59l25.24,12.1l36.93,7.09l0.46,6.37l7.05,97.31l4,36.71c0,0,1.67,17.31,1.88,20.44
	s2.29,23.58,2.29,23.58s4.38,9.8,1.67,13.14s-1.67,6-1.67,6S278.82,741.18,276.94,745.56z"/>
<path fill="#C37098" d="M227.03,276.73c0,16.182-13.118,29.3-29.3,29.3s-29.3-13.118-29.3-29.3s13.118-29.3,29.3-29.3l0,0
	c16.104-0.078,29.222,12.915,29.3,29.019C227.03,276.543,227.03,276.636,227.03,276.73z"/>
<path fill="#3F3D56" d="M179.93,311.96c0,0-3.12-4.59-7.4,4.27c0,0-11.16,6.47-15,7.2s-17.5,5.53-17.5,5.53
	c-2.063,1.491-4.544,2.293-7.09,2.29c-4.28,0-7.83,9.39-7.31,14.5s-0.31,8.87-4.27,9.08s-1.78,8.44-1.78,8.44l26.39,30.25
	c0,0,1.67,27.85,0.84,28.69s-3.86,9-3.13,9.28s-4,31.08-4,31.08l-6.36,59.77c0,0,0,10,12.94,13.45s44.77,1.17,46.82-7.91l6.57-8.56
	c0,0,11.26,21.91,28.47,19.72s28.17-8.45,28.17-8.45l-1.88-71.63l-1.25-51.63l26.87-44.15c0,0-7.2-13.77-6.57-20
	s1.87-10.95-13.46-13.14c0,0-12.93-1.93-20.55-7.2c-4.528-3.144-9.477-5.635-14.7-7.4c0,0-4.3-8-7.29-5.26c0,0,3,11.31,2.75,13
	s0.47,9.33,0.94,10.12s6.73,37.6,0.36,50.74c0,0-9.35,35.43-16,42.14s-21.27-39.84-21.27-39.84s-7.72-41.52-6.47-47.36
	S179.93,311.96,179.93,311.96z"/>
<circle opacity="0.1" enable-background="new    " cx="202.25" cy="444.12" r="4.59"/>
<circle opacity="0.1" enable-background="new    " cx="202.25" cy="465.76" r="4.59"/>
<path fill="#3F3D56" d="M167.64,280.47c0.75,0.17,1.46,0.56,2.23,0.66c2.49,0.3,4.21-2.48,4.73-4.93c0.81-3.81,0.39-7.76,0.36-11.65
	c-0.056-0.639,0.051-1.283,0.31-1.87c0.57-1.08,1.94-1.38,3-1.88c2.42-1.08,4-3.38,6-5.17s4.91-3.11,7.17-1.75
	c0.67,0.4,1.21,1,1.87,1.42c1.459,0.758,3.165,0.885,4.72,0.35c1.55-0.46,3-1.27,4.49-1.88c3.34-1.36,7.76-1.41,10,1.43
	c1.11,1.43,1.62,3.48,3.28,4.18c0.61,0.26,1.3,0.29,1.93,0.52c2.11,0.79,2.65,3.52,2.56,5.77s-0.39,4.78,1,6.52
	c1.16,1.42,3.36,2.16,3.61,4c0.16,1.18-0.62,2.28-0.75,3.46c-0.124,1.829,1.258,3.413,3.087,3.537
	c0.014,0.001,0.028,0.002,0.043,0.003c2.6,0,4.21-2.91,6.64-3.84c1-0.39,2.21-0.45,3-1.24c0.594-0.769,0.821-1.759,0.62-2.71
	c-0.49-3.83-3.56-7.16-3.23-11c0.31-3.68,3.72-6.89,3-10.51c-0.367-1.335-1.053-2.56-2-3.57c-1.072-1.453-2.469-2.634-4.08-3.45
	c-1.39-0.6-3-0.74-4.27-1.47c-3.78-2.07-3.77-7.47-6-11.15c-1.951-3.1-5.47-4.852-9.12-4.54c-2.81,0.28-5.36,1.77-8.14,2.27
	c-3.81,0.68-7.67-0.57-11.28-2s-7.26-3-11.13-3s-8.06,2-9.24,5.66c-0.62,2-0.31,4.14-0.79,6.15c-0.84,3.57-4,6.11-7.18,7.88
	c-2.19,1.22-4.82,2.62-5.08,5.11c-0.17,1.58,0.7,3,1.25,4.53c0.935,2.588,0.914,5.426-0.06,8c-0.73,1.89-1.95,3.55-2.69,5.43
	c-1.062,2.581-0.968,5.493,0.26,8c0.942,1.826,2.595,3.183,4.57,3.75C164.3,281.96,165.54,280.01,167.64,280.47z"/>
<ellipse fill="#EBFCEB" cx="984.787" cy="770.675" rx="102.713" ry="21.576"/>
<ellipse fill="#2F2E41" cx="975.116" cy="297.592" rx="32.373" ry="41.201"/>
<ellipse fill="#FFB8B8" cx="970.298" cy="311.986" rx="21.984" ry="27.979"/>
<path fill="#FFB8B8" d="M957.226,327.109c0,0,9.507,27.979,4.753,31.003c-4.753,3.025-7.13,16.636-7.13,16.636l12.477,33.272
	l17.231,13.611h10.101c0,0,10.101-57.469,6.536-64.275c-3.565-6.806-16.636-10.586-16.636-10.586s-2.971-9.074-1.782-17.392
	C983.963,321.06,957.226,327.109,957.226,327.109z"/>
<path fill="#FFB8B8" d="M942.967,406.508l-15.448-15.88c0,0-27.925-24.954-24.36-6.806c3.565,18.148,19.607,19.661,19.607,19.661
	l26.737,27.222L942.967,406.508z"/>
<path fill="#2F2E41" d="M941.778,489.687c0,0-7.13,37.809,0,89.229l2.971,20.417c0,0,0,15.88,2.971,21.929
	c0,0,7.724,89.985,11.883,89.985c4.159,0,17.231-3.025,18.419-5.293c1.188-2.269-23.172-220.048-23.172-220.048L941.778,489.687z"/>
<path opacity="0.1" enable-background="new    " d="M941.778,489.687c0,0-7.13,37.809,0,89.229l2.971,20.417
	c0,0,0,15.88,2.971,21.929c0,0,7.724,89.985,11.883,89.985c4.159,0,17.231-3.025,18.419-5.293
	c1.188-2.269-23.172-220.048-23.172-220.048L941.778,489.687z"/>
<path fill="#2F2E41" d="M961.291,705.208l-9.204,43.41c0,0-18.408,13.781-7.038,16.537s22.739-2.756,22.739-2.756l5.414-19.982
	l5.414-4.134v21.36h1.624l3.79-28.251c0,0-0.541-14.47-3.79-15.848c-3.248-1.378-4.873-8.958-4.873-8.958L961.291,705.208z"/>
<path opacity="0.1" enable-background="new    " d="M961.291,705.208l-9.204,43.41c0,0-18.408,13.781-7.038,16.537
	s22.739-2.756,22.739-2.756l5.414-19.982l5.414-4.134v21.36h1.624l3.79-28.251c0,0-0.541-14.47-3.79-15.848
	c-3.248-1.378-4.873-8.958-4.873-8.958L961.291,705.208z"/>
<path fill="#2F2E41" d="M939.402,488.175c0,0,4.753,22.685,6.536,26.466c0,0,2.377,64.275,10.101,86.204l8.318,27.979
	c0,0,13.666,82.423,10.101,91.497c0,0,18.419,5.293,19.607,0c0,0-0.594-43.858,1.188-49.908s4.753-39.321-9.507-63.519v-73.349
	c0,0,22.578-24.198,9.507-55.201C982.181,447.342,939.402,488.175,939.402,488.175z"/>
<path fill="#2F2E41" d="M976.239,715.784l-10.101,47.639c0,0-20.201,15.124-7.724,18.148c12.477,3.025,24.955-3.025,24.955-3.025
	l5.942-21.929l5.942-4.537v23.442h1.782l4.159-31.003c0,0-0.594-15.88-4.159-17.392s-5.347-9.83-5.347-9.83L976.239,715.784z"/>
<path fill="#3F3D56" d="M963.272,352.465c0,0-14.958,10.941-14.958,11.697s1.782,12.855,1.782,12.855s-18.419,23.441-5.942,43.858
	c0,0,4.159,3.781,4.159,15.88v12.099c0,0-35.055,27.979-26.143,37.053c8.912,9.074,18.419,7.562,21.39,12.855
	c2.971,5.293,20.201-4.537,23.766-6.049c3.565-1.512,4.159-3.025,7.13,2.269c2.971,5.293,19.607-3.781,19.607-3.781
	s10.695-3.781,13.071-3.781c1.468-0.023,2.904-0.545,4.159-1.512l-25.549-33.272l12.774-41.212c0,0-37.729-29.869-37.729-38.187
	C960.791,364.918,963.272,352.465,963.272,352.465z"/>
<path fill="#FFB8B8" d="M986.34,354.332c0,0-7.724,13.611-1.782,32.516s15.448,40.834,15.448,40.834l-14.854,6.049h-13.666
	c0,0-28.52-6.049-25.549,7.562c2.971,13.611,23.172,7.562,23.172,7.562h11.883c0,0,26.737,3.781,30.302-2.269
	c0,0,9.507-0.756,5.347-24.954c-4.159-24.198-16.302-65.619-16.302-65.619L986.34,354.332z"/>
<ellipse fill="#2F2E41" cx="966.023" cy="286.019" rx="20.733" ry="13.425"/>
<ellipse fill="#FFB8B8" cx="991.985" cy="310.095" rx="2.971" ry="8.318"/>
<ellipse fill="#2F2E41" cx="989.608" cy="260.944" rx="17.825" ry="22.685"/>
<path fill="#D0CDE1" d="M903.426,337.417H792.062c-5.448,0-9.865,4.751-9.865,10.611c0,0,0,0,0,0v58.362
	c0,5.86,4.417,10.611,9.865,10.611c0,0,0,0,0,0h111.364c5.448,0,9.865-4.751,9.865-10.611v0v-58.362
	C913.291,342.168,908.874,337.417,903.426,337.417C903.426,337.417,903.426,337.417,903.426,337.417z M789.307,344.655
	c0.22-0.043,5.435-0.997,9.753,1.797c4.318,2.794,5.977,8.197,6.045,8.426l0.175,0.583l-0.56,0.107
	c-0.799,0.134-1.608,0.198-2.417,0.191c-1.961,0-4.803-0.349-7.336-1.989c-4.318-2.794-5.977-8.197-6.045-8.425l-0.175-0.583
	L789.307,344.655z M813.481,398.84h-19.863c-3.017-0.003-5.46-2.637-5.456-5.882c0.003-3.24,2.444-5.866,5.456-5.869h19.863
	c3.017,0.003,5.46,2.637,5.456,5.882C818.934,396.211,816.493,398.837,813.481,398.84z M903.856,397.772
	c-0.01,3.535-2.672,6.399-5.959,6.409H883c-3.287-0.01-5.949-2.874-5.959-6.409v-9.614c0.01-3.536,2.672-6.399,5.959-6.409h14.897
	c3.287,0.01,5.949,2.874,5.959,6.409V397.772z"/>
<ellipse id="Ellipse_96" fill="#008000" cx="651.355" cy="296.5" rx="63.778" ry="63.376"/>
<path id="Path_616" fill="#FFFFFF" d="M643.916,323.596l-22.477-28.716l13.071-10.102l10.642,13.597l35.951-37.71l12.023,11.317
	L643.916,323.596z"/>
</svg>
