<?xml version="1.0" encoding="utf-8"?>
<!-- Generator: Adobe Illustrator 17.0.0, SVG Export Plug-In . SVG Version: 6.00 Build 0)  -->
<!DOCTYPE svg PUBLIC "-//W3C//DTD SVG 1.1//EN" "http://www.w3.org/Graphics/SVG/1.1/DTD/svg11.dtd">
<svg version="1.1" id="b849a2f0-74e0-42be-b224-12e88fa50e48"
	 xmlns="http://www.w3.org/2000/svg" xmlns:xlink="http://www.w3.org/1999/xlink" x="0px" y="0px" width="920.109px"
	 height="411.952px" viewBox="0 0 920.109 411.952" enable-background="new 0 0 920.109 411.952" xml:space="preserve">
<path fill="#E6E6E6" d="M436.527,410h195.591c7.721,0,7.734-12,0-12H436.527C428.805,398,428.792,410,436.527,410z"/>
<path fill="#008000" d="M383.72,149.231H188.786c-4.288,0.005-7.762,3.48-7.767,7.767v38.725
	c9.724,0.229,16.035,8.253,17.565,17.993v35.107h0.738c0.244,0.001,0.442,0.199,0.443,0.443v18.681
	c-0.001,0.244-0.199,0.442-0.443,0.443h-0.738v112.91c0,2.481-0.025,7.007-0.025,7.007H383.72c4.288-0.005,7.762-3.48,7.767-7.767
	V156.998C391.482,152.711,388.007,149.236,383.72,149.231z"/>
<path fill="#008000" d="M745.9,21.81v211.9H404.969v-93.295c-0.009-8.821-7.157-15.969-15.978-15.977h-63.939V21.81H745.9z"/>
<path fill="#C5E217" d="M766.949,263.583h-361.6v-1.477h360.123V12.552c-0.007-6.114-4.961-11.068-11.075-11.075H312.139
	c-6.114,0.007-11.068,4.961-11.075,11.075v110.93h-1.477V12.552C299.595,5.623,305.21,0.008,312.139,0h442.259
	c6.929,0.008,12.544,5.623,12.552,12.552V263.583z"/>
<path fill="#C5E217" d="M732.687,308.621H405.35v-1.477h327.337c18.099-0.02,32.765-14.687,32.786-32.786v-10.776H405.35v-1.477
	h361.6v12.252C766.928,293.273,751.601,308.6,732.687,308.621z"/>
<path fill="#C5E217" d="M635.539,380.978c-18.248-17.522-30.252-40.384-34.111-72.356H466.939
	c-1.368,29.912-13.296,52.345-34.813,72.277l-2.273,0.079c22.199-20.118,34.427-42.716,35.641-73.125l0.028-0.709h137.219
	l0.076,0.653c3.79,32.514,16.045,55.523,34.743,73.062L635.539,380.978z"/>
<path fill="#C5E217" d="M388.634,411.524H181.461v-1.477h207.173c8.82-0.01,15.967-7.157,15.977-15.977V140.754
	c-0.01-8.82-7.157-15.967-15.977-15.977H181.461c-8.82,0.01-15.967,7.157-15.977,15.977v54.667h-1.477v-54.667
	c0.011-9.635,7.819-17.443,17.453-17.453h207.173c9.635,0.011,17.443,7.819,17.453,17.453v253.316
	C406.077,403.706,398.269,411.513,388.634,411.524z"/>
<path fill="#3F3D56" d="M285.048,141.983c-2.765,0-5.007-2.242-5.007-5.007s2.242-5.007,5.007-5.007
	c2.765,0,5.007,2.241,5.007,5.006C290.051,139.74,287.812,141.98,285.048,141.983z M285.048,133.127
	c-2.126,0-3.849,1.723-3.849,3.849s1.723,3.849,3.849,3.849s3.849-1.723,3.849-3.849c0,0,0,0,0,0
	C288.895,134.851,287.173,133.129,285.048,133.127L285.048,133.127z"/>
<path fill="#3F3D56" d="M285.048,405.865c-3.528,0-6.388-2.86-6.388-6.388c0-3.528,2.86-6.388,6.388-6.388
	c3.528,0,6.388,2.86,6.388,6.388C291.432,403.003,288.574,405.86,285.048,405.865z M285.048,394.564
	c-2.713,0-4.912,2.199-4.912,4.912s2.199,4.912,4.912,4.912s4.912-2.199,4.912-4.912c0,0,0,0,0,0
	C289.956,396.765,287.759,394.567,285.048,394.564z"/>
<path fill="#C5E217" d="M179.381,411.952h-68.58c-10.75-0.012-19.461-8.724-19.473-19.473V214.895
	c0.012-10.75,8.723-19.461,19.473-19.473h68.58c10.75,0.012,19.461,8.723,19.473,19.473v31.78c0.715,0.299,1.181,0.997,1.182,1.772
	l0,20.678c-0.001,0.775-0.467,1.474-1.182,1.772v121.582C198.842,403.229,190.13,411.94,179.381,411.952z M110.801,196.898
	c-9.934,0.011-17.985,8.062-17.997,17.996v177.584c0.011,9.935,8.062,17.986,17.997,17.997h68.58
	c9.935-0.011,17.985-8.062,17.997-17.996V269.568h0.738c0.245,0,0.443-0.198,0.443-0.443l0-20.678c0-0.245-0.199-0.443-0.443-0.443
	h-0.738v-33.108c-0.011-9.934-8.062-17.985-17.996-17.996H110.801z"/>
<path fill="#008000" d="M180.137,201.034h-8.952c1.386,3.399-0.245,7.279-3.644,8.665c-0.797,0.325-1.649,0.492-2.51,0.492h-39.289
	c-3.671,0-6.647-2.977-6.647-6.648c0-0.861,0.167-1.713,0.492-2.51h-8.361c-7.727,0-13.991,6.264-13.991,13.991v177.324
	c0,7.727,6.264,13.991,13.991,13.991c0,0,0,0,0,0h68.91c7.727,0,13.991-6.264,13.991-13.991l0,0l0,0V215.025
	C194.128,207.298,187.864,201.034,180.137,201.034z"/>
<path fill="#C5E217" d="M635.995,411.249H431.478c-8.563,0-15.505-6.942-15.505-15.505c0-8.563,6.942-15.505,15.505-15.505h204.517
	c8.563,0,15.505,6.942,15.505,15.505C651.5,404.307,644.558,411.249,635.995,411.249z M431.478,381.716
	c-7.748,0-14.028,6.281-14.028,14.028s6.281,14.028,14.028,14.028h204.517c7.748,0,14.028-6.281,14.028-14.028
	s-6.281-14.028-14.028-14.028H431.478z"/>
<ellipse id="Ellipse_95" opacity="0.2" fill="#008000" enable-background="new    " cx="535.476" cy="308.621" rx="45.981" ry="46.549"/>
<ellipse id="Ellipse_96" fill="#008000" cx="535.476" cy="308.621" rx="37.024" ry="37.482"/>
<path id="Path_616" fill="#FFFFFF" d="M531.158,324.647l-13.049-16.983l7.588-5.975l6.178,8.041l20.87-22.303l6.979,6.693
	L531.158,324.647z"/>
<path fill="#D0CDE1" d="M242.009,315.844h-71.654c-3.505,0-6.347,3.369-6.347,7.524c0,0,0,0,0,0v41.386
	c0,4.156,2.842,7.524,6.347,7.524c0,0,0,0,0,0h71.654c3.505,0,6.347-3.369,6.347-7.524v0v-41.386
	C248.356,319.213,245.514,315.844,242.009,315.844C242.009,315.844,242.009,315.844,242.009,315.844z M168.582,320.977
	c0.141-0.03,3.497-0.707,6.275,1.275c2.778,1.981,3.846,5.813,3.89,5.975l0.112,0.413l-0.361,0.076
	c-0.514,0.095-1.034,0.14-1.555,0.135c-1.262,0-3.09-0.247-4.72-1.41c-2.778-1.981-3.845-5.813-3.889-5.975l-0.112-0.413
	L168.582,320.977z M184.136,359.401h-12.78c-1.941-0.002-3.513-1.87-3.511-4.171c0.002-2.298,1.573-4.159,3.511-4.162h12.78
	c1.941,0.002,3.513,1.87,3.511,4.171C187.645,357.537,186.074,359.399,184.136,359.401z M242.285,358.644
	c-0.006,2.507-1.719,4.538-3.834,4.545h-9.585c-2.115-0.007-3.828-2.038-3.834-4.545v-6.818c0.006-2.507,1.719-4.538,3.834-4.545
	h9.585c2.115,0.007,3.828,2.038,3.834,4.545L242.285,358.644z"/>
</svg>
