<?xml version="1.0" encoding="utf-8"?>
<!-- Generator: Adobe Illustrator 17.0.0, SVG Export Plug-In . SVG Version: 6.00 Build 0)  -->
<!DOCTYPE svg PUBLIC "-//W3C//DTD SVG 1.1//EN" "http://www.w3.org/Graphics/SVG/1.1/DTD/svg11.dtd">
<svg version="1.1" id="a03e49aa-1ede-49ab-95c4-f5a45b19bb50"
	 xmlns="http://www.w3.org/2000/svg" xmlns:xlink="http://www.w3.org/1999/xlink" x="0px" y="0px" width="847.693px" height="656px"
	 viewBox="0 0 847.693 656" enable-background="new 0 0 847.693 656" xml:space="preserve">
<path fill="#F2F2F2" d="M37.538,599.358c26.384,16.128,60.574,16.938,93.622,14.956c4.615-0.276,9.197-0.601,13.737-0.951
	c0.027-0.006,0.064-0.004,0.091-0.01c0.218-0.018,0.436-0.036,0.646-0.046c0.937-0.075,1.874-0.149,2.803-0.224l-0.22,0.355
	l-0.688,1.101c0.248-0.369,0.494-0.73,0.742-1.098c0.073-0.111,0.155-0.221,0.227-0.331c8.561-12.642,17.053-25.749,19.219-40.184
	c2.239-14.984-4.053-31.95-19.595-39.315c-2.038-0.963-4.197-1.73-6.435-2.287c-0.93-0.24-1.871-0.434-2.824-0.606
	c-18.123-3.415-36.077,6.283-40.102,21.662c-1.34,5.12-0.991,10.455,1.01,15.416c-13.176-11.465-10.718-30.063-6.173-45.607
	c4.554-15.543,10.067-32.839,0.805-46.801c-5.148-7.771-14.203-12.592-24.365-14.534c-0.312-0.057-0.623-0.114-0.936-0.164
	c-12.107-2.081-24.693-0.209-35.244,5.24C14.429,476.322,4.45,496.019,1.211,515.315C-4.006,546.366,7.542,581.019,37.538,599.358z"
	/>
<path fill="#FFFFFF" d="M46.056,549.582c0.766,6.849,2.705,13.567,5.755,19.941c2.812,5.64,6.601,10.894,11.243,15.583
	c9.483,9.679,22.021,16.956,35.638,21.805c10.411,3.619,21.321,6.106,32.469,7.403c4.615-0.276,9.197-0.601,13.737-0.951
	c0.027-0.006,0.064-0.004,0.091-0.01c0.218-0.018,0.436-0.036,0.646-0.046c0.937-0.075,1.874-0.149,2.803-0.224l-0.22,0.355
	l-0.688,1.101c0.248-0.369,0.494-0.73,0.742-1.098c0.073-0.111,0.155-0.221,0.227-0.331c-16.958-14.336-24.669-34.761-20.686-54.79
	c2.054-9.801,6.808-19.051,13.875-26.997c-0.93-0.24-1.871-0.434-2.824-0.606c-2.686,3.115-5.042,6.428-7.04,9.896
	c-7.171,12.368-9.459,26.367-6.525,39.924c2.728,12.268,9.524,23.621,19.591,32.726c-0.882-0.053-1.771-0.114-2.642-0.181
	c-16.497-1.186-32.961-4.196-47.924-10.36c-12.79-5.141-23.894-12.872-32.334-22.512c-9.062-10.606-13.056-23.361-13.742-36.327
	c-0.727-13.88,1.395-28.005,5.128-41.503c3.812-13.839,9.605-27.228,17.25-39.873c0.355-0.596,0.097-1.323-0.586-1.653
	c-0.275-0.157-0.61-0.215-0.936-0.164c-0.323,0.072-0.588,0.265-0.722,0.524c-0.944,1.562-1.869,3.125-2.759,4.706
	c-7.416,13.164-12.875,27.06-16.253,41.367C46.09,521.09,44.34,535.527,46.056,549.582z"/>
<path fill="#C6C117" d="M791.666,615.212H375.999c-8.927-0.01-16.16-7.193-16.17-16.055V98.601
	c0.01-8.863,7.244-16.046,16.17-16.055h415.666c8.927,0.01,16.16,7.193,16.17,16.055v500.556
	C807.826,608.019,800.592,615.202,791.666,615.212z M375.999,84.434c-7.876,0.008-14.259,6.346-14.268,14.167v500.556
	c0.009,7.82,6.391,14.158,14.268,14.167h415.666c7.876-0.008,14.259-6.346,14.268-14.167V98.601
	c-0.009-7.82-6.391-14.158-14.268-14.167C791.665,84.434,375.999,84.434,375.999,84.434z"/>
<ellipse fill="#1FEA1F" cx="395.763" cy="102.6" rx="7.988" ry="6.778"/>
<ellipse fill="#EDED20" cx="420.725" cy="102.6" rx="7.988" ry="6.778"/>
<ellipse fill="#1B17E2" cx="445.688" cy="102.6" rx="7.988" ry="6.778"/>
<path fill="#A4CC27" d="M566.848,316.968H444.031c-9.37-0.009-16.964-6.453-16.975-14.404v-85.576
	c0.011-7.951,7.605-14.395,16.975-14.404h122.817c9.37,0.009,16.964,6.453,16.975,14.404v85.576
	C583.811,310.515,576.218,316.958,566.848,316.968z M444.031,204.279c-8.268,0.008-14.969,5.694-14.978,12.709v85.576
	c0.009,7.016,6.71,12.702,14.978,12.709h122.817c8.268-0.008,14.969-5.694,14.978-12.709v-85.576
	c-0.009-7.016-6.71-12.702-14.978-12.709H444.031z"/>
<path fill="#F2F2F2" d="M655.715,206.82h122.817c8.824,0,15.976,6.069,15.976,13.557v85.576c0,7.487-7.152,13.557-15.976,13.557
	H655.715c-8.824,0-15.976-6.069-15.976-13.557v-85.576C639.739,212.89,646.891,206.82,655.715,206.82z"/>
<path fill="#008000" d="M474.877,296.271c-0.022,0-0.044,0-0.067-0.001l-13.969-0.439c-0.901-0.023-1.644-0.607-1.74-1.367
	c-0.962-7.279-4.919-44.373,11.658-59.79c4.751-4.508,11.64-6.964,18.76-6.687c0.292,0.015,0.568-0.107,0.72-0.319l3.382-4.509
	c0.377-0.498,1.056-0.772,1.75-0.704c2.711,0.278,16.531,1.59,22.343,0.163c0.701-0.175,1.457,0.022,1.92,0.502l4.441,4.606
	c0.155,0.169,0.396,0.264,0.648,0.255c2.259-0.038,10.179,0.333,17.109,6.911c7.506,7.123,15.251,23.195,9.529,59.307
	c-0.124,0.767-0.894,1.34-1.806,1.342h-11.002c-0.903-0.003-1.667-0.565-1.8-1.323l-3.594-21.043
	c-0.065-0.38-0.481-0.645-0.931-0.59c-0.397,0.049-0.694,0.334-0.703,0.674l-0.248,9.88c-0.016,0.598-0.437,1.135-1.081,1.379
	c-3.922,1.463-24.646,8.326-47.551-0.269c-0.632-0.241-1.05-0.763-1.081-1.351l-0.45-8.977c-0.019-0.385-0.402-0.683-0.856-0.666
	c-0.404,0.014-0.736,0.277-0.781,0.618l-2.792,21.027C476.577,295.679,475.801,296.268,474.877,296.271z"/>
<path fill="#FFFFFF" d="M772.541,284.053c-17.201,2.81-33.422,8.906-47.434,17.826c-0.709-1.601-2.044-2.946-3.782-3.812
	c-1.187-0.624-2.482-1.086-3.838-1.368c-1.234-0.267-2.419,0.369-3.508,1.286c-1.252,1.176-2.304,2.496-3.121,3.921
	c-18.798-10.949-47.313-17.935-47.313-17.935v-2.189c0.023-0.516,0.085-1.03,0.186-1.54c0.097-0.589,0.218-1.108,0.371-1.745
	c2.419-10.443,11.983-34.304,11.983-34.304h10.814l20.968,3.695l23.588-1.225l23.758-4.195l3.08-0.547
	c5.137,3.421,10.968,27.372,13.258,37.568c0.291,1.293,0.516,2.361,0.685,3.148C772.436,283.526,772.541,284.053,772.541,284.053z"
	/>
<path id="b06866c4-d0b9-420f-a9d2-389dd10be0a8" fill="#3F3D56" d="M639.468,130.594l-0.633-0.054l2.385-10.824
	c0.762-3.459-3.115-6.65-8.662-7.126l-36.76-3.153c-5.547-0.475-10.66,1.944-11.423,5.403l-13.084,59.38
	c-0.763,3.46,3.115,6.65,8.662,7.126l36.76,3.153c5.547,0.475,10.66-1.944,11.423-5.403l9.003-40.853l0.633,0.054L639.468,130.594z"
	/>
<path id="fb337c3c-e64d-4daa-8f83-1de4a3033e68" fill="#FFFFFF" d="M631.402,115.766l-4.576-0.392
	c0.47,1.145-0.637,2.311-2.472,2.604c-0.43,0.069-0.878,0.085-1.318,0.047l-20.087-1.723c-1.877-0.161-3.189-1.24-2.931-2.411
	c0.061-0.275,0.206-0.539,0.428-0.779l-4.275-0.367c-3.951-0.339-7.594,1.384-8.137,3.849l0,0l-12.462,56.557
	c-0.543,2.465,2.22,4.737,6.17,5.076l0,0l35.232,3.021c3.951,0.339,7.594-1.384,8.137-3.849l0,0l0,0l12.463-56.557
	C638.115,118.377,635.353,116.104,631.402,115.766L631.402,115.766z"/>
<ellipse fill="#008000" cx="606.416" cy="150.476" rx="19.63" ry="12.246"/>
<path fill="#FFFFFF" d="M604.469,155.148c-0.441,0.001-0.872-0.089-1.225-0.254l-0.022-0.01l-4.613-2.204
	c-0.901-0.428-1.075-1.229-0.39-1.792c0.685-0.562,1.971-0.671,2.872-0.243c0.004,0.002,0.008,0.003,0.011,0.005l2.988,1.429
	l7.061-5.745c0.689-0.56,1.975-0.666,2.874-0.236l0,0l-0.044,0.037l0.045-0.036c0.897,0.43,1.066,1.232,0.379,1.793l-8.306,6.757
	C605.711,154.964,605.108,155.149,604.469,155.148z"/>
<linearGradient id="SVGID_1_" gradientUnits="userSpaceOnUse" x1="264.5619" y1="891.3649" x2="264.5619" y2="337.9686" gradientTransform="matrix(1 0 0 1 -46.2 -265.3)">
	<stop  offset="0" style="stop-color:#808080;stop-opacity:0.25"/>
	<stop  offset="0.54" style="stop-color:#808080;stop-opacity:0.12"/>
	<stop  offset="1" style="stop-color:#808080;stop-opacity:0.1"/>
</linearGradient>
<path fill="url(#SVGID_1_)" d="M346.957,214.903l-27.007-83.037l-9.71,1.561l-8.693,1.179c0.221-3.121,0.604-14.326-4.789-20.201
	c-0.523-2.013-1.9-4.299-4.552-6.874c-12.922-12.547-15.61,13.117-15.61,13.117s-2.947,5.415-7.006,12.984l-2.129-0.429
	l-0.604,5.587c-8.988,16.83-20.929,39.606-20.929,41.745c0,3.426-1.614,7.982-1.614,7.982s-9.149,15.965-12.384,23.954
	c-1.882,4.713-4.638,8.98-8.104,12.547c0,0-0.781,0.632-2.063,1.561c0.082-1.511,0.329-3.005,0.737-4.455
	c1.178-4.081,3.919-7.576,4.648-11.775c0.171-1.007,0.235-2.029,0.192-3.051c0.17-4.924-2.092-9.769-3.035-14.693
	c-1.097-5.704-0.508-11.985-3.381-16.94c-2.21-3.784-6.129-6.141-10.203-7.226c-3.742-0.991-7.426-0.64-11.197-1.061
	c-3.463-0.39-6.77-2.013-10.233-2.614c-1.849-0.426-3.764-0.426-5.614,0c-5.856,1.709-7.691,9.527-12.214,13.827
	c-1.628,1.561-3.625,2.638-5.097,4.346c-2.144,2.489-2.888,5.961-2.777,9.363c-0.028,1.14,0.036,2.281,0.192,3.409
	c0.56,4.081,2.048,7.943,2.947,11.946c0.679,2.962,1.047,5.995,1.097,9.043c0,0.686,0,1.373-0.059,2.052
	c0.027,1.374-0.319,2.728-0.995,3.902c-0.818,1.194-2.166,1.771-3.367,2.536c-3.925-3.299-6.871-7.726-8.486-12.75
	c0,0-0.199,0.265-0.538,0.78v-0.78c0,0-7.367-11.454-8.486-20.81l2.563,0.281l5.893-87.82l-15.051-2.341
	c-0.42-4.533-1.562-11.111-4.589-15.909c2.527-5.274,3.801-12.414-7.278-13.124c-12.966-0.835-12.17,9.862-10.792,15.715
	c-0.624,3.193-0.872,6.456-0.737,9.714l-13.26-2.044l-0.074,1.14h-3.153l-9.651,89.591l8.222-0.437l30.13,3.324
	c2.409,23.198,6.196,51.865,10.689,58.622c0.15,0.228,0.315,0.445,0.493,0.647v41.05c0,0-0.538,53.059-9.695,61.587
	c5.618-2.117,11.559-3.104,17.518-2.91c-0.103,0.351-0.207,0.725-0.31,1.124c-1.34,5.237-2.274,10.582-2.792,15.98
	c-0.128,1.191-0.243,2.434-0.346,3.73c-0.844,11.885-0.688,23.826,0.464,35.682c3.771,42.197,9.695,72.425,9.695,72.425
	l1.651,24.531c0,0-1.614,41.628,2.689,55.313c1.622,1.582,3.485,2.862,5.511,3.784c0.037,0.39,0.081,0.78,0.118,1.194
	c0.037,0.413,0.096,1.053,0.148,1.6c-1.93,0.929-5.533,4.612-6.314,19.077c0,0,1.075,10.838-1.614,15.965
	c-2.689,5.126-1.075,19.96,6.999,21.668c5.16,1.005,10.45,1.005,15.61,0c0,0,3.771,0,1.075-14.256l-0.471-3.652
	c-0.059-7.061,0.221-14.622,1.547-16.877c2.689-4.564-1.075-9.121-1.075-9.121s-0.266,0.156-0.7,0.367
	c-0.692-3.941-1.599-10.339-1.274-15.223c0-0.413,0.066-0.78,0.111-1.209c1.643-0.909,3.174-2.028,4.56-3.332v-54.158
	c0,0-0.538-83.255,5.385-84.972c0,0,2.689,30.22,1.614,45.053c-1.075,14.833,1.614,30.797,1.614,30.797l1.075,60.448
	c0,0,1.031,0.523,2.696,1.14l-0.111,1.1c-0.656,6.718-1.709,16.862-2.667,23.072c-1.312,0.552-2.288,1.745-2.615,3.199
	c-1.614,5.704-0.538,19.96-3.771,23.954c-1.908,2.341-4.192,7.109-3.071,10.479c-0.7,2.957-0.39,7.576,7.919,8.341
	c12.384,1.14,17.768-5.704,17.768-5.704s1.614-2.848,0-7.982c-1.614-5.135,0.538-14.256,0.538-14.256s1.156-7.74-0.737-8.755
	c-0.162-0.921-0.31-1.506-0.31-1.506c0.026-1.754-0.583-3.451-1.701-4.744c-0.044-5.969,0.184-17.01,2.166-24.282
	c0.118-0.413,0.236-0.78,0.36-1.209c1.596-0.292,3.134-0.864,4.552-1.693c0,0-0.538-13.117,3.234-22.238
	c3.771-9.121,1.614-45.623,1.614-45.623s-1.614-9.59,0.663-17.361c2.608-8.613,4.563-17.432,5.849-26.373l3.175-23.556
	c0,0,8.362-28.676-2.652-58.107c-0.449-1.218-0.943-2.434-1.474-3.652c-0.914-2.115-1.93-4.237-3.064-6.344
	c-0.177-0.328-0.368-0.663-0.552-0.991c1.156-0.304,1.812-0.484,1.812-0.484s-14.534-35.893-5.385-54.175
	c0,0,5.156-5.462,5.893-11.462c0.914-7.936,1.908-15.863,3.544-23.666l0.288-1.373c0,0,0.044-0.265,0.118-0.741
	c0.207-0.141,0.405-0.289,0.604-0.445c15.514-12.001,28.892-62.11,28.892-62.11l4.31-8.583l2.048-4.588l-4.199,38.803l32.841,8.583
	l20.996-1.709l-0.059-4.783l16-1.318L346.957,214.903z M138.772,101.763l-5.834-0.905c-1.024-5.579-1.716-9.239-1.716-9.239
	c1.223-1.601,2.306-3.317,3.234-5.126c2.822,4.573,3.904,10.815,4.317,15.238V101.763z M116.982,89.786
	c0.405,1.467,0.774,2.411,0.774,2.411l0.737,6.438l-1.989-0.304c-0.113-2.868,0.05-5.742,0.486-8.575L116.982,89.786z
	 M301.002,134.738l-7.897,1.077c1.112-3.465,2.49-9.145,1.686-14.287c1.566-1.52,2.367-3.73,2.166-5.969
	c4.693,5.938,4.251,16.425,4.044,19.155L301.002,134.738z M287.89,125.834c2.353-0.834,4.536-2.133,6.431-3.831
	c0.678,5.048-0.737,10.596-1.812,13.889l-7.367,0.999l-2.033-0.413L287.89,125.834z"/>
<rect x="177.175" y="197.916" fill="#774E55" width="36.745" height="56.968"/>
<rect x="177.175" y="197.916" opacity="0.2" enable-background="new    " width="36.745" height="56.968"/>
<polygon fill="#008000" points="105.556,100.062 100.76,100.062 91.175,188.607 112.472,187.484 "/>
<polygon opacity="0.2" enable-background="new    " points="105.556,100.062 100.76,100.062 91.175,188.607 112.472,187.484 "/>
<polygon fill="#008000" points="103.957,98.931 98.1,188.046 149.218,193.687 155.075,106.827 "/>
<path fill="#F8BDC5" d="M199.209,235.728c-0.456,8.396,1.127,13.265,1.127,13.265l-13.842,3.948c0,0-22.896,3.387-13.842-6.242
	c3.131-3.316,4.67-9.004,5.341-15.012c0.419-4.104,0.55-8.235,0.39-12.359c-0.123-3.864-0.437-7.719-0.943-11.549
	c0,0,33.548-12.406,26.093,7.897c-1.358,3.672-2.429,7.456-3.204,11.314C199.752,229.869,199.378,232.79,199.209,235.728z"/>
<path opacity="0.1" enable-background="new    " d="M203.533,215.683c-1.358,3.672-2.429,7.456-3.204,11.314
	c-8.084,1.82-16.467-1.107-21.945-7.662c-0.123-3.864-0.437-7.719-0.943-11.548C177.44,207.786,210.988,195.38,203.533,215.683z"/>
<ellipse fill="#F8BDC5" cx="195.547" cy="202.145" rx="22.896" ry="24.251"/>
<path fill="#F8BDC5" d="M155.075,213.99v7.335l-11.714,32.148l-3.197-3.387c-0.177-0.201-0.339-0.414-0.486-0.64
	c-7.735-11.642-13.363-89.037-13.363-89.037l-7.448-65.442c0,0-7.985-20.287,9.577-19.179c17.562,1.108,3.727,18.61,3.727,18.61
	s11.714,62.04,10.115,64.295c-1.599,2.255,0,9.028,0,9.028s4.796,12.976,4.258,22.558
	C146.006,199.859,155.075,213.99,155.075,213.99z"/>
<path fill="#5E52AD" d="M227.497,419.85l-3.138,23.299c-1.273,8.844-3.209,17.566-5.79,26.085
	c-2.255,7.686-0.656,17.166-0.656,17.166s2.129,36.095-1.599,45.123c-3.727,9.028-3.197,21.996-3.197,21.996
	c-8.523,5.08-20.767-1.131-20.767-1.131l-1.068-59.784c0,0-2.659-15.793-1.599-30.431c1.06-14.638-1.599-44.554-1.599-44.554
	c-5.893,1.693-5.326,84.035-5.326,84.035v53.581c-12.781,11.844-23.964,0-23.964,0c-4.258-13.538-2.659-54.713-2.659-54.713
	l-1.599-24.251c0,0-5.893-29.892-9.577-71.63c-1.139-11.726-1.292-23.537-0.456-35.292c0.103-1.279,0.216-2.51,0.339-3.691
	c0.51-5.338,1.432-10.622,2.755-15.8c0.422-1.707,0.964-3.379,1.621-5.001l57.218,2.816l3.374,0.164l8.104,0.398
	c0.884,1.412,1.716,2.848,2.49,4.284c1.119,2.083,2.129,4.182,3.027,6.242c0.515,1.201,1.002,2.411,1.474,3.613
	C235.784,391.471,227.497,419.85,227.497,419.85z"/>
<path opacity="0.1" enable-background="new    " d="M164.658,350.484c0,0-2.504,26.529-20.163,18.851
	c0.103-1.279,0.216-2.51,0.339-3.691c4.155,1.194,15.655,2.84,16.089-15.168L164.658,350.484z"/>
<path opacity="0.1" enable-background="new    " d="M224.875,362.382c-12.229,4.627-16.84-7.693-18.417-14.724l3.374,0.164
	c1.834,11.056,9.157,11.704,13.614,10.924C223.946,359.979,224.425,361.188,224.875,362.382z"/>
<path opacity="0.1" enable-background="new    " d="M200.336,248.962l-13.842,3.948c0,0-22.896,3.387-13.842-6.242
	c3.131-3.316,4.67-9.004,5.341-15.012c3.617,6.008,7.971,4.299,7.971,4.299l13.201-0.273h0.052
	C198.752,244.124,200.336,248.962,200.336,248.962z"/>
<path opacity="0.1" enable-background="new    " d="M155.075,213.99v7.335l-11.714,32.148l-3.197-3.387
	c-0.177-0.201-0.339-0.414-0.486-0.64C141.063,232.686,155.075,213.99,155.075,213.99z"/>
<path opacity="0.1" enable-background="new    " d="M220.395,352.504c-7.448,1.974-46.33,11.649-57.866,2.489
	c-4.552-3.613-9.915-4.939-14.933-5.15c0.422-1.707,0.964-3.379,1.621-5.002l57.218,2.816l3.374,0.164l8.104,0.398
	C218.797,349.641,219.621,351.068,220.395,352.504z"/>
<g opacity="0.1">
	<path d="M185.61,423.182c-0.258-3.433-0.449-5.579-0.449-5.579c-5.893,1.693-5.326,84.035-5.326,84.035v53.582
		c-3.742,3.465-7.367,4.9-10.571,5.204c3.845,0.359,8.427-0.78,13.26-5.204v-53.582C182.523,501.639,182.11,441.97,185.61,423.182z"
		/>
	<path d="M224.609,362.382c-0.449-1.201-0.929-2.411-1.474-3.613c-0.899-2.091-1.908-4.19-3.027-6.242
		c-0.737-1.435-1.606-2.864-2.49-4.284l-8.103-0.398l-3.374-0.164l-57.218-2.816l-0.052,0.125l54.61,2.692l3.374,0.164l8.104,0.398
		c0.884,1.412,1.716,2.848,2.49,4.284c1.119,2.083,2.129,4.182,3.027,6.242c0.515,1.201,1.002,2.411,1.474,3.613
		c10.888,29.104,2.622,57.467,2.622,57.467l-3.138,23.299c-1.273,8.844-3.209,17.566-5.79,26.085
		c-2.255,7.686-0.656,17.166-0.656,17.166s2.129,36.095-1.599,45.123c-3.727,9.028-3.197,21.996-3.197,21.996
		c-2.057,1.176-4.339,1.843-6.674,1.95c3.223,0.308,6.462-0.369,9.334-1.95c0,0-0.53-12.976,3.197-21.996
		c3.727-9.02,1.599-45.123,1.599-45.123s-1.599-9.488,0.656-17.166c2.581-8.519,4.517-17.241,5.79-26.085l3.138-23.299
		C227.232,419.85,235.497,391.471,224.609,362.382z"/>
</g>
<path fill="#79A9B7" d="M199.165,236.836c7.367,3.675,24.605-10.44,24.605-10.44c7.455,2.255,2.129,34.972,2.129,34.972
	l-0.288,1.357c-1.621,7.717-2.6,15.559-3.507,23.408c-0.685,5.923-5.79,11.338-5.79,11.338c-9.053,18.048,5.326,53.581,5.326,53.581
	s-46.33,12.976-59.103,2.816c-12.773-10.16-31.949-2.255-31.949-2.255c9.053-8.458,9.577-60.916,9.577-60.916v-40.574
	c1.068-16.925,15.47-36.095,15.47-36.095c5.893,17.486,22.27,18.641,22.27,18.641c3.632,6.242,8.104,4.486,8.104,4.486
	L199.165,236.836z"/>
<path opacity="0.1" enable-background="new    " d="M189.587,167.969c-1.827-0.421-3.719-0.421-5.547,0
	c-5.79,1.693-7.61,9.426-12.081,13.67c-1.606,1.561-3.588,2.606-5.046,4.299c-2.593,3.012-3.116,7.475-2.563,11.509
	c0.553,4.034,2.026,7.858,2.947,11.814c0.91,3.96,1.254,8.042,1.024,12.11c0.02,1.351-0.322,2.679-0.988,3.831
	c-1.068,1.561-3.035,2.052-4.42,3.3c-4.229,3.854-0.737,11.853-3.838,16.776c-1.333,2.13-3.83,3.535-4.339,6.032
	c-0.361,1.771,0.405,3.558,1.156,5.189c1.974,4.292,4.022,8.7,7.367,11.899c3.344,3.199,7.477,4.807,11.588,6.438
	c1.245,0.491,2.807,0.921,3.757-0.054c1.171-1.218,0.288-3.277-0.523-4.783c-1.282-2.341-2.284-5.165-1.533-7.803
	c0.751-2.638,3.16-4.386,4.781-6.585c4.177-5.696,2.807-13.873,0.737-20.74c-0.877-2.895-1.864-5.977-1.119-8.919
	c0.317-1.264,0.943-2.411,1.341-3.652c1.768-5.524-1.201-11.587-0.332-17.346c0.452-2.249,1.196-4.42,2.21-6.453l4.678-10.65
	c0.47-1.282,1.174-2.454,2.07-3.448c1.454-1.238,3.296-1.846,5.156-1.701c3.832,0.091,7.462,1.842,10.041,4.846
	c5.01,5.899,4.693,14.825,4.089,22.69l-0.434,5.68c-0.317,4.089-0.737,8.45-3.167,11.634c-1.893,2.466-4.951,4.143-5.731,7.217
	c-0.678,2.645,0.597,5.517-0.074,8.162c-1.002,3.956-5.614,5.384-8.052,8.583c-2.099,2.845-2.339,6.762-0.604,9.871
	c0.929,1.561,2.409,3.121,2.21,4.955c-0.17,1.475-1.422,2.669-1.415,4.151c0.123,1.358,1.021,2.496,2.262,2.864
	c1.219,0.335,2.491,0.398,3.735,0.187l13.208-1.264c0.827-0.003,1.639-0.241,2.35-0.686c0.921-0.702,1.223-1.998,1.348-3.192
	c0.53-4.978-0.737-10.417,1.614-14.771c0.737-1.396,1.819-2.56,2.637-3.902c4.508-7.491-0.037-17.65,2.416-26.147
	c1.164-4.034,3.875-7.498,4.597-11.642c0.958-5.524-1.76-10.924-2.814-16.386c-1.083-5.641-0.501-11.853-3.344-16.76
	c-2.173-3.745-6.063-6.078-10.085-7.148c-3.684-0.983-7.367-0.632-11.051-1.053C196.284,170.162,193.013,168.555,189.587,167.969z"
	/>
<path fill="#774E55" d="M189.587,166.838c-1.827-0.421-3.719-0.421-5.547,0c-5.79,1.693-7.61,9.426-12.081,13.67
	c-1.606,1.561-3.588,2.606-5.046,4.299c-2.593,3.012-3.116,7.475-2.563,11.509c0.553,4.034,2.026,7.858,2.947,11.814
	c0.91,3.96,1.254,8.042,1.024,12.11c0.02,1.351-0.322,2.679-0.988,3.831c-1.068,1.561-3.035,2.052-4.42,3.3
	c-4.229,3.854-0.737,11.853-3.838,16.776c-1.333,2.13-3.83,3.535-4.339,6.032c-0.361,1.771,0.405,3.558,1.156,5.189
	c1.974,4.292,4.022,8.7,7.367,11.899c3.344,3.199,7.477,4.807,11.588,6.438c1.245,0.491,2.807,0.921,3.757-0.054
	c1.171-1.218,0.288-3.277-0.523-4.783c-1.282-2.341-2.284-5.165-1.533-7.803c0.751-2.638,3.16-4.386,4.781-6.585
	c4.177-5.696,2.807-13.873,0.737-20.74c-0.877-2.895-1.864-5.977-1.119-8.919c0.317-1.264,0.943-2.411,1.341-3.652
	c1.768-5.524-1.201-11.587-0.332-17.346c0.452-2.249,1.196-4.42,2.21-6.453l4.678-10.65c0.47-1.282,1.174-2.454,2.07-3.448
	c1.454-1.238,3.296-1.846,5.156-1.701c3.832,0.091,7.462,1.842,10.041,4.846c5.01,5.899,4.693,14.825,4.089,22.69l-0.434,5.68
	c-0.317,4.089-0.737,8.45-3.167,11.634c-1.893,2.466-4.951,4.143-5.731,7.217c-0.678,2.645,0.597,5.517-0.074,8.162
	c-1.002,3.956-5.614,5.384-8.052,8.583c-2.099,2.845-2.339,6.762-0.604,9.871c0.929,1.561,2.409,3.121,2.21,4.955
	c-0.17,1.475-1.422,2.669-1.415,4.151c0.123,1.358,1.021,2.496,2.262,2.864c1.219,0.335,2.491,0.398,3.735,0.187l13.208-1.264
	c0.827-0.003,1.639-0.241,2.35-0.686c0.921-0.702,1.223-1.998,1.348-3.192c0.53-4.978-0.737-10.417,1.614-14.771
	c0.737-1.396,1.819-2.56,2.637-3.902c4.508-7.491-0.037-17.65,2.416-26.147c1.164-4.034,3.875-7.498,4.597-11.642
	c0.958-5.524-1.76-10.924-2.814-16.386c-1.083-5.641-0.501-11.853-3.344-16.76c-2.173-3.745-6.063-6.078-10.085-7.148
	c-3.684-0.983-7.367-0.632-11.051-1.053C196.284,169.038,193.013,167.431,189.587,166.838z"/>
<path opacity="0.1" enable-background="new    " d="M161.197,296.052c0,0,10.652,3.387,26.093-3.948h7.978
	c0,0,0.53,7.897,21.297,4.51"/>
<path fill="#1111F7" d="M726.002,367.443c-0.036-0.051-0.031-0.127,0.011-0.17l0,0l46.862-48.553
	c0.042-0.043,0.105-0.036,0.14,0.014c0.035,0.051,0.03,0.126-0.011,0.169l-46.862,48.553
	C726.1,367.5,726.037,367.493,726.002,367.443L726.002,367.443z"/>
<path fill="#3F3D56" d="M793.931,365.256h-43.9v-0.308c0-0.498-0.302-0.902-0.675-0.902l0,0H730.8c-0.372,0-0.675,0.404-0.675,0.902
	v0.308h-44.08c-1.64,0-2.97,1.777-2.97,3.969v80.339c0,2.192,1.329,3.969,2.97,3.969h107.886c1.64,0,2.97-1.777,2.97-3.969v-80.339
	C796.9,367.034,795.571,365.256,793.931,365.256z"/>
<path fill="#008000" d="M688.406,373.703c-0.154,0-0.278,0.166-0.278,0.371v76.203c0,0.205,0.125,0.371,0.278,0.371h103.163
	c0.154,0,0.278-0.166,0.278-0.371v-76.202c0-0.205-0.125-0.371-0.278-0.371L688.406,373.703L688.406,373.703z"/>
<ellipse fill="#008000" cx="751.599" cy="405.083" rx="2.966" ry="1.469"/>
<ellipse fill="#008000" cx="448.708" cy="397.513" rx="66.308" ry="45.51"/>
<path opacity="0.2" enable-background="new    " d="M449.276,428.314c-26.959,0-48.812-14.416-48.812-32.199
	c0-17.783,21.854-32.198,48.812-32.198c26.959,0,48.812,14.416,48.812,32.199c0,8.539-5.142,16.729-14.297,22.767
	C474.657,424.941,462.229,428.337,449.276,428.314z M449.276,365.903c-25.255,0-45.803,13.553-45.803,30.212
	c0,16.659,20.546,30.212,45.803,30.212c25.255,0,45.803-13.553,45.803-30.212C495.078,379.457,474.531,365.903,449.276,365.903
	L449.276,365.903z"/>
<ellipse fill="#3F3D56" cx="449.276" cy="396.116" rx="47.307" ry="31.206"/>
<path fill="#FF6584" d="M414.094,383.638c-1.508-1.948-0.336-4.334,2.617-5.329c2.954-0.995,6.569-0.222,8.078,1.726
	c0.002,0.003,0.004,0.005,0.006,0.008l13.365,17.313c1.51,1.948,0.34,4.333-2.613,5.329c-2.953,0.996-6.569,0.224-8.079-1.723
	c-0.003-0.003-0.006-0.008-0.009-0.011L414.094,383.638z"/>
<path opacity="0.2" enable-background="new    " d="M415.585,385.569l-0.617-0.799c3.078-1.578,6.694-2.738,10.7-3.594l0.617,0.799
	C421.949,382.57,418.259,383.673,415.585,385.569z"/>
<path opacity="0.2" enable-background="new    " d="M418.464,389.298l-0.617-0.799c3.078-1.578,6.694-2.738,10.7-3.594l0.617,0.799
	C424.827,386.299,421.138,387.402,418.464,389.298z"/>
<path opacity="0.2" enable-background="new    " d="M421.343,393.027l-0.617-0.799c3.078-1.578,6.694-2.738,10.7-3.594l0.617,0.799
	C427.706,390.028,424.018,391.13,421.343,393.027z"/>
<path opacity="0.2" enable-background="new    " d="M424.221,396.756l-0.617-0.799c3.078-1.578,6.694-2.738,10.7-3.594l0.617,0.799
	C430.585,393.757,426.896,394.859,424.221,396.756z"/>
<path opacity="0.2" enable-background="new    " d="M427.1,400.485l-0.617-0.799c3.078-1.578,6.694-2.738,10.7-3.594l0.617,0.799
	C433.464,397.486,429.775,398.588,427.1,400.485z"/>
<path fill="#FF6584" d="M404.066,390.12c-1.507-1.948-0.335-4.334,2.619-5.328s6.569-0.22,8.077,1.728
	c0.001,0.002,0.003,0.003,0.004,0.005l13.365,17.313c1.502,1.95,0.322,4.334-2.634,5.324c-2.952,0.989-6.56,0.215-8.066-1.73
	L404.066,390.12z"/>
<path opacity="0.2" enable-background="new    " d="M405.557,392.051l-0.617-0.799c3.078-1.578,6.694-2.738,10.7-3.594l0.617,0.799
	C411.922,389.052,408.232,390.154,405.557,392.051z"/>
<path opacity="0.2" enable-background="new    " d="M408.436,395.78l-0.617-0.799c3.078-1.578,6.694-2.738,10.7-3.594l0.617,0.799
	C414.8,392.781,411.111,393.883,408.436,395.78z"/>
<path opacity="0.2" enable-background="new    " d="M411.315,399.508l-0.617-0.799c3.078-1.578,6.694-2.738,10.7-3.594l0.617,0.799
	C417.679,396.51,413.99,397.611,411.315,399.508z"/>
<path opacity="0.2" enable-background="new    " d="M398.143,403.237l-0.617-0.799c3.078-1.578,6.694-2.738,10.7-3.594l0.617,0.799
	C404.508,400.238,400.818,401.34,398.143,403.237z"/>
<path opacity="0.2" enable-background="new    " d="M401.022,406.966l-0.617-0.799c3.078-1.578,6.694-2.738,10.7-3.594l0.617,0.799
	C407.386,403.967,403.697,405.069,401.022,406.966z"/>
<path fill="#E6E6E6" d="M480.886,397.109h0.042c2.947,0.016,5.607-1.159,6.705-2.963c1.103-1.84,1.66-3.804,1.639-5.784
	c-0.075-8.377-10.407-15.25-23.107-15.366c-12.946-0.119-23.587,6.706-23.769,15.245c-0.132,6.212,5.386,11.874,14.01,14.373
	c2.678,0.782,5.81,0.399,7.885-0.964C468.684,398.739,474.657,397.104,480.886,397.109z"/>
<ellipse fill="#F9A825" cx="468.844" cy="387.322" rx="7.741" ry="5.107"/>
<ellipse fill="#3F3D56" cx="452.019" cy="386.146" rx="0.912" ry="0.602"/>
<ellipse fill="#3F3D56" cx="421.915" cy="386.714" rx="0.912" ry="0.602"/>
<ellipse fill="#3F3D56" cx="456.854" cy="397.25" rx="0.912" ry="0.602"/>
<ellipse fill="#3F3D56" cx="415.998" cy="395.123" rx="0.912" ry="0.602"/>
<ellipse fill="#3F3D56" cx="406.613" cy="403.775" rx="0.912" ry="0.602"/>
<ellipse fill="#FF6584" cx="448.493" cy="404.91" rx="3.441" ry="2.27"/>
<path opacity="0.2" enable-background="new    " d="M497.164,393.988c-0.001,0.94-1.158,1.701-2.583,1.701
	c-1.423-0.001-2.576-0.762-2.578-1.701"/>
<path opacity="0.2" enable-background="new    " d="M445.912,404.768c0.001-0.94,1.158-1.701,2.583-1.7
	c1.423,0.001,2.576,0.762,2.578,1.7"/>
<ellipse fill="#FF6584" cx="493.293" cy="393.067" rx="0.213" ry="0.213"/>
<ellipse fill="#FF6584" cx="448.493" cy="403.847" rx="0.213" ry="0.213"/>
<ellipse fill="#FF6584" cx="494.583" cy="394.626" rx="0.213" ry="0.213"/>
<ellipse fill="#FF6584" cx="495.873" cy="393.492" rx="0.213" ry="0.213"/>
<ellipse fill="#FF6584" cx="495.658" cy="395.053" rx="0.213" ry="0.213"/>
<ellipse fill="#FF6584" cx="493.078" cy="394.343" rx="0.213" ry="0.213"/>
<ellipse fill="#FF6584" cx="471.424" cy="398.811" rx="3.441" ry="2.27"/>
<path opacity="0.2" enable-background="new    " d="M457.954,398.953c-0.001,0.94-1.158,1.701-2.583,1.701
	c-1.423-0.001-2.576-0.762-2.578-1.701"/>
<path opacity="0.2" enable-background="new    " d="M468.844,398.669c0.001-0.94,1.158-1.701,2.583-1.7
	c1.423,0.001,2.576,0.762,2.578,1.7"/>
<ellipse fill="#FF6584" cx="470.134" cy="398.031" rx="0.213" ry="0.213"/>
<ellipse fill="#FF6584" cx="471.424" cy="397.747" rx="0.213" ry="0.213"/>
<ellipse fill="#FF6584" cx="455.374" cy="399.591" rx="0.213" ry="0.213"/>
<ellipse fill="#FF6584" cx="472.714" cy="398.456" rx="0.213" ry="0.213"/>
<ellipse fill="#FF6584" cx="456.449" cy="400.017" rx="0.213" ry="0.213"/>
<ellipse fill="#FF6584" cx="453.868" cy="399.308" rx="0.213" ry="0.213"/>
<ellipse fill="#008000" cx="462.255" cy="401.932" rx="3.441" ry="2.27"/>
<path opacity="0.2" enable-background="new    " d="M464.836,402.073c-0.001,0.94-1.158,1.701-2.583,1.7
	c-1.423-0.001-2.576-0.762-2.578-1.7"/>
<path opacity="0.2" enable-background="new    " d="M459.674,401.789c0.001-0.94,1.158-1.701,2.583-1.701
	c1.423,0.001,2.576,0.762,2.578,1.701"/>
<ellipse fill="#008000" cx="460.965" cy="401.151" rx="0.213" ry="0.213"/>
<ellipse fill="#008000" cx="462.255" cy="400.868" rx="0.213" ry="0.213"/>
<ellipse fill="#008000" cx="462.255" cy="402.712" rx="0.213" ry="0.213"/>
<ellipse fill="#008000" cx="463.545" cy="401.577" rx="0.213" ry="0.213"/>
<ellipse fill="#008000" cx="463.33" cy="403.137" rx="0.213" ry="0.213"/>
<ellipse fill="#008000" cx="460.75" cy="402.428" rx="0.213" ry="0.213"/>
<ellipse fill="#008000" cx="445.052" cy="402.216" rx="3.441" ry="2.27"/>
<path opacity="0.2" enable-background="new    " d="M447.632,402.357c-0.001,0.94-1.158,1.701-2.583,1.701
	c-1.423-0.001-2.576-0.762-2.578-1.701"/>
<path opacity="0.2" enable-background="new    " d="M442.472,402.073c0.001-0.94,1.158-1.701,2.583-1.701
	c1.423,0.001,2.576,0.762,2.578,1.701"/>
<ellipse fill="#008000" cx="443.762" cy="401.435" rx="0.213" ry="0.213"/>
<ellipse fill="#008000" cx="445.052" cy="401.151" rx="0.213" ry="0.213"/>
<ellipse fill="#008000" cx="445.052" cy="402.995" rx="0.213" ry="0.213"/>
<ellipse fill="#008000" cx="446.342" cy="401.861" rx="0.213" ry="0.213"/>
<ellipse fill="#008000" cx="446.128" cy="403.421" rx="0.213" ry="0.213"/>
<ellipse fill="#008000" cx="443.546" cy="402.712" rx="0.213" ry="0.213"/>
<ellipse fill="#008000" cx="452.794" cy="403.209" rx="3.441" ry="2.27"/>
<path opacity="0.2" enable-background="new    " d="M455.374,403.35c0.001,0.94-1.152,1.703-2.578,1.704
	c-1.425,0.001-2.581-0.76-2.583-1.701c0-0.001,0-0.003,0-0.003"/>
<path opacity="0.2" enable-background="new    " d="M450.213,403.066c-0.001-0.94,1.152-1.703,2.578-1.704
	c1.426-0.001,2.581,0.76,2.583,1.701c0,0.001,0,0.003,0,0.003"/>
<ellipse fill="#008000" cx="451.504" cy="402.428" rx="0.213" ry="0.213"/>
<ellipse fill="#008000" cx="452.794" cy="402.144" rx="0.213" ry="0.213"/>
<ellipse fill="#008000" cx="498.884" cy="392.924" rx="0.213" ry="0.213"/>
<ellipse fill="#008000" cx="454.084" cy="402.854" rx="0.213" ry="0.213"/>
<ellipse fill="#008000" cx="499.959" cy="393.35" rx="0.213" ry="0.213"/>
<ellipse fill="#008000" cx="451.288" cy="403.704" rx="0.213" ry="0.213"/>
<ellipse fill="#FF6584" cx="458.17" cy="405.619" rx="3.441" ry="2.27"/>
<path opacity="0.2" enable-background="new    " d="M506.84,394.698c0,0.94-1.155,1.702-2.58,1.702s-2.58-0.762-2.58-1.702l0,0"/>
<path opacity="0.2" enable-background="new    " d="M501.679,394.414c0-0.94,1.155-1.702,2.58-1.702s2.58,0.762,2.58,1.702"/>
<ellipse fill="#FF6584" cx="502.969" cy="393.776" rx="0.213" ry="0.213"/>
<ellipse fill="#FF6584" cx="504.26" cy="393.492" rx="0.213" ry="0.213"/>
<ellipse fill="#FF6584" cx="504.26" cy="395.336" rx="0.213" ry="0.213"/>
<ellipse fill="#FF6584" cx="505.55" cy="394.201" rx="0.213" ry="0.213"/>
<ellipse fill="#FF6584" cx="505.334" cy="395.762" rx="0.213" ry="0.213"/>
<ellipse fill="#FF6584" cx="502.754" cy="395.053" rx="0.213" ry="0.213"/>
<ellipse fill="#3F3D56" cx="429.975" cy="396.967" rx="0.912" ry="0.602"/>
<polygon fill="#F9A825" points="468.753,407.738 446.851,403.731 447.69,401.676 469.592,405.683 "/>
<path fill="#F9A825" d="M465.542,407.051c-7.5,0.947-15.204,0.947-22.705,0v-2.131c7.517,0.822,15.187,0.822,22.705,0V407.051z"/>
<path fill="#F9A825" d="M483.926,400.658c-7.5,0.947-15.204,0.947-22.705,0v-2.131c7.517,0.822,15.187,0.822,22.705,0V400.658z"/>
<path fill="#F9A825" d="M475.727,403.215c-7.5,0.947-15.204,0.947-22.705,0v-2.131c7.517,0.822,15.187,0.822,22.705,0V403.215z"/>
<path fill="#F9A825" d="M477.637,405.631c-7.5,0.947-15.204,0.947-22.705,0V403.5c7.517,0.822,15.187,0.822,22.705,0V405.631z"/>
<polygon fill="#F9A825" points="484.296,408.786 461.895,411.268 461.376,409.166 483.775,406.684 "/>
<path fill="#F9A825" d="M480.95,409.06c-6.211,2.953-13.209,5.107-20.631,6.347l-1.329-1.936c7.356-1.359,14.326-3.503,20.631-6.347
	L480.95,409.06z"/>
<path fill="#F9A825" d="M479.083,402.599c-6.211,2.953-13.209,5.107-20.631,6.347l-1.329-1.936
	c7.356-1.359,14.326-3.503,20.631-6.347L479.083,402.599z"/>
<path fill="#F9A825" d="M487.811,402.726c-6.211,2.953-13.21,5.107-20.631,6.347l-1.329-1.936
	c7.356-1.359,14.326-3.503,20.631-6.347L487.811,402.726z"/>
<path fill="#F9A825" d="M491.054,404.387c-6.211,2.953-13.209,5.107-20.631,6.347l-1.329-1.936
	c7.356-1.359,14.326-3.503,20.631-6.347L491.054,404.387z"/>
<rect x="462.836" y="400.23" fill="#00BF71" width="1.075" height="0.709"/>
<rect x="448.859" y="400.23" fill="#00BF71" width="1.075" height="0.709"/>
<rect x="473.802" y="409.023" fill="#00BF71" width="1.075" height="0.709"/>
<rect x="474.447" y="404.91" fill="#00BF71" width="1.075" height="0.709"/>
<polygon fill="#00BF71" points="456.54,402.411 457.786,402.969 457.303,403.438 456.058,402.881 "/>
<polygon fill="#00BF71" points="469.227,403.971 470.473,404.529 469.99,404.998 468.745,404.441 "/>
<polygon fill="#00BF71" points="453.745,406.666 454.99,407.224 454.508,407.693 453.262,407.136 "/>
<polygon fill="#00BF71" points="463.721,406.36 462.876,407.182 462.165,406.864 463.009,406.042 "/>
<polygon fill="#00BF71" points="469.527,407.353 468.682,408.175 467.97,407.857 468.816,407.035 "/>
<polygon fill="#00BF71" points="485.011,403.949 484.166,404.771 483.454,404.452 484.3,403.63 "/>
<path fill="#3F3D56" d="M534.47,362.847h54.537c1.479,0,2.677,1.512,2.677,3.376l0,0v5.363l0,0h-59.891l0,0v-5.363
	C531.793,364.36,532.991,362.847,534.47,362.847z"/>
<path fill="#F9A825" d="M587.971,362.223c-0.27,0.002-0.537,0.059-0.792,0.17c-0.198-1.002-1.002-1.612-1.796-1.363
	c-0.662,0.208-1.126,0.957-1.124,1.817c0,0.009,0.002,0.018,0.002,0.027c-0.186,0.022-0.368,0.07-0.546,0.142
	c-0.102-0.509-0.367-0.942-0.734-1.193c0.475-0.332,0.852-0.852,1.071-1.479c1.211-0.025,2.187-1.129,2.187-2.493
	c0-1.379-0.998-2.497-2.228-2.497c-0.27,0.002-0.537,0.059-0.792,0.17c-0.187-1.004-0.984-1.627-1.779-1.39
	c-0.796,0.236-1.289,1.24-1.102,2.244c0.01,0.054,0.022,0.108,0.036,0.161c-0.059,0.052-0.115,0.11-0.17,0.169
	c-0.28-0.304-0.644-0.457-1.012-0.425c-0.447-1.622-1.853-2.478-3.138-1.914c-0.976,0.429-1.636,1.579-1.654,2.882
	c-0.199,0.02-0.394,0.069-0.584,0.147c-0.021-0.106-0.05-0.208-0.086-0.308c0.395-0.44,0.624-1.07,0.629-1.734
	c0-1.379-0.998-2.497-2.228-2.497c-0.27,0.002-0.537,0.059-0.792,0.17c-0.187-1.004-0.984-1.627-1.779-1.39
	c-0.796,0.236-1.289,1.24-1.102,2.244c0.01,0.054,0.022,0.108,0.036,0.161c-0.632,0.553-1.022,1.446-1.057,2.416
	c-0.021,0.024-0.045,0.042-0.065,0.068c0.037-0.178,0.056-0.362,0.058-0.546c0-1.379-0.997-2.497-2.228-2.497
	c-0.27,0.002-0.537,0.059-0.792,0.17c-0.187-1.004-0.984-1.627-1.779-1.39c-0.796,0.236-1.289,1.24-1.102,2.244
	c0.01,0.054,0.022,0.108,0.036,0.161c-1.121,0.978-1.403,2.916-0.627,4.331c0.17,0.309,0.382,0.578,0.627,0.791
	c-0.1,0.363-0.1,0.757,0,1.12c-0.248,0.219-0.462,0.491-0.633,0.807c-0.217-0.991-1.029-1.573-1.814-1.3
	c-0.589,0.205-1.018,0.847-1.076,1.615c-0.199-0.147-0.412-0.256-0.636-0.325c0.4-0.334,0.717-0.807,0.909-1.362
	c1.211-0.025,2.187-1.129,2.187-2.493c0-1.379-0.998-2.497-2.228-2.497c-0.27,0.002-0.537,0.059-0.792,0.17
	c-0.187-1.004-0.984-1.627-1.779-1.39c-0.796,0.236-1.289,1.24-1.102,2.244c0.01,0.054,0.022,0.108,0.036,0.161
	c-0.032,0.028-0.06,0.061-0.091,0.091c-0.077-0.009-0.153-0.026-0.232-0.026c-0.27,0.002-0.537,0.059-0.792,0.17
	c-0.009-0.047-0.025-0.091-0.037-0.136c0.171-0.993-0.328-1.972-1.115-2.189c-0.132-0.036-0.267-0.049-0.4-0.038
	c-0.461-1.621-1.877-2.463-3.162-1.881c-1.285,0.582-1.953,2.368-1.492,3.989c0.153,0.535,0.418,1.008,0.768,1.367
	c-0.171,0.025-0.339,0.071-0.501,0.138c-0.192-0.996-0.987-1.608-1.777-1.367c-0.213,0.065-0.41,0.189-0.58,0.362
	c-0.446-0.669-1.107-1.051-1.801-1.039c-0.27,0.002-0.537,0.059-0.792,0.17c-0.187-1.004-0.984-1.627-1.779-1.39
	c-0.796,0.236-1.289,1.24-1.102,2.244c0.01,0.054,0.022,0.108,0.036,0.161c-0.667,0.581-1.065,1.539-1.065,2.561
	c0,0.009,0.002,0.019,0.002,0.028c-0.351-0.067-0.71-0.019-1.042,0.141c-0.187-1.004-0.984-1.627-1.779-1.39
	c-0.796,0.236-1.289,1.24-1.102,2.244c0.01,0.054,0.022,0.108,0.036,0.161c-1.127,0.963-1.422,2.895-0.659,4.317
	c0.574,1.069,1.612,1.579,2.607,1.283c0.232,1.693,1.508,2.827,2.85,2.535c0.791-0.173,1.467-0.82,1.809-1.736
	c0.582,1.553,2.053,2.217,3.284,1.484c0.542-0.324,0.973-0.885,1.21-1.579c0.292-0.005,0.58-0.075,0.853-0.208
	c0.448,1.622,1.855,2.478,3.14,1.912c0.652-0.286,1.178-0.905,1.452-1.704c0.36-0.009,0.716-0.119,1.038-0.324
	c0.67,1.494,2.173,2.019,3.357,1.174c0.468-0.334,0.837-0.852,1.049-1.474c0.133-0.004,0.266-0.021,0.395-0.053
	c0.52,1.592,1.966,2.351,3.228,1.695c0.594-0.309,1.07-0.898,1.326-1.642c0.195-0.007,0.387-0.043,0.575-0.107
	c1.021,0.359,2.109-0.164,2.68-1.291c-0.341,1.668,0.454,3.371,1.777,3.801c1.178,0.384,2.402-0.371,2.887-1.778
	c0.36-0.009,0.716-0.119,1.038-0.324c0.67,1.494,2.173,2.019,3.357,1.174c0.468-0.334,0.837-0.852,1.049-1.474
	c0.36-0.009,0.716-0.119,1.038-0.324c0.662,1.488,2.155,2.017,3.334,1.182c0.118-0.083,0.23-0.179,0.335-0.285
	c0.243,1.689,1.526,2.81,2.865,2.503c0.618-0.141,1.17-0.576,1.544-1.214c1.077,1.041,2.62,0.785,3.446-0.574
	c0.124-0.204,0.228-0.427,0.308-0.663c1.211-0.025,2.187-1.129,2.187-2.493C590.199,363.341,589.201,362.223,587.971,362.223z
	 M543.732,360.935c-0.003,0.015-0.004,0.031-0.007,0.046c-0.018-0.001-0.035-0.006-0.054-0.006
	c-0.074,0.003-0.148,0.012-0.221,0.028c0.004-0.011,0.01-0.021,0.014-0.033C543.554,360.965,543.644,360.953,543.732,360.935z
	 M564.411,359.896c-0.007-0.036-0.02-0.069-0.029-0.105c0.378-0.33,0.676-0.787,0.861-1.318c0.658-0.004,1.284-0.362,1.72-0.983
	c-0.019,0.119-0.029,0.241-0.029,0.363c0.002,0.191,0.027,0.38,0.075,0.56c-0.425,0.374-0.747,0.906-0.92,1.522
	C565.552,359.67,564.956,359.656,564.411,359.896L564.411,359.896z M579.236,360.128c-0.001-0.038,0.003-0.078,0.001-0.116
	c0.063,0,0.126-0.006,0.189-0.016c0.096,0.404,0.257,0.779,0.471,1.101c-0.047,0.017-0.096,0.026-0.142,0.046
	C579.675,360.743,579.493,360.386,579.236,360.128z"/>
<path fill="#3F3D56" d="M536.778,365.969c-2.854,0-5.168,2.918-5.168,6.518c0,0.117,0.003,0.234,0.007,0.351l3.352,58.133
	c0.147,3.46,2.413,6.17,5.161,6.17h43.216c2.747,0,5.015-2.71,5.161-6.17l3.352-58.133c0.154-3.595-2.033-6.666-4.883-6.86
	c-0.093-0.006-0.186-0.009-0.278-0.009H536.778z"/>
<rect x="539.218" y="365.969" fill="#008000" width="2.97" height="71.171"/>
<rect x="547.631" y="365.969" fill="#008000" width="2.97" height="71.171"/>
<rect x="556.046" y="365.969" fill="#008000" width="2.97" height="71.171"/>
<rect x="564.46" y="365.969" fill="#008000" width="2.97" height="71.171"/>
<rect x="572.875" y="365.969" fill="#008000" width="2.97" height="71.171"/>
<rect x="581.289" y="365.969" fill="#008000" width="2.97" height="71.171"/>
<path id="a971f948-84ae-4583-a462-a09341ab7c50" fill="#3F3D56" d="M676.474,347.739l-2.708-3.476l-36.108,7.812
	c-1.672,0.363-2.764,1.221-2.764,2.173v20.559h7.132v-19.611L676.474,347.739z"/>
<g>
	<g>
		<defs>
			<path id="SVGID_2_" d="M676.474,347.739l-2.708-3.476l-36.108,7.812c-1.672,0.363-2.764,1.221-2.764,2.173v20.559h7.132v-19.611
				L676.474,347.739z"/>
		</defs>
		<clipPath id="SVGID_3_">
			<use xlink:href="#SVGID_2_"  overflow="visible"/>
		</clipPath>
		<g clip-path="url(#SVGID_3_)">
			<rect x="664.058" y="340.486" fill="#008000" width="7.776" height="12.979"/>
			<rect x="651.746" y="343.218" fill="#008000" width="7.776" height="12.979"/>
			<polygon fill="#008000" points="647.529,354.318 642.021,355.173 639.754,341.34 647.529,341.34 			"/>
			<rect x="627.438" y="355.855" fill="#008000" width="24.628" height="4.098"/>
			<rect x="627.442" y="361.492" fill="#008000" width="24.628" height="4.098"/>
			<rect x="627.438" y="367.129" fill="#008000" width="24.628" height="4.098"/>
		</g>
	</g>
</g>
<polygon fill="#3F3D56" points="664.058,435.444 616.422,435.444 604.754,373.959 674.43,373.959 "/>
<ellipse opacity="0.1" enable-background="new    " cx="602.72" cy="566.494" rx="206.213" ry="43.442"/>
<polygon fill="#F5F5F5" points="721.673,570.376 701.182,569.259 431.79,569.259 431.79,540.164 721.673,540.164 "/>
<path fill="#EDEDF4" d="M428.999,465.742h-17.696v-7.682c0-2.963,3.258-5.365,7.277-5.365l0,0h3.142
	c4.019,0,7.277,2.402,7.277,5.365l0,0L428.999,465.742L428.999,465.742z"/>
<path fill="#008000" d="M732.549,526.177v44.389l-19.759-0.189c0-0.315,0.03-0.631,0.03-0.928c0-15.861-17.439-28.72-38.952-28.72
	c-21.513,0-38.952,12.858-38.952,28.72l0,0c0,0.063,0,0.126,0,0.186l-19.72-0.19H512.99c-0.001-1.055-0.081-2.108-0.24-3.156
	c-0.073-0.505-0.163-1.001-0.279-1.493c-0.276-1.266-0.667-2.516-1.173-3.743c-0.206-0.505-0.428-1.001-0.676-1.493
	c-0.639-1.282-1.4-2.528-2.278-3.731c-0.368-0.508-0.762-1.004-1.173-1.493c-1.104-1.315-2.352-2.563-3.728-3.731
	c-0.608-0.515-1.237-1.013-1.887-1.493c-15.206-11.194-39.836-11.194-55.042,0c-0.653,0.482-1.283,0.979-1.888,1.493
	c-1.377,1.168-2.623,2.415-3.728,3.731c-0.428,0.489-0.805,0.984-1.173,1.493c-0.878,1.202-1.639,2.449-2.278,3.731
	c-0.244,0.492-0.471,0.988-0.676,1.493c-0.505,1.223-0.897,2.469-1.173,3.731c-0.116,0.492-0.206,0.988-0.279,1.493
	c-0.159,1.048-0.239,2.101-0.24,3.156h-38.952v-98.089H670.84l27.253,43.815l33.871,10.832L732.549,526.177z"/>
<path fill="#F5F5F5" d="M402.196,462.018h257.937c5.91,0,10.701,3.532,10.701,7.89v1.436l0,0H396.126l0,0v-4.854
	c0-2.47,2.716-4.472,6.065-4.472C402.193,462.018,402.194,462.018,402.196,462.018z"/>
<path fill="#EDEDF4" d="M609.111,462.018h-62.733v-1.742c0-4.808,5.285-8.704,11.805-8.704h36.255L609.111,462.018z"/>
<polygon opacity="0.1" enable-background="new    " points="614.928,569.259 585.586,569.259 585.586,471.157 643.256,471.157 
	643.256,539.044 "/>
<path fill="#F5F5F5" d="M600.781,478.432h28.799c3.782,0,6.849,2.261,6.849,5.05v33.17c0,2.789-3.066,5.05-6.849,5.05h-28.799
	c-3.782,0-6.849-2.261-6.849-5.05v-33.17C593.932,480.694,596.999,478.432,600.781,478.432z"/>
<rect x="628.334" y="525.429" fill="#1A2246" width="5.565" height="8.953"/>
<path fill="#F5F5F5" d="M653.627,484.584v30.897c0,0.962,1.057,1.742,2.362,1.742l0,0h25.79c1.305-0.001,2.362-0.781,2.361-1.743
	c0-0.322-0.121-0.637-0.349-0.911l-25.79-30.897c-0.684-0.819-2.14-1.074-3.251-0.569
	C654.054,483.419,653.628,483.979,653.627,484.584z"/>
<polygon fill="#FFFFFF" points="607.592,478.432 593.932,487.383 593.932,492.047 613.408,478.432 "/>
<polygon fill="#FFFFFF" points="593.932,497.45 593.932,502.863 626.31,478.432 619.983,478.432 "/>
<polygon fill="#FFFFFF" points="662.188,488.689 653.627,497.45 653.627,500.812 664.992,492.047 "/>
<polygon fill="#FFFFFF" points="668.887,497.45 653.627,507.06 653.627,509.765 672.307,500.812 "/>
<ellipse fill="#1A2246" cx="474.034" cy="569.445" rx="27.317" ry="20.142"/>
<ellipse fill="#FFFFFF" cx="474.034" cy="569.445" rx="15.178" ry="11.191"/>
<ellipse fill="#1A2246" cx="473.781" cy="569.259" rx="4.049" ry="2.986"/>
<ellipse fill="#1A2246" cx="673.865" cy="569.445" rx="27.317" ry="20.142"/>
<ellipse fill="#FFFFFF" cx="673.865" cy="569.445" rx="15.178" ry="11.191"/>
<ellipse fill="#1A2246" cx="674.118" cy="569.259" rx="4.049" ry="2.986"/>
<rect x="395.874" y="538.671" opacity="0.1" enable-background="new    " width="189.712" height="1.493"/>
<polyline opacity="0.1" enable-background="new    " points="729.006,540.164 642.245,540.164 643.256,539.044 643.256,538.671 
	729.006,538.671 "/>
<polyline opacity="0.1" enable-background="new    " points="729.006,533.824 643.256,533.824 643.256,532.331 729.006,532.331 "/>
<polyline opacity="0.1" enable-background="new    " points="729.006,527.48 643.256,527.48 643.256,525.99 728.424,525.99 "/>
<path opacity="0.1" enable-background="new    " d="M456.224,543.894c-1.191,0.453-2.351,0.951-3.472,1.493h-56.878v-1.493H456.224z
	"/>
<path opacity="0.1" enable-background="new    " d="M585.586,543.894v1.493H495.32c-1.121-0.541-2.28-1.04-3.472-1.493H585.586z"/>
<path opacity="0.1" enable-background="new    " d="M446.515,549.117c-0.653,0.482-1.283,0.979-1.888,1.493h-48.754v-1.493H446.515z
	"/>
<path opacity="0.1" enable-background="new    " d="M585.586,549.117v1.493h-82.142c-0.608-0.515-1.237-1.013-1.887-1.493H585.586z"
	/>
<path opacity="0.1" enable-background="new    " d="M440.899,554.337c-0.428,0.489-0.805,0.985-1.173,1.493h-43.853v-1.493H440.899z
	"/>
<path opacity="0.1" enable-background="new    " d="M585.586,554.337v1.493h-77.24c-0.368-0.508-0.762-1.004-1.173-1.493H585.586z"
	/>
<path opacity="0.1" enable-background="new    " d="M437.45,559.561c-0.244,0.492-0.471,0.988-0.676,1.493h-10.547v-1.493H437.45z"
	/>
<path opacity="0.1" enable-background="new    " d="M585.586,559.561v1.493h-74.286c-0.206-0.505-0.428-1.001-0.676-1.493H585.586z"
	/>
<path opacity="0.1" enable-background="new    " d="M435.595,564.784c-0.116,0.492-0.206,0.988-0.279,1.493h-9.091v-1.493H435.595z"
	/>
<path opacity="0.1" enable-background="new    " d="M585.586,564.784v1.493H512.75c-0.073-0.505-0.163-1.001-0.279-1.493H585.586z"
	/>
<rect x="540.56" y="515.929" opacity="0.1" enable-background="new    " width="3.034" height="0.224"/>
<rect x="545.114" y="515.929" opacity="0.1" enable-background="new    " width="3.034" height="0.224"/>
<path fill="#008000" d="M432.3,496.151c0,0,5.059,7.833,18.465,0"/>
<path fill="#008000" d="M450.513,496.151c0,0,5.059,7.833,18.465,0"/>
<path fill="#008000" d="M468.722,496.151c0,0,5.059,7.833,18.465,0"/>
<path fill="#008000" d="M486.935,496.151c0,0,5.059,7.833,18.465,0"/>
<path fill="#008000" d="M505.149,496.151c0,0,5.059,7.833,18.465,0"/>
<path fill="#008000" d="M523.361,496.151c0,0,5.06,7.833,18.465,0"/>
<path fill="#008000" d="M541.574,496.151c0,0,5.06,7.833,18.465,0"/>
<path fill="#008000" d="M559.783,496.151c0,0,5.06,5.595,8.599,0.373"/>
<path fill="#008000" d="M414.086,496.151c0,0,5.059,7.833,18.465,0"/>
<rect x="429.008" y="529.906" opacity="0.1" enable-background="new    " width="124.453" height="1.12"/>
<path fill="#F5F5F5" d="M423.401,475.816H452.2c3.782,0,6.849,2.261,6.849,5.05v33.169c0,2.789-3.066,5.05-6.849,5.05h-28.799
	c-3.782,0-6.849-2.261-6.849-5.05v-33.17C416.552,478.077,419.618,475.816,423.401,475.816z"/>
<path fill="#F5F5F5" d="M509.215,474.516h28.799c3.782,0,6.849,2.261,6.849,5.05v33.169c0,2.789-3.066,5.05-6.849,5.05h-28.799
	c-3.782,0-6.849-2.261-6.849-5.05v-33.17C502.366,476.777,505.432,474.516,509.215,474.516z"/>
<path opacity="0.1" fill="#008000" enable-background="new    " d="M844.123,115.319h-91.546c-4.37,0-7.913-5.699-7.913-12.729
	s3.543-12.729,7.913-12.729h15.826c-4.37,0-7.913-5.699-7.913-12.729c0-7.03,3.543-12.729,7.913-12.729l0,0h-11.301
	c-4.37,0-7.913-5.699-7.913-12.729s3.543-12.729,7.913-12.729h47.781c-10.602-7.927-22.995-13.568-37.269-16.527
	c-130.285-26.924-176.802-9.116-193.211,9.248c-20.244,22.591-42.829,39.211-66.966,47.217
	c-80.385,26.673-230.718,58.777-366.974-10.278C72.742,34.255,22.407,92.279-7.758,189.196h867.773
	c-1.133-28.166-4.525-54.166-10.75-76.942C847.834,114.234,846.01,115.321,844.123,115.319z"/>
<path opacity="0.1" fill="#008000" enable-background="new    " d="M-30.792,379.398c-4.282,43.151-2.829,86.68,4.32,129.45
	l978.68,35.79c27.243-31.339,50.118-66.223,68-103.7L-30.792,379.398z M356.288,471.748h-19.27c5.321,0,9.635,4.314,9.635,9.635
	s-4.314,9.635-9.635,9.635h-111.47c-5.321,0-9.635-4.314-9.635-9.635s4.314-9.635,9.635-9.635h19.27
	c-5.321,0-9.635-4.314-9.635-9.635s4.314-9.635,9.635-9.635h-13.76c-5.321,0-9.635-4.314-9.635-9.635
	c0-5.321,4.314-9.635,9.635-9.635h111.47c5.321,0,9.635,4.314,9.635,9.635c0,5.321-4.314,9.635-9.635,9.635l0,0h13.76
	c5.321,0,9.635,4.314,9.635,9.635C365.923,467.434,361.609,471.748,356.288,471.748L356.288,471.748z"/>
</svg>
