<?xml version="1.0" encoding="utf-8"?>
<!-- Generator: Adobe Illustrator 17.0.0, SVG Export Plug-In . SVG Version: 6.00 Build 0)  -->
<!DOCTYPE svg PUBLIC "-//W3C//DTD SVG 1.1//EN" "http://www.w3.org/Graphics/SVG/1.1/DTD/svg11.dtd">
<svg version="1.1" id="a281da36-03ff-4df9-8bcc-0ac71230b2d7"
	 xmlns="http://www.w3.org/2000/svg" xmlns:xlink="http://www.w3.org/1999/xlink" x="0px" y="0px" width="1177.82px"
	 height="725.16px" viewBox="0 0 1177.82 725.16" enable-background="new 0 0 1177.82 725.16" xml:space="preserve">
<title>printing invoices</title>
<path opacity="0.1" fill="#008000" enable-background="new    " d="M1152.91,504.51c0.02,19.629-2.354,39.186-7.07,58.24
	c-1.587,6.413-3.43,12.7-5.53,18.86c-2.573,7.594-5.551,15.045-8.92,22.32c-1.7,3.673-3.497,7.28-5.39,10.82
	c0.03,20.128-4.114,40.044-12.17,58.49c-14.57,33.091-40.539,59.848-73.18,75.4c-20.435,9.748-42.769,14.869-65.41,15H198.68
	c-34.553,0.077-68.511-8.997-98.42-26.3c-4.42-2.56-8.727-5.287-12.92-8.18c-9.105-6.29-17.659-13.342-25.57-21.08
	c-10.71-10.476-20.145-22.181-28.11-34.87c-18.712-29.712-28.625-64.117-28.59-99.23c-18.95-33.25-30-73.08-30-115.88
	c0-54,17.56-103.26,46.41-140.55c6.015-7.791,12.603-15.121,19.71-21.93c7.012-6.738,14.549-12.907,22.54-18.45
	c6.391-4.443,13.072-8.452,20-12c2.89-1.48,5.79-2.86,8.74-4.15c2.59-1.15,5.21-2.22,7.86-3.23c3.18-1.213,6.4-2.323,9.66-3.33
	s6.477-1.893,9.65-2.66c4.667-1.14,9.413-2.067,14.24-2.78c4-0.59,8-1,12-1.32c3.18-0.227,6.387-0.36,9.62-0.4h1.75
	c3.56,0,7.1,0.14,10.61,0.38c0.37-0.74,0.77-1.49,1.14-2.23c1.4-2.66,2.85-5.32,4.31-7.93v-0.07c0.25-0.45,0.5-0.9,0.76-1.34
	c1.18-2.13,2.41-4.24,3.67-6.33c0.58-1,1.15-1.94,1.74-2.89c0.13-0.23,0.26-0.45,0.41-0.68c0.6-1,1.21-2,1.83-3
	c3.087-4.927,6.297-9.777,9.63-14.55c0.29-0.41,0.56-0.81,0.85-1.21c0.52-0.74,1-1.47,1.58-2.2c1.38-1.93,2.8-3.87,4.23-5.78
	c1-1.35,2-2.7,3.08-4c2.6-3.36,5.27-6.7,8-10c2.73-3.3,5.61-6.62,8.52-9.87c0.4-0.45,0.8-0.89,1.22-1.34l4.27-4.65l0,0
	c0.21-0.22,0.39-0.42,0.59-0.62l0,0c0.51-0.55,1-1.1,1.55-1.64c2.29-2.42,4.64-4.81,7-7.17c12.055-11.978,24.897-23.136,38.44-33.4
	c0.53-0.42,1.07-0.82,1.6-1.22c2.54-1.92,5.12-3.81,7.7-5.67c14.193-10.177,29.027-19.429,44.41-27.7c1.06-0.6,2.14-1.17,3.23-1.74
	c13.795-7.293,27.979-13.823,42.49-19.56c7.907-3.127,15.953-6.047,24.14-8.76c5.42-1.77,10.86-3.46,16.37-5
	c8.52-2.447,17.147-4.653,25.88-6.62c25.729-5.773,51.904-9.339,78.24-10.66c8-0.42,16.09-0.63,24.27-0.63
	c39.47-0.052,78.786,4.921,117,14.8c0.803,1.214,2.175,1.928,3.63,1.89H663c1.46,0.39,2.91,0.8,4.37,1.22
	c8.153,2.353,16.19,4.917,24.11,7.69l2,0.72c19.548,6.951,38.567,15.306,56.91,25c16.533,8.721,32.453,18.557,47.65,29.44
	c2.34,1.68,4.647,3.377,6.92,5.09c2.76-1.78,5.567-3.477,8.42-5.09c11.019-6.272,22.723-11.258,34.88-14.86
	c25.418-7.522,52.312-8.574,78.24-3.06c33.25,7.05,63.35,24.55,87.66,49.44c9.903,10.151,18.724,21.304,26.32,33.28
	c0.55,0.86,1.1,1.73,1.63,2.61c6.516,10.635,12.117,21.806,16.74,33.39c0.17,0.42,0.34,0.83,0.49,1.25
	c4.269,10.841,7.712,21.99,10.3,33.35c0.12,0.57,0.26,1.15,0.38,1.73c2.42,10.994,4.064,22.145,4.92,33.37c0,0.4,0,0.81,0.08,1.22
	c0.42,5.807,0.633,11.677,0.64,17.61c0,5.3-0.18,10.56-0.51,15.77c0,0.57-0.08,1.17-0.13,1.75c-0.09,1.52-0.22,3-0.35,4.53
	c7.637,6.157,14.785,12.897,21.38,20.16c2.913,3.18,5.733,6.483,8.46,9.91c8.307,10.408,15.607,21.581,21.8,33.37
	C1143.19,426.78,1152.91,464.32,1152.91,504.51z"/>
<path opacity="0.1" fill="#008000" enable-background="new    " d="M1064.82,662.14c0,22.73-23.56,44-64.67,62.32H223.59
	c-35.93,0-69.58-13-98.42-35.67c-7.25-8.6-11.07-17.51-11.07-26.66c0-24.16,26.64-46.71,72.7-65.77l0,0l1.3-0.52
	c13-5.33,27.53-10.36,43.41-15.09c0.4-0.12,0.81-0.23,1.21-0.37l0,0c12.6-3.7,26.003-7.207,40.21-10.52
	c0.45-0.1,0.89-0.21,1.34-0.29c5.48-1.3,11.07-2.51,16.78-3.72l0,0l2.2-0.46c41.55-8.62,88.78-15.46,140-20.1h0.06
	c7.173-0.667,14.423-1.263,21.75-1.79c8.15-0.65,16.4-1.2,24.74-1.71c6.37-0.41,12.82-0.76,19.29-1.08
	c0.048-0.021,0.102-0.021,0.15,0c29.19-1.47,59.35-2.24,90.19-2.24c76.26,0,148.34,4.68,212.21,13c0.06-0.01,0.12-0.01,0.18,0
	c9.82,1.28,19.46,2.63,28.86,4.07c2.69,0.42,5.37,0.84,8,1.27c10.607,1.713,20.94,3.523,31,5.43l0,0
	C987.98,584.73,1064.82,621.12,1064.82,662.14z"/>
<path fill="#444053" d="M754.62,189.47l0.22,0.38c-20.38,25.45-21.73,65-21.78,65.31l-4.3-5
	C728.81,249.84,734.1,215.1,754.62,189.47z"/>
<path fill="none" stroke="#444053" stroke-miterlimit="10" d="M764.32,251.72c0,0-11-23.1-1.21-38.13"/>
<path fill="none" stroke="#444053" stroke-miterlimit="10" d="M742.29,179.15c0,0,0,21.25-5.78,22.76"/>
<path fill="none" stroke="#444053" stroke-miterlimit="10" d="M695,206.68c0,0,23,2,33.57-9.89"/>
<rect x="395.21" y="225.58" fill="#33323D" width="384.2" height="193.94"/>
<rect x="275.53" y="478.44" fill="#33323D" width="624.78" height="127.66"/>
<polygon fill="#FFFFFF" points="407.799,463.781 742.237,463.781 808.87,716.724 337.325,716.724 "/>
<polygon fill="#504F60" points="257.73,402.33 257.73,468.62 257.73,482.58 257.73,606.09 377.41,606.09 377.41,488.26 
	798.43,488.26 798.43,606.09 918.11,606.09 918.11,482.58 918.11,468.62 918.11,402.33 "/>
<rect x="257.73" y="402.33" opacity="0.1" fill="#33323D" enable-background="new    " width="660.38" height="66.28"/>
<circle opacity="0.8" fill="#8CCF4D" enable-background="new    " cx="882.52" cy="435.48" r="9.82"/>
<circle opacity="0.8" fill="#F9F164" enable-background="new    " cx="838.33" cy="435.48" r="9.82"/>
<rect x="409.33" y="170.08" fill="#FFFFFF" width="357.65" height="219.97"/>
<path fill="#FBBEBE" d="M819.45,487.07c0.75,8.17-5.42,16.1-3.62,24.1c0.38,1.71,1.12,3.33,1.39,5c0.74,4.75-2.09,9.25-4.8,13.23
	l-23.23,34.18c-0.932,1.499-2.047,2.877-3.32,4.1c-4.45,4-11.11,3.54-16.94,4.72c-4.099,0.831-7.97,2.537-11.35,5
	c-0.305,0.242-0.371,0.679-0.15,1c1.953,2.679,5.13,4.185,8.44,4c0.61,0.8,0,2-0.84,2.56c-1.25,0.86-3,1.09-3.21,3.21
	c-0.088,0.737,0.059,1.482,0.42,2.13c0.94,1.432,2.399,2.443,4.07,2.82c8,2.46,16.73-1.86,22.75-7.74s10.34-13.3,16.25-19.29
	c3.27-3.31,7-6.15,10.36-9.36c6.72-6.4,12-14.19,17-22c1.651-2.265,2.896-4.799,3.68-7.49c0.62-2.66,0.34-5.47,1.06-8.11
	c0.94-3.45,3.47-6.2,5.57-9.1c4.13-5.68,6.88-12.62,6.33-19.62s-4.87-13.89-11.47-16.27c-2.046-0.815-4.3-0.952-6.43-0.39
	c-2.71,0.83-4.7,3.07-6.55,5.21l-4.41,5.09c-1.099,1.127-1.972,2.454-2.57,3.91c-0.581,1.499-0.224,3.2,0.91,4.34"/>
<path opacity="0.05" enable-background="new    " d="M819.45,487.07c0.75,8.17-5.42,16.1-3.62,24.1c0.38,1.71,1.12,3.33,1.39,5
	c0.74,4.75-2.09,9.25-4.8,13.23l-23.23,34.18c-0.932,1.499-2.047,2.877-3.32,4.1c-4.45,4-11.11,3.54-16.94,4.72
	c-4.099,0.831-7.97,2.537-11.35,5c-0.305,0.242-0.371,0.679-0.15,1c1.953,2.679,5.13,4.185,8.44,4c0.61,0.8,0,2-0.84,2.56
	c-1.25,0.86-3,1.09-3.21,3.21c-0.088,0.737,0.059,1.482,0.42,2.13c0.94,1.432,2.399,2.443,4.07,2.82c8,2.46,16.73-1.86,22.75-7.74
	s10.34-13.3,16.25-19.29c3.27-3.31,7-6.15,10.36-9.36c6.72-6.4,12-14.19,17-22c1.651-2.265,2.896-4.799,3.68-7.49
	c0.62-2.66,0.34-5.47,1.06-8.11c0.94-3.45,3.47-6.2,5.57-9.1c4.13-5.68,6.88-12.62,6.33-19.62s-4.87-13.89-11.47-16.27
	c-2.046-0.815-4.3-0.952-6.43-0.39c-2.71,0.83-4.7,3.07-6.55,5.21l-4.41,5.09c-1.099,1.127-1.972,2.454-2.57,3.91
	c-0.581,1.499-0.224,3.2,0.91,4.34"/>
<path fill="#3F3D56" d="M837.04,697.36c-5.08,3.09-11.4,3.29-17.3,2.56c-1-0.11-2.07-0.18-2.68,0.55c-0.88,1.07,0.16,2.63,1.23,3.49
	c3.486,2.609,7.577,4.292,11.89,4.89c3.85,0.537,7.733,0.794,11.62,0.77c10.6,0.18,21.26,0.36,31.76-1.17
	c0.606-0.045,1.196-0.219,1.73-0.51c0.678-0.473,1.147-1.19,1.31-2c0.73-2.72-0.66-5.66-2.75-7.55s-4.78-2.95-7.41-4l-9.22-3.59
	c-2.17-0.85-5.64-3.08-8-2.91C844.91,688.24,840.7,695.22,837.04,697.36z"/>
<path opacity="0.05" enable-background="new    " d="M837.04,697.36c-5.08,3.09-11.4,3.29-17.3,2.56c-1-0.11-2.07-0.18-2.68,0.55
	c-0.88,1.07,0.16,2.63,1.23,3.49c3.486,2.609,7.577,4.292,11.89,4.89c3.85,0.537,7.733,0.794,11.62,0.77
	c10.6,0.18,21.26,0.36,31.76-1.17c0.606-0.045,1.196-0.219,1.73-0.51c0.678-0.473,1.147-1.19,1.31-2c0.73-2.72-0.66-5.66-2.75-7.55
	s-4.78-2.95-7.41-4l-9.22-3.59c-2.17-0.85-5.64-3.08-8-2.91C844.91,688.24,840.7,695.22,837.04,697.36z"/>
<path fill="#464353" d="M843.47,574.91c-3.83,5.11-7.81,11-6.86,17.33c0.51,3.41,2.42,6.42,3.82,9.57
	c1.753,4.334,3.049,8.838,3.87,13.44c1.44,6.69,2.88,13.4,3.76,20.19c1,7.67-3.7,29.86-4.14,37.59c-0.11,1.86-0.32,3.88-1.62,5.22
	c-0.51,0.53-1.19,1-1.41,1.65c-0.14,0.662-0.034,1.352,0.3,1.94c2.17,4.89,6.6,8.52,11.52,10.6s16.89,5.65,22.23,5.84
	c0.709,0.085,1.428-0.011,2.09-0.28c0.721-0.431,1.288-1.078,1.62-1.85c3.86-7.37,0.15-33.61,0.21-41.94c0-7,1.69-13.84,1.39-20.78
	c-0.25-5.57-1.74-11-2.28-16.56c-0.89-9.11,0.78-18.25,2.46-27.25c1.28-6.89,2.56-13.79,4.2-20.61c1-4.15,2.16-8.35,4.45-12
	c1.81-2.87,4.27-5.26,6.34-8c5.737-7.52,8.284-16.997,7.09-26.38c-0.12-0.92-13.32,3.35-14.47,3.85
	c-4.737,2.014-9.096,4.821-12.89,8.3c-3,2.9-5.45,6.79-8.13,10.05c-3.78,4.6-7.51,9.237-11.19,13.91
	C851.65,564.107,847.53,569.497,843.47,574.91z"/>
<path opacity="0.05" enable-background="new    " d="M843.47,574.58c-3.83,5.11-7.81,11-6.86,17.34c0.51,3.4,2.42,6.41,3.82,9.56
	c1.751,4.334,3.048,8.838,3.87,13.44c1.44,6.69,2.88,13.4,3.76,20.19c1,7.67-3.7,29.87-4.14,37.6c-0.11,1.85-0.32,3.88-1.62,5.21
	c-0.51,0.53-1.19,1-1.41,1.65c-0.152,0.681-0.045,1.394,0.3,2c2.17,4.88,6.6,8.52,11.52,10.59s16.89,4,22.23,4.17
	c0.709,0.085,1.428-0.011,2.09-0.28c0.721-0.431,1.288-1.078,1.62-1.85c3.86-7.37,0.15-31.94,0.21-40.26c0-7,1.69-13.85,1.39-20.79
	c-0.25-5.57-1.74-11-2.28-16.56c-0.89-9.11,0.78-18.25,2.46-27.24c1.28-6.9,2.56-13.8,4.2-20.62c1-4.15,2.16-8.35,4.45-12
	c1.81-2.86,4.27-5.26,6.34-7.94c5.73-7.524,8.276-16.997,7.09-26.38c-0.12-0.93-13.32,3.34-14.47,3.85
	c-4.741,2.016-9.101,4.83-12.89,8.32c-3,2.91-5.45,6.79-8.13,10c-3.78,4.6-7.51,9.24-11.19,13.92
	C851.65,563.833,847.53,569.193,843.47,574.58z"/>
<circle fill="#FBBEBE" cx="800.78" cy="440.87" r="21.53"/>
<path fill="#FBBEBE" d="M820.16,439.97c4.018,6.415,10.466,10.926,17.87,12.5l-1.62,5.87c-2.8,10.13-6,20.84-13.77,27.86
	c0.85-3.43-0.25-7.12-2.19-10.07c-2.075-2.87-4.534-5.441-7.31-7.64l-12.39-10.78c-0.369-0.273-0.685-0.612-0.93-1
	c-0.3-0.758-0.3-1.602,0-2.36c1.58-4.91,6.09-8,9.74-11.3c1.836-1.72,3.479-3.634,4.9-5.71C817,433.81,818.53,437.34,820.16,439.97z
	"/>
<path fill="#464353" d="M772.41,419.23l-0.48-4c3.4,0.88,6.62-2,8.79-5s4.19-6.52,7.5-7.76c4-1.52,8.28,0.91,12.12,2.91
	c4.305,2.396,9.031,3.941,13.92,4.55c0.78,0.026,1.553,0.154,2.3,0.38c2.5,0.89,3.69,4,4.05,6.87s0.26,5.87,1.5,8.41
	c0.93,1.92,2.54,3.35,3.52,5.24c2.63,5.1,0.09,12.06,2.87,17.06l-6.9-6.33c-0.64-0.58-1.53-1.18-2.22-0.69s-0.59,1.23-0.82,1.9
	c-0.67,2-3.12,2.56-4.91,1.79s-3.08-2.47-4.39-4c-3.05-3.6-6.68-6.76-11-8.3c-3.782-1.45-8.006-1.199-11.59,0.69
	c-3.22,1.82-5.58,6.06-9.52,6.21c-5.41,0.2-7.66-9.87-10.17-13.85c1.886-1.427,2.483-3.997,1.42-6.11
	C768.84,419.03,772.34,418.58,772.41,419.23z"/>
<path fill="#3F3D56" d="M862.15,697.19c-4.255,3.794-9.779,5.853-15.48,5.77c-1.45,0-3.46,0.28-3.47,1.73
	c0.026,0.431,0.171,0.847,0.42,1.2c1.806,3,4.654,5.229,8,6.26c3.1,0.94,6.42,0.78,9.66,0.62l9.45-0.49
	c1.78-0.1,3.57-0.19,5.35-0.41s3.7-0.59,5.56-0.86c4.556-0.651,9.163-0.869,13.76-0.65c1.22,0.05,2.63,0,3.39-0.92
	s0.35-2.58,0.07-3.91c-0.56-2.74,0-5.61-0.52-8.36c-0.91-4.83-5.06-8.52-9.64-10.27c-4.25-1.62-11.79-3.47-15.82-0.78
	C868.56,689.02,865.96,693.74,862.15,697.19z"/>
<path fill="#464353" d="M871.51,535.58c0.84,4,4.67,7,4.79,11c0.09,3.24-2.23,6-3.89,8.75c-1.586,2.881-2.924,5.892-4,9
	c-3.156,8.067-7.067,15.818-11.68,23.15c-2.22,3.51-4.7,7.33-4.19,11.46c0.349,1.927,1.026,3.781,2,5.48l6.65,13.21
	c1.461,2.639,2.602,5.442,3.4,8.35c0.57,2.51,0.63,5.11,1,7.67c1.05,8.1,4.85,16.26,2.61,24.11c-0.2,0.68-0.9,1.5-1.43,1
	c2.19,4.1,4,8.24,3.79,12.89c-0.09,2.44-0.84,5,0.07,7.26c0.515,0.88,0.855,1.851,1,2.86c0,0.66-0.31,1.29-0.38,2
	c-0.18,1.87,1.53,3.43,3.32,4s3.72,0.55,5.52,1.09c3.47,1,5.93,4,8.9,6.08c3.008,2.086,6.561,3.244,10.22,3.33
	c0.519,0.055,1.042-0.049,1.5-0.3c0.53-0.461,0.836-1.128,0.84-1.83c0.324-3.363-1.048-6.666-3.66-8.81
	c-0.559-0.356-1.022-0.844-1.35-1.42c-0.169-0.512-0.213-1.057-0.13-1.59c0.54-7.27,0.41-14.574-0.39-21.82
	c-0.361-2.295-0.478-4.621-0.35-6.94c0.2-1.93,0.78-3.85,0.56-5.78s-1.19-3.67-1.77-5.53c-1-3.3-0.74-6.84-0.85-10.3
	c-0.18-6-1.55-11.88-2.92-17.72c-0.53-2.29-1.13-4.7-2.76-6.4c-1.38-1.44-3.61-2.83-3.09-4.75c0.284-0.711,0.713-1.355,1.26-1.89
	c1.303-1.629,1.878-3.723,1.59-5.79c1.207,0.321,2.471-0.269,3-1.4c10.81-5.09,19.55-15.29,23.4-26.61
	c0.216-0.835,0.553-1.633,1-2.37c1-1.4,2.74-2,4.28-2.78c4.84-2.43,8.19-7,11.26-11.47c1.79-2.6,3.57-5.28,4.34-8.33
	c0.421-1.972,0.622-3.984,0.6-6l0.27-10.42c0.054-0.673-0.013-1.351-0.2-2c-0.254-0.622-0.636-1.184-1.12-1.65
	c-2.932-3.123-6.787-5.225-11-6c-2.84-0.51-5.74-0.41-8.61-0.65c-5.57-0.46-11.07-2.18-16.64-1.78
	c-8.76,0.64-16.55,6.71-20.68,14.46C876.14,533.17,874.62,535.58,871.51,535.58z"/>
<path fill="#008000" d="M822.91,467.82c0.127,1.607-0.088,3.222-0.63,4.74c-0.68,1.46-2.4,2.59-3.89,2c0.45-1-0.75-2.19-1.86-2.06
	c-1.115,0.248-2.035,1.03-2.46,2.09c-0.746,1.486-0.995,3.172-0.71,4.81c0.35,2,1.53,4,1.22,6c-0.25,1.7-1.5,3.4-0.83,5
	c0.431,0.719,0.971,1.367,1.6,1.92c1.826,2.238,1.575,5.515-0.57,7.45l16.78,0.33c-0.61,2.81,0.64,5.68,2.08,8.17
	c8.169,13.874,22.36,23.125,38.35,25c-1.593,0.941-2.122,2.995-1.181,4.588c0.11,0.186,0.237,0.361,0.381,0.522
	c1.36,1.35,3.67,1.18,5.38,0.3s3.06-2.33,4.62-3.45c2.752-1.961,6.115-2.869,9.48-2.56c2.1,0.2,4.14,0.88,6.25,1
	c6.22,0.33,11.56-4.14,17.51-6c4.36-1.34,9.29-1.34,13-4.06c1.58-1.17,2.87-3.09,2.41-5c-0.39-1.096-1.007-2.098-1.81-2.94
	c-2.11-2.72-3.35-6-4.85-9.09c-2.992-6.124-7.106-11.633-12.13-16.24c-3.784-3.317-7.794-6.368-12-9.13
	c-1.024-0.764-2.115-1.433-3.26-2c-1.527-0.498-3.018-1.102-4.46-1.81c-2-1.24-3.11-3.43-4.62-5.2c-3.33-3.88-8.44-5.67-12.54-8.72
	c-2.75-2-5.17-4.74-8.46-5.73c-1.59-0.48-3.29-0.52-4.89-1c-3.62-1.1-6.26-4.32-9.82-5.62c-2.82-1-5.92-0.76-8.9-1.13
	c-3.278-0.406-6.41-1.597-9.13-3.47c-0.903-0.728-1.916-1.308-3-1.72c-4.49-1.37-4.86,7-5.28,9.91
	C824.02,459.17,822.91,463.45,822.91,467.82z"/>
<path fill="#FBBEBE" d="M827.29,495.92c0.75,8.17-5.42,16.09-3.62,24.1c0.38,1.71,1.12,3.33,1.39,5c0.75,4.75-2.09,9.25-4.8,13.22
	l-23.23,34.1c-0.932,1.499-2.047,2.877-3.32,4.1c-4.45,4-11.11,3.54-16.94,4.72c-4.098,0.833-7.969,2.538-11.35,5
	c-0.305,0.242-0.371,0.679-0.15,1c1.949,2.683,5.129,4.19,8.44,4c0.61,0.81,0,2-0.84,2.56c-1.25,0.87-3,1.1-3.21,3.22
	c-0.088,0.737,0.059,1.482,0.42,2.13c0.943,1.429,2.401,2.439,4.07,2.82c8,2.46,16.73-1.86,22.75-7.74s10.34-13.3,16.26-19.29
	c3.27-3.31,7-6.15,10.35-9.36c6.73-6.4,11.95-14.19,17-22c1.649-2.266,2.894-4.8,3.68-7.49c0.62-2.66,0.34-5.47,1.06-8.11
	c0.94-3.45,3.47-6.21,5.57-9.1c4.13-5.68,6.88-12.62,6.33-19.62s-4.87-13.89-11.47-16.27c-2.045-0.82-4.301-0.957-6.43-0.39
	c-2.7,0.83-4.7,3.07-6.55,5.21l-4.41,5.09c-1.099,1.124-1.969,2.453-2.56,3.91c-0.584,1.494-0.231,3.192,0.9,4.33"/>
<path fill="#008000" d="M839.05,462.35c-3.06,0.18-6.42,0.48-8.58,2.66c-0.9,1.001-1.629,2.143-2.16,3.38
	c-2.09,4.27-4.13,8.73-4.28,13.48c-0.13,3.8,1,7.51,1.55,11.27c0.48,3.12-0.74,6.3-1,9.46c3.79-1.16,8.79-2.74,12.23-4.7
	c2.254-1.475,4.649-2.721,7.15-3.72c3.65-1.21,9.78,0.87,13.22,2.58c0.19-2.44-1.63-6.67-1.44-9.11c0.03-1.021,0.212-2.032,0.54-3
	c0.518-1.025,1.131-1.999,1.83-2.91c2.721-4.404,2.289-10.061-1.07-14c-3.07-3.46-7.89-4.76-12.48-5.29
	c-2.894-0.338-5.81-0.442-8.72-0.31"/>
<linearGradient id="SVGID_1_" gradientUnits="userSpaceOnUse" x1="308.472" y1="188.8395" x2="308.472" y2="379.6791" gradientTransform="matrix(1 0 0 -1 -2.69 613.84)">
	<stop  offset="0" style="stop-color:#808080;stop-opacity:0.25"/>
	<stop  offset="0.54" style="stop-color:#808080;stop-opacity:0.12"/>
	<stop  offset="1" style="stop-color:#808080;stop-opacity:0.1"/>
</linearGradient>
<path fill="url(#SVGID_1_)" d="M386,392.39l-19.72-28.6c0,0-0.37-7.08-1.66-8.73s-0.28-5.33-0.28-5.33s1.39-2,0.19-2.21
	c-1.2-0.21-0.19-4.69-0.19-4.69l-0.09-7.17c0,0,1.11-6.9,0.19-8.55c-0.555-0.915-0.52-2.071,0.09-2.95c0,0,1.1-3.95,0-5
	s-0.83-7.17-0.56-12.05c0.27-4.88-1.93-7.63-1.93-8.36s-7.28-7.91-7.28-8.56c0-0.65-4.61-3.31-7.38-4s-4.14-1.29-4.05-1.66
	S339,282.7,339,282.7s-3.87-0.28-5.35-2.21s-6-2.49-6.11-2.51l-0.09-0.38c0-0.14-0.05-0.28-0.08-0.42c0.365-0.582,0.699-1.183,1-1.8
	l0.26-0.56c1.62,0.01,3.202-0.482,4.53-1.41c1.322-1.096,2.123-2.695,2.21-4.41c0.079-1.7-0.294-3.391-1.08-4.9
	c-0.81-1.65-2-3.37-1.58-5.17c0.18-0.77,0.64-1.45,0.88-2.21c0.358-1.484,0.121-3.049-0.66-4.36c-0.7-1.33-1.67-2.51-2.45-3.8
	c-0.989-1.652-1.651-3.478-1.95-5.38c-0.056-1.012-0.296-2.005-0.71-2.93c-0.418-0.652-0.971-1.208-1.62-1.63
	c-2.886-2.059-6.367-3.112-9.91-3c-2.51,0.08-5,0.76-7.5,0.45c-1.489-0.256-2.955-0.638-4.38-1.14c-3.09-0.92-6.66-1.29-9.35,0.48
	s-3.76,5.25-5.59,8c-1.61,2.4-4,4.42-5.2,7c0,0,0-0.1,0-0.14c-0.302,0.587-0.534,1.208-0.69,1.85c-0.343,2.037-0.203,4.127,0.41,6.1
	c0.135,1.062,0.668,2.034,1.49,2.72c0.91,0.59,2.16,0.45,3.22,0.64l-0.12,0.52c-2.238,10.718,4.115,21.361,14.61,24.48
	c0,0.19,0,0.37,0,0.56c-0.002,0.528-0.036,1.056-0.1,1.58l0,0c0,0-9.27-1.91-11.76-0.62c-2.49,1.29-7.37,2.3-8.11,3
	s-2.58,0.19-4.24,4.51s-1.84,8.73-4,10.76c-2.16,2.03-3.22,3.4-3.32,4.87c-0.1,1.47,0.28,1.84-0.55,2.3c-0.83,0.46-2,2.39-1.66,3.13
	c0.26,1.035-0.136,2.124-1,2.75c-0.89,0.625-1.381,1.676-1.29,2.76c0,0-0.56,2-1.85,2.49s-2.12,3.49-2.12,3.49l-4.18,4.8l-8.28-9.16
	c-1.295-1.425-3.498-1.537-4.93-0.25l-4.07,3.66c-1.568,0.381-2.986,1.224-4.07,2.42c-0.882,0.915-1.596,1.978-2.11,3.14l-2.22,2
	c-1.434,1.777-1.663,4.24-0.58,6.25l5.31,5.87v0.05c-1.881,0.166-3.669,0.894-5.13,2.09c-7.92,7-8,13.43-6.82,16.37
	s11.24,14.25,11.24,14.25s5.84,7.59,14.27,11.62l0,0l-0.06,0.07c-0.173,0.181-0.337,0.371-0.49,0.57l-0.14,0.18l-0.13,0.18
	l-0.15,0.22c-0.04,0.058-0.077,0.118-0.11,0.18l-0.16,0.26c-0.037,0.058-0.071,0.118-0.1,0.18c-0.07,0.12-0.13,0.24-0.19,0.36
	c-0.022,0.039-0.042,0.079-0.06,0.12c-0.08,0.16-0.16,0.32-0.23,0.5l-0.08,0.18c-0.05,0.12-0.09,0.24-0.14,0.37
	c-0.031,0.078-0.058,0.159-0.08,0.24l-0.12,0.36c-0.033,0.085-0.059,0.172-0.08,0.26c0,0.13-0.08,0.26-0.11,0.4
	c-0.03,0.14-0.05,0.16-0.07,0.25c-0.02,0.09-0.1,0.43-0.14,0.66c0,0.08,0,0.17-0.05,0.26c-0.05,0.09-0.05,0.31-0.08,0.47
	c-0.03,0.16,0,0.22,0,0.34l-0.06,0.45v0.36c0,0.17,0,0.34-0.05,0.52s0,0.21,0,0.32c0,0.29,0,0.58,0,0.89
	c-0.18,10.76,0.45,12.32,0.45,12.32c0.838,2.024,2.712,3.431,4.89,3.67c0.525,0.041,1.052,0.014,1.57-0.08c4.8-0.83,16-2.76,20-2
	c2.39,0.44,6.8-0.22,9.94-0.81l0.83-0.16l0.57,1.83l1.82-0.5l1.55,0.89l1,0.57c1.82,6.16,9.2,4.06,9.2,4.06l1.75,1l17.79,0.46
	c1.997,1.203,4.107,2.208,6.3,3c0.29,0.095,0.588,0.161,0.89,0.2c1.663,0.135,3.333,0.165,5,0.09c1.36,0,2.41-0.09,2.41-0.09
	s-0.18-4.83-0.44-10.24c5.515-0.136,11.017-0.587,16.48-1.35c9.5-1.66,13.46-10.3,14.92-14.92c0.437,1.887,0.748,3.802,0.93,5.73
	c0.388,1.696,0.883,3.366,1.48,5c0.509,1.306,1.181,2.542,2,3.68c7-2.39,2.76-6,1.29-7.54c-1.47-1.54,1-2.85,1-2.85
	s1.94-1.29,1.75-2.48s-0.28-2.48,6-2.39C386.39,397.6,386,392.39,386,392.39z M288.68,333.68c0.08,0.52,1,6.19,1.74,7.68
	c0.221,0.984,0.292,1.995,0.21,3c-3.71-0.3-7.58-0.46-7.58-0.46c0.109,0.135,0.178,0.298,0.2,0.47l-0.59-0.13l-0.84-0.2l6.84-10.41
	L288.68,333.68z M275.12,355.24l6.43,1l0.54,0.08c-0.182,0.991-0.292,1.993-0.33,3c0,0.1,0.14,0.21,0.35,0.34
	c-0.09,0.505-0.13,1.017-0.12,1.53c0.1,0.5,3.1,1.6,6.55,2.51c-0.05,0.19-0.09,0.37-0.14,0.53l0,0c-3.05-1.6-7.84-2.35-8.39-3.54
	s-16.87-6.89-16.87-6.89l-1.62-0.81l4.29,0.81l1.18-0.12C269.663,354.376,272.379,354.897,275.12,355.24z"/>
<path fill="#65617D" d="M365.02,396.39c0,0-2.55,15.44-15.52,17.72c-12.97,2.28-56.27,1.83-56.27,1.83s-24.76-3.57-33.71-24.48
	c-8.95-20.91-14.71-29.24-7-29.6c7.71-0.36,49.06,14,51.43,14.16C306.32,376.18,367.31,344.23,365.02,396.39z"/>
<path opacity="0.05" enable-background="new    " d="M365.02,396.39c0,0-2.55,15.44-15.52,17.72c-12.97,2.28-56.27,1.83-56.27,1.83
	s-24.76-3.57-33.71-24.48c-8.95-20.91-14.71-29.24-7-29.6c7.71-0.36,49.06,14,51.43,14.16
	C306.32,376.18,367.31,344.23,365.02,396.39z"/>
<path fill="#3F3D56" d="M248.91,413.58c0.819,2.014,2.678,3.416,4.84,3.65c0.525,0.032,1.052,0.002,1.57-0.09
	c4.75-0.82,15.89-2.74,19.82-2c2.36,0.43,6.73-0.22,9.84-0.8c2.07-0.39,3.59-0.76,3.59-0.76s-3.66-12.15-4.11-12.51
	c-0.45-0.36-16.45-10-16.45-10l-12.66-0.91l0,0c-1.704,0.255-3.245,1.157-4.3,2.52c-1.33,1.62-2.48,4.27-2.56,8.62
	C248.28,412.01,248.91,413.58,248.91,413.58z"/>
<path opacity="0.05" enable-background="new    " d="M248.91,413.58c0.819,2.014,2.678,3.416,4.84,3.65
	c-1.24-1.601-2.388-3.27-3.44-5l0.07-8.86c-0.51-4.928,1.345-9.806,5-13.15l0,0c0,0-6.67,0.45-6.86,11.14
	S248.91,413.58,248.91,413.58z"/>
<path opacity="0.1" enable-background="new    " d="M303.82,394.2l11.79-9.23l18.54-18.27l-5-0.23c-0.75,0.48-2.85,2-2.93,3.82
	c-0.09,2.23-5,0.16-7.57,1.43c-2.57,1.27-15.07,17.3-17.26,17.19s-3.93-1.11-4.85,0.45l-0.06,0.1L303.82,394.2z"/>
<path opacity="0.1" enable-background="new    " d="M251.02,392.7c0.42,0.2,0.85,0.4,1.28,0.58c8.95,3.84,20,11.88,20.83,13.34
	c0.5,0.89,6.91,4.78,11.85,7.7c2.07-0.39,3.59-0.76,3.59-0.76s-3.66-12.15-4.11-12.51c-0.45-0.36-16.45-10-16.45-10l-12.66-0.91l0,0
	C253.629,390.398,252.075,391.316,251.02,392.7z"/>
<path fill="#65617D" d="M226.18,366.52c1.18,2.92,11.14,14.16,11.14,14.16s6.3,8.22,15.26,12c8.96,3.78,20,11.88,20.82,13.34
	c0.53,0.94,7.67,5.24,12.69,8.19l1.13,0.66l2.49,1.45l1.32,0.75c0,0,3.06-2.45,6.11-4.92c3.05-2.47,6-4.89,6-5s1.28-3.38,1-3.56
	s-0.77-1.36-1.93-2.83c-1.224-1.63-2.818-2.946-4.65-3.84c-2.65-1.362-4.764-3.578-6-6.29c0,0-0.4-0.29-1-0.68
	c-1.244-0.855-2.633-1.475-4.1-1.83c-2-0.25-5.76-4.36-5.76-4.36c-1.462-0.952-2.681-2.233-3.56-3.74c-1-2-15.13-11.74-16.44-12.64
	l34.34,22.06l8.22,5.28l11.79-9.22l18.54-18.27l-6.12-0.28c-9-0.39-25-1-27-0.54c-1.638,0.377-3.326,0.489-5,0.33
	c0,0-4.56,0.2-7.58-1.39s-7.77-2.34-8.32-3.52s-16.71-6.84-16.71-6.84s-22-11.69-29.87-4.75S224.99,363.58,226.18,366.52z"/>
<path fill="#EE8E9E" d="M297.15,299.47l2.83,9.41l3.66,21.19l13.43,0.91l3.84-6.4l3.88-6.44c0,0,2.42-8.56,4.16-16.84
	c1.53-7.33,2.54-14.45,0.87-15.22c-1.49-0.68-2.46-3.15-3.1-5.81c-0.08-0.32-0.15-0.66-0.21-1c-0.448-2.248-0.749-4.523-0.9-6.81
	c0,0-28.13-1.46-24.2,10.14c0.701,1.982,1.06,4.068,1.06,6.17c0,0.54,0,1.07-0.1,1.57
	C301.976,293.977,300.084,297.285,297.15,299.47z"/>
<path fill="#E3E8F4" d="M291.31,297.92l1,16l2.28,13.61l2.56,6.31l2.29,34.48c0,0,22,2.55,27.38-0.05
	c0.397-0.152,0.743-0.412,1-0.75c6.47-9.77,4.35-38.07,4.35-38.07l2.46-18.27l-1.64-9.48l-4-0.42l-3.06-0.33
	c0,0-0.69,0.85-1.69,2.17c-2.71,3.57-7.69,10.61-7.35,13.54c0.45,4-0.55,8.13-2.11,8.77c-1.56,0.64-2.83,1.74-3.1,0.64
	c-0.389-0.922-0.486-1.941-0.28-2.92c0.28-1.56-1.19-6.31-1.19-6.31s-2.46-5.57-2.28-7.94s-0.27-5.12-1-5.76s-1.74-1.28-0.92-4.2
	c0.82-2.92-3.6-8.61-3.6-8.61L291.31,297.92z"/>
<path opacity="0.1" enable-background="new    " d="M320.4,337.84l0.92,27.31l5.27,2.93c0.396-0.159,0.741-0.421,1-0.76
	c6.47-9.77,4.35-38.07,4.35-38.07l2.47-18.27l-1.65-9.48l-4-0.42c1.54-7.33,2.54-14.44,0.87-15.22c-1.49-0.68-2.46-3.15-3.09-5.8
	l0,0l-2.85,19.32c0,0,0.24,1.74,0.32,3.54c0.118,1.138,0.041,2.288-0.23,3.4c-0.369,1.495-0.431,3.05-0.18,4.57
	c-1.65,2.9-2.47,8.28-2.87,13.47C320.19,331.26,320.4,337.84,320.4,337.84z"/>
<path fill="#3F3D56" d="M326.62,279.58c0,0,4.61,0.57,6.07,2.49s5.3,2.2,5.3,2.2s4.38,1.46,4.29,1.82c-0.09,0.36,1.28,0.92,4,1.65
	s7.31,3.38,7.31,4s7.21,7.76,7.21,8.49s2.19,3.47,1.92,8.31c-0.27,4.84-0.55,11,0.55,12s0,4.93,0,4.93
	c-0.604,0.874-0.639,2.021-0.09,2.93c0.91,1.64-0.19,8.49-0.19,8.49l0.1,7.13c0,0-1,4.47,0.18,4.66s-0.18,2.19-0.18,2.19
	s-1,3.65,0.27,5.3c1.27,1.65,1.64,8.67,1.64,8.67l19.55,28.41c0,0,0.28,5.21-5.93,5.12c-6.21-0.09-6.13,1.19-5.94,2.37
	s-1.74,2.47-1.74,2.47s-2.46,1.28-1,2.83s5.66,5.12-1.28,7.49c-0.818-1.128-1.49-2.354-2-3.65c-0.588-1.612-1.076-3.258-1.46-4.93
	c0,0-0.64-6.95-1.92-7.86s-1.1-5.3-1.1-5.3s1.83-3.56-0.73-5s-39.64-22-39.64-22l-0.9-27.32c0,0-0.64-20.19,3.2-26.95
	c-0.251-1.52-0.189-3.075,0.18-4.57c0.64-1.64-0.09-6.94-0.09-6.94L326.62,279.58z"/>
<path opacity="0.1" enable-background="new    " d="M302.68,290.58c0,0-9.18-1.89-11.65-0.61s-7.3,2.28-8,3
	c-0.7,0.72-2.55,0.19-4.2,4.48c-1.65,4.29-1.82,8.68-3.93,10.69s-3.19,3.38-3.28,4.84c-0.09,1.46,0.27,1.83-0.55,2.28
	s-2,2.38-1.65,3.11s19,16.81,19,16.81s0.92,6.12,1.74,7.67c0.82,1.55-0.91,22.93-2.74,24.39s12.29,1.34,12.29,1.34
	s0.64-14,1.19-14.76s-0.37-15.71-0.37-15.71s-0.09-12.79,1.1-16.17s1-14.62,1-14.62s1.05-6.74,2.33-8.31
	S302.68,290.58,302.68,290.58z"/>
<path fill="#3F3D56" d="M302.41,290.31c0,0-9.18-1.89-11.65-0.62s-7.31,2.29-8,3c-0.69,0.71-2.56,0.18-4.2,4.48
	c-1.64,4.3-1.83,8.67-3.93,10.68c-2.1,2.01-3.2,3.38-3.29,4.84c-0.09,1.46,0.28,1.83-0.55,2.29s-2,2.37-1.64,3.1
	c0.36,0.73,19,16.81,19,16.81s0.91,6.12,1.74,7.67c0.83,1.55-0.92,22.93-2.75,24.39s12.34,1.33,12.34,1.33s0.64-14,1.18-14.75
	s-0.36-15.72-0.36-15.72s-0.09-12.78,1.1-16.16s1.05-14.62,1.05-14.62s1.05-6.74,2.33-8.31S302.41,290.31,302.41,290.31z"/>
<path opacity="0.1" enable-background="new    " d="M301.45,282.58c0.701,1.982,1.06,4.068,1.06,6.17c9.232,2.704,19.12-1.21,24-9.5
	c-0.448-2.248-0.749-4.523-0.9-6.81C325.61,272.44,297.52,270.97,301.45,282.58z"/>
<path fill="#EE8E9E" d="M287.56,268.14c-0.008,11.559,9.357,20.936,20.916,20.944s20.936-9.357,20.944-20.916
	s-9.357-20.936-20.916-20.944c-9.883-0.007-18.423,6.901-20.484,16.566C287.714,265.22,287.559,266.678,287.56,268.14z"/>
<path fill="#3F3D56" d="M274.13,316.58l-5,1.55c0.262,1.032-0.135,2.119-1,2.74c-0.886,0.618-1.371,1.665-1.27,2.74
	c0,0-0.55,2-1.83,2.47c-1.28,0.47-2.1,3.47-2.1,3.47l-4.2,4.84c0,0-1.56,1.28-1.28,1.92s-1.65,0.82-1.65,0.82l1,16.26l8.68,1.65
	l5.39-0.55l4.38-1.64l3.84-2.29l1.73-4.47l7.68-11.7L274.13,316.58z"/>
<path fill="#EE8E9E" d="M257.05,338.38c0,0-11.14-16.07-19.46-7.4c-8.32,8.67,3.38,22.75,6.12,22.29
	c2.74-0.46,15.81-1.19,15.81-1.19L257.05,338.38z"/>
<path fill="#3F3D56" d="M234.084,306.314l49.211,25.117c0.758,0.387,1.058,1.314,0.672,2.072l-19.189,37.596
	c-0.387,0.758-1.314,1.058-2.072,0.672l-49.211-25.117c-0.758-0.387-1.058-1.314-0.672-2.072l19.189-37.596
	C232.399,306.228,233.326,305.927,234.084,306.314z"/>
<rect x="223.968" y="320.5" transform="matrix(-0.8907 -0.4546 0.4546 -0.8907 315.7017 753.8602)" fill="#008000" width="49.03" height="36.95"/>
<circle fill="#E6E8EC" cx="224.97" cy="326.96" r="0.8"/>
<circle fill="#E6E8EC" cx="272.24" cy="351.18" r="1.33"/>
<path fill="#EE8E9E" d="M249.84,341.76c-0.1,12.06,24.84,14.62,24.84,14.62l6.37,1l2.86,0.45l1.19-11.78c0,0-1.31-0.2-2.94-0.58
	c-2.42-0.56-5.55-1.53-6.2-2.9C274.91,340.3,249.91,329.7,249.84,341.76z"/>
<path opacity="0.1" enable-background="new    " d="M288.02,263.79c0.573,0.042,1.114,0.283,1.53,0.68c0.7,0.75,0.74,2.08,1.66,2.54
	c0.344,0.145,0.723,0.187,1.09,0.12c2.43-0.34,3.83-3.08,6.17-3.84c1.36-0.35,2.799-0.226,4.08,0.35
	c0.52,0.169,0.989,0.468,1.36,0.87c0.78,1,0.23,2.5,0.59,3.72c0.5,1.7,2.53,2.37,4.28,2.59c1.75,0.22,3.73,0.35,4.9,1.67
	c0.783,1.001,1.1,2.29,0.87,3.54c-0.105,0.43-0.105,0.88,0,1.31c0.48,1.37,2.85,1.16,3.47,0.08c0.46-0.79,0.32-1.44,1.39-1.66
	c0.764-0.061,1.532,0.073,2.23,0.39c1.862,0.639,3.822,0.94,5.79,0.89c4.905-10.461,0.401-22.917-10.06-27.822
	s-22.917-0.401-27.822,10.06c-0.676,1.441-1.185,2.955-1.517,4.512H288.02z"/>
<path fill="#3F3D56" d="M314.54,276.79c-0.105-0.43-0.105-0.88,0-1.31c0.231-1.247-0.086-2.533-0.87-3.53
	c-1.17-1.33-3.14-1.45-4.9-1.68s-3.78-0.89-4.28-2.59c-0.36-1.22,0.19-2.71-0.59-3.71c-0.365-0.409-0.836-0.71-1.36-0.87
	c-1.28-0.579-2.718-0.706-4.08-0.36c-2.34,0.76-3.74,3.5-6.17,3.84c-0.367,0.072-0.747,0.03-1.09-0.12c-0.92-0.46-1-1.79-1.66-2.54
	c-1.11-1.17-3.22-0.41-4.57-1.28c-0.819-0.683-1.348-1.652-1.48-2.71c-0.605-1.961-0.742-4.036-0.4-6.06
	c0.79-3.39,3.83-5.72,5.76-8.63c1.81-2.7,2.83-6.12,5.54-7.91s6.2-1.39,9.27-0.48c1.411,0.504,2.863,0.885,4.34,1.14
	c2.47,0.3,4.95-0.37,7.43-0.45c3.515-0.114,6.969,0.941,9.82,3c0.643,0.419,1.189,0.972,1.6,1.62c0.412,0.919,0.656,1.905,0.72,2.91
	c0.292,1.888,0.948,3.701,1.93,5.34c0.76,1.29,1.73,2.45,2.42,3.78c0.771,1.304,1.008,2.856,0.66,4.33c-0.24,0.75-0.7,1.43-0.88,2.2
	c-0.4,1.78,0.77,3.49,1.57,5.13c0.778,1.501,1.148,3.181,1.07,4.87c-0.086,1.702-0.88,3.29-2.19,4.38
	c-1.358,0.942-2.977,1.435-4.63,1.41c-2.004,0.061-4.003-0.241-5.9-0.89c-0.7-0.312-1.466-0.446-2.23-0.39
	c-1.07,0.22-0.93,0.87-1.39,1.66C317.39,277.95,315.03,278.16,314.54,276.79z"/>
<path opacity="0.1" enable-background="new    " d="M303.27,394.74l11.79-9.22l18.54-18.27l-6.12-0.28
	c-0.719,0.65-1.177,1.538-1.29,2.5c-0.09,2.23-5,0.15-7.57,1.43c-2.57,1.28-15.07,17.3-17.26,17.19s-3.93-1.11-4.85,0.44l-0.06,0.1
	c-0.365,0.42-0.856,0.712-1.4,0.83L303.27,394.74z"/>
<path fill="#65617D" d="M279.52,394.1l5.92,18.91l0.93,3l2.82-0.77l6.22-1.71l27.68-7.6c3.487-0.151,6.899-1.059,10-2.66
	c5.233-2.932,11.221-4.238,17.2-3.75c3.66,0.34,7.73-1.24,11.11-7.48c0,0,7.67-22.65-11.69-29.14s-20.29,3.45-20.29,3.45l-0.27,0.16
	c-0.75,0.48-2.85,2-2.93,3.82c-0.09,2.23-5,0.16-7.57,1.43c-2.57,1.27-15.07,17.3-17.26,17.19s-3.93-1.11-4.85,0.45l-0.06,0.1
	c-0.68,0.93-2.71,1.15-4.06,1.18c-0.42,0.022-0.84,0.022-1.26,0l-0.18,0.05l-1.4,0.42L279.52,394.1z"/>
<path opacity="0.1" enable-background="new    " d="M281.05,357.39l2.86,0.45l1.19-11.78c0,0-1.31-0.2-2.94-0.58
	C282.59,347.13,281.61,353.48,281.05,357.39z"/>
<path opacity="0.1" enable-background="new    " d="M355.75,302.33c0,0,8.49-2.47,6.39,21.65
	c-1.458,14.721-7.716,28.555-17.81,39.37c0,0-18.09,7.94-26.22,6.66c-8.13-1.28-14.06-1.55-14.06-1.55
	c-2.562-1.293-5.364-2.039-8.23-2.19c-4.56-0.18-14.15-3-14.34-3.93s2.38-14.34,1.28-15.34c0,0,12.79,0.52,14.07,1.44
	c1.28,0.92,3.11,0.27,4.48,0c1.37-0.27,5.57-3.91,13.88-0.71c0,0,2.83,0.27,3.93-0.46c0.897-0.418,1.918-0.482,2.86-0.18
	c0.711-0.236,1.384-0.573,2-1c0.27-0.36,2.47,0,2.47,0c0.504,0.225,1.096-0.001,1.321-0.505c0.02-0.044,0.036-0.089,0.049-0.135
	c0.289-0.745,0.724-1.425,1.28-2c0,0,2.46-13.88,7.12-19.09c0.756-0.66,1.131-1.655,1-2.65
	C336.84,320.23,344.79,299.4,355.75,302.33z"/>
<path fill="#3F3D56" d="M355.52,300.47c0,0,8.5-2.46,6.4,21.65c-1.454,14.722-7.713,28.557-17.81,39.37c0,0-18.09,7.95-26.22,6.67
	c-8.13-1.28-14.07-1.58-14.07-1.58c-2.558-1.294-5.357-2.04-8.22-2.19c-4.57-0.19-14.16-3-14.34-3.93s2.37-14.34,1.28-15.35
	c0,0,12.79,0.53,14.07,1.45c1.28,0.92,3.1,0.26,4.47,0s5.57-3.91,13.89-0.72c0,0,2.83,0.28,3.92-0.45
	c0.897-0.414,1.916-0.482,2.86-0.19c0.709-0.242,1.381-0.578,2-1c0.27-0.37,2.46,0,2.46,0c0.504,0.225,1.096-0.001,1.321-0.505
	c0.02-0.044,0.036-0.089,0.049-0.135c0.289-0.745,0.724-1.425,1.28-2c0,0,2.47-13.88,7.13-19.09c0.756-0.66,1.131-1.655,1-2.65
	C336.62,318.38,344.56,297.58,355.52,300.47z"/>
<path opacity="0.1" enable-background="new    " d="M289.55,391.1l12.06,14.6l0.08-0.08c0.09-0.28,1.28-3.38,1-3.57
	s-2.37-4.75-6.57-6.67c-2.136-1.042-3.93-2.672-5.17-4.7L289.55,391.1z"/>
<path opacity="0.1" enable-background="new    " d="M289.71,416.37l1.32,0.75c0,0,3.06-2.45,6.11-4.92c3.05-2.47,6-4.89,6-5
	s1.28-3.38,1-3.56s-0.77-1.36-1.93-2.83c-8.18-2.29-3,3.39-2.28,3.65c0,0-9.95-2.29-10.5,8.56
	C289.383,414.144,289.477,415.27,289.71,416.37z"/>
<path fill="#3F3D56" d="M299.8,420.96l1.74,1l17.63,0.45c1.977,1.202,4.067,2.207,6.24,3c0.288,0.086,0.582,0.149,0.88,0.19
	c1.636,0.134,3.28,0.164,4.92,0.09c1.35,0,2.39-0.09,2.39-0.09s-0.83-22.23-1.46-24.57c-0.3-1.12-1.78-0.88-3.24-0.32
	c-1.094,0.448-2.151,0.983-3.16,1.6c0,0-7.48,0.73-8.67,1.37c-1.19,0.64-4.57-0.37-6.67,0s-5.85-2.47-5.85-2.47
	c-10.23-3.38-4.47,2.92-3.74,3.2c0,0-10-2.29-10.51,8.56C289.79,423.82,299.8,420.96,299.8,420.96z"/>
<path fill="#565387" d="M325.29,412.38c0.19,4.6,3.78,10.31,5.92,13.33c1.35,0,2.39-0.09,2.39-0.09s-0.83-22.23-1.46-24.57
	c-0.3-1.12-1.78-0.88-3.24-0.32C327.13,404.05,325.13,408.66,325.29,412.38z"/>
<path opacity="0.1" enable-background="new    " d="M325.29,412.38c0.19,4.6,3.78,10.31,5.92,13.33c1.35,0,2.39-0.09,2.39-0.09
	s-0.83-22.23-1.46-24.57c-0.3-1.12-1.78-0.88-3.24-0.32C327.13,404.05,325.13,408.66,325.29,412.38z"/>
<path opacity="0.05" enable-background="new    " d="M322.27,412.99c1.22,4.44,1.2,9.42,3.14,12.44
	c0.288,0.086,0.582,0.149,0.88,0.19c1.636,0.134,3.28,0.164,4.92,0.09c1.35,0,2.39-0.09,2.39-0.09s-0.83-22.23-1.46-24.57
	c-0.3-1.12-1.78-0.88-3.24-0.32c-1.094,0.448-2.151,0.983-3.16,1.6C325.74,402.33,320.72,407.3,322.27,412.99z"/>
<path opacity="0.1" enable-background="new    " d="M261.45,367.92c0,0,8.76,2.84,16.18,12.94L261.45,367.92z"/>
<g opacity="0.1">
	<path d="M332.61,258.3c0,0.07,0,0.13-0.05,0.2c-0.084,0.261-0.188,0.515-0.31,0.76C332.346,258.932,332.467,258.611,332.61,258.3z"
		/>
	<path d="M283.07,253.87c0.148-0.639,0.377-1.258,0.68-1.84c0,0.15-0.1,0.31-0.14,0.47c-0.333,2.025-0.193,4.099,0.41,6.06
		c0.133,1.056,0.657,2.023,1.47,2.71c1.36,0.87,3.47,0.11,4.58,1.28c0.7,0.75,0.74,2.08,1.66,2.54c0.343,0.15,0.723,0.192,1.09,0.12
		c2.43-0.34,3.83-3.08,6.17-3.84c1.361-0.351,2.801-0.223,4.08,0.36c0.524,0.16,0.995,0.461,1.36,0.87c0.78,1,0.23,2.49,0.59,3.71
		c0.5,1.7,2.53,2.37,4.28,2.59c1.75,0.22,3.73,0.35,4.9,1.68c0.784,0.997,1.101,2.283,0.87,3.53c-0.105,0.43-0.105,0.88,0,1.31
		c0.48,1.37,2.85,1.16,3.47,0.08c0.46-0.79,0.32-1.44,1.39-1.66c0.764-0.056,1.53,0.078,2.23,0.39c1.897,0.65,3.896,0.951,5.9,0.89
		c1.653,0.025,3.272-0.468,4.63-1.41c0.594-0.466,1.078-1.057,1.42-1.73c-0.309,1.225-1.012,2.314-2,3.1
		c-1.358,0.942-2.977,1.435-4.63,1.41c-2.004,0.061-4.003-0.24-5.9-0.89c-0.7-0.312-1.466-0.446-2.23-0.39
		c-1.07,0.22-0.93,0.87-1.38,1.66c-0.63,1.08-3,1.29-3.48-0.08c-0.1-0.431-0.1-0.879,0-1.31c0.231-1.247-0.086-2.533-0.87-3.53
		c-1.17-1.33-3.14-1.45-4.9-1.68s-3.78-0.89-4.28-2.59c-0.36-1.22,0.19-2.71-0.59-3.71c-0.363-0.407-0.829-0.708-1.35-0.87
		c-1.283-0.579-2.725-0.706-4.09-0.36c-2.33,0.76-3.74,3.5-6.17,3.84c-0.367,0.072-0.747,0.03-1.09-0.12
		c-0.92-0.46-1-1.79-1.66-2.54c-1.11-1.17-3.21-0.41-4.57-1.28c-0.819-0.683-1.348-1.652-1.48-2.71
		C282.845,257.967,282.719,255.891,283.07,253.87z"/>
</g>
<path opacity="0.1" enable-background="new    " d="M334.03,326.99c-1.68,2.26-3.59,4.35-5.07,6.73c-1.608,2.346-2.389,5.161-2.22,8
	c1.53-1.57,2.24-3.75,3.2-5.72c1.64-3.34,4.08-6.17,6.15-9.23c0.39-0.59,2.91-4,1.64-4.14C336.67,322.48,334.6,326.22,334.03,326.99
	z"/>
<path fill="#A1616A" d="M343.03,540.96c1.21,3.88,2.43,7.77,3.94,11.54c2.721,6.554,6.144,12.794,10.21,18.61
	c2.621,3.829,5.439,7.521,8.44,11.06c3.76,4.43,8,8.89,9.28,14.55c0.77,3.27,0.51,6.68,0.83,10s1.41,6.88,4.12,8.88
	c1.93,1.43,4.4,1.86,6.77,2.23c1.7,0.27,3.82,0.36,4.7-1.11c0.308-0.6,0.469-1.265,0.47-1.94l0.41-4.89
	c0.08-1.06,0.46-2.41,1.52-2.46s1.59,1.36,2.49,2c1.2,0.84,3,0,3.66-1.27c0.548-1.375,0.584-2.901,0.1-4.3
	c-1.473-5.63-5.283-10.361-10.47-13c-1.781-0.718-3.489-1.606-5.1-2.65c-1.637-1.423-2.993-3.139-4-5.06
	c-9.28-15.28-18.61-30.64-25.16-47.27c-1.291-2.972-2.162-6.108-2.59-9.32c-0.32-3.27,0.19-6.56,0.4-9.84
	c0.388-5.892-0.159-11.809-1.62-17.53c-0.319-1.502-0.883-2.941-1.67-4.26c-2.7-4.09-9-4.7-13-1.88
	c-2.978,2.291-4.857,5.727-5.18,9.47c-0.29,3.32,1.62,6.76,2.59,9.85C337.11,521.91,340.063,531.44,343.03,540.96z"/>
<path opacity="0.05" enable-background="new    " d="M343.03,540.96c1.21,3.88,2.43,7.77,3.94,11.54
	c2.721,6.554,6.144,12.794,10.21,18.61c2.621,3.829,5.439,7.521,8.44,11.06c3.76,4.43,8,8.89,9.28,14.55
	c0.77,3.27,0.51,6.68,0.83,10s1.41,6.88,4.12,8.88c1.93,1.43,4.4,1.86,6.77,2.23c1.7,0.27,3.82,0.36,4.7-1.11
	c0.308-0.6,0.469-1.265,0.47-1.94l0.41-4.89c0.08-1.06,0.46-2.41,1.52-2.46s1.59,1.36,2.49,2c1.2,0.84,3,0,3.66-1.27
	c0.548-1.375,0.584-2.901,0.1-4.3c-1.473-5.63-5.283-10.361-10.47-13c-1.781-0.718-3.489-1.606-5.1-2.65
	c-1.637-1.423-2.993-3.139-4-5.06c-9.28-15.28-18.61-30.64-25.16-47.27c-1.291-2.972-2.162-6.108-2.59-9.32
	c-0.32-3.27,0.19-6.56,0.4-9.84c0.388-5.892-0.159-11.809-1.62-17.53c-0.319-1.502-0.883-2.941-1.67-4.26c-2.7-4.09-9-4.7-13-1.88
	c-2.978,2.291-4.857,5.727-5.18,9.47c-0.29,3.32,1.62,6.76,2.59,9.85C337.11,521.91,340.063,531.44,343.03,540.96z"/>
<path fill="#514E7F" d="M284.73,704.34c1.809,0.629,3.733,0.861,5.64,0.68c0.14-1.56,2.24-1.91,3.8-1.83
	c0.755-0.025,1.502,0.147,2.17,0.5c0.39,0.25,0.69,0.61,1.07,0.87c0.678,0.371,1.437,0.567,2.21,0.57l8.12,0.68
	c3.62,0.31,7.39,0.59,10.78-0.7c0.675-0.214,1.276-0.616,1.73-1.16c0.92-1.32,0-3.21-1.27-4.17s-2.91-1.39-4.19-2.37
	c-2.82-2.15-3.21-6.17-4.7-9.39c-1.059-2.03-2.366-3.921-3.89-5.63c-1.104-1.467-2.392-2.788-3.83-3.93c-3.26-2.35-7-2.3-10.83-2.64
	c-2.7-0.24-5.24-0.4-7.18,2c-2.4,3-1.44,9-1.29,12.5C283.257,695.029,283.812,699.717,284.73,704.34z"/>
<path opacity="0.05" enable-background="new    " d="M284.73,704.34c1.809,0.629,3.733,0.861,5.64,0.68
	c0.14-1.56,2.24-1.91,3.8-1.83c0.755-0.025,1.502,0.147,2.17,0.5c0.39,0.25,0.69,0.61,1.07,0.87c0.678,0.371,1.437,0.567,2.21,0.57
	l8.12,0.68c3.62,0.31,7.39,0.59,10.78-0.7c0.675-0.214,1.276-0.616,1.73-1.16c0.92-1.32,0-3.21-1.27-4.17s-2.91-1.39-4.19-2.37
	c-2.82-2.15-3.21-6.17-4.7-9.39c-1.059-2.03-2.366-3.921-3.89-5.63c-1.104-1.467-2.392-2.788-3.83-3.93c-3.26-2.35-7-2.3-10.83-2.64
	c-2.7-0.24-5.24-0.4-7.18,2c-2.4,3-1.44,9-1.29,12.5C283.257,695.029,283.812,699.717,284.73,704.34z"/>
<path fill="#464353" d="M288.01,546.39c-2.48,0.8-3.56,3.89-3.1,6.46s2,4.79,3.27,7.07c3.62,6.47,5.18,13.87,8.22,20.62
	c2.27,5,5.34,9.7,7.58,14.76s3.63,10.77,2.27,16.14c-0.66,2.61-1.94,5-2.79,7.57c-0.841,2.785-1.391,5.651-1.64,8.55
	c-1.101,9.848-1.299,19.776-0.59,29.66c0.006,1.205,0.258,2.396,0.74,3.5c0.51,1,1.39,2,1,3c-0.17,0.41-0.54,0.71-0.72,1.11
	c-0.52,1.12,0.52,2.31,1.47,3.11c-0.343,0.607-0.916,1.051-1.59,1.23c1.399,0.891,2.049,2.593,1.6,4.19
	c-0.84,0.13-0.89,1.42-0.36,2.1s1.37,1.1,1.75,1.87c0.464,1.302-0.167,2.741-1.44,3.28c-1.249,0.481-2.612,0.585-3.92,0.3
	c-2.217-0.309-4.407-0.79-6.55-1.44c-2.316-0.455-3.944-2.544-3.82-4.9c-0.495-4.07-0.646-8.175-0.45-12.27
	c0.35-19.84,0-39.7-0.86-59.53c-0.35-8-2.75-15.75-5.84-23.11c-1.708-3.761-3.607-7.433-5.69-11c-4.46-8.16-8.4-17.2-7.38-26.45
	c0.11-1,0.47-2.19,1.46-2.35c0.387-0.042,0.778,0.024,1.13,0.19c2.054,0.959,4.042,2.055,5.95,3.28
	C280.845,545.168,284.38,546.218,288.01,546.39z"/>
<path opacity="0.05" enable-background="new    " d="M288.01,546.39c-2.48,0.8-3.56,3.89-3.1,6.46s2,4.79,3.27,7.07
	c3.62,6.47,5.18,13.87,8.22,20.62c2.27,5,5.34,9.7,7.58,14.76s3.63,10.77,2.27,16.14c-0.66,2.61-1.94,5-2.79,7.57
	c-0.841,2.785-1.391,5.651-1.64,8.55c-1.101,9.848-1.299,19.776-0.59,29.66c0.006,1.205,0.258,2.396,0.74,3.5c0.51,1,1.39,2,1,3
	c-0.17,0.41-0.54,0.71-0.72,1.11c-0.52,1.12,0.52,2.31,1.47,3.11c-0.343,0.607-0.916,1.051-1.59,1.23
	c1.399,0.891,2.049,2.593,1.6,4.19c-0.84,0.13-0.89,1.42-0.36,2.1s1.37,1.1,1.75,1.87c0.464,1.302-0.167,2.741-1.44,3.28
	c-1.249,0.481-2.612,0.585-3.92,0.3c-2.217-0.309-4.407-0.79-6.55-1.44c-2.316-0.455-3.944-2.544-3.82-4.9
	c-0.495-4.07-0.646-8.175-0.45-12.27c0.35-19.84,0-39.7-0.86-59.53c-0.35-8-2.75-15.75-5.84-23.11c-1.708-3.761-3.607-7.433-5.69-11
	c-4.46-8.16-8.4-17.2-7.38-26.45c0.11-1,0.47-2.19,1.46-2.35c0.387-0.042,0.778,0.024,1.13,0.19c2.054,0.959,4.042,2.055,5.95,3.28
	C280.845,545.168,284.38,546.218,288.01,546.39z"/>
<path fill="#464353" d="M254.48,522.27c-1.293-0.83-2.785-1.3-4.32-1.36c-1.78,0.09-3.3,1.26-4.69,2.38
	c-1.647,1.264-3.21,2.634-4.68,4.1c-6.198,6.606-8.326,16.054-5.56,24.68c1.47,4.41,4.16,8.3,6.82,12.11l5.4,7.76
	c8.24,11.83,16.48,23.66,25.11,35.21c0.004,0.583,0.384,1.096,0.94,1.27c0.31,0.08,0.7,0.07,0.89,0.33
	c0.088,0.162,0.126,0.346,0.11,0.53c-0.019,0.854-0.182,1.699-0.48,2.5c-0.14,0.264-0.176,0.571-0.1,0.86
	c0.28,0.65,1.46,0.28,1.84,0.89c0.25,0.4-0.06,0.92-0.39,1.26s-0.74,0.72-0.68,1.19s0.88,1,0.85,1.58c0,0.34-0.3,0.6-0.51,0.87
	c-0.607,0.888-0.493,2.082,0.27,2.84c0.57,5.64-2.5,11-3.11,16.62c-1,8.88,3.05,17.55,3.54,26.46
	c-0.029,1.003,0.162,1.999,0.56,2.92c0.83,1.54,3,2.47,2.89,4.22c-0.157,0.719-0.361,1.427-0.61,2.12c-0.17,1,0.31,2,0.33,3
	s-0.87,2.23-1.81,1.83c0.707,2.36,1.337,4.74,1.89,7.14l18.9,1.56c0.204-1.699,0.146-3.419-0.17-5.1c-0.39-1.83-1.21-3.53-1.64-5.34
	c-0.566-1.804-0.295-3.767,0.74-5.35c-1.017,0.012-1.895-0.71-2.08-1.71c-0.158-0.975-0.141-1.971,0.05-2.94
	c0.5-4.93-1.57-9.79-1.51-14.74c0.06-3.9,1.43-7.65,2.12-11.48c1.48-8.2-0.06-17.09,3.59-24.58c2.21-4.51,5.27-9.51,2.79-13.88
	c-1.22-2.16-3.38-3.64-4.79-5.68c-1.149-1.928-2.012-4.013-2.56-6.19c-2.91-9-7.62-17.36-11.75-25.92
	c-1.146-2.146-1.997-4.436-2.53-6.81c-0.292-2.083-0.399-4.188-0.32-6.29c0-3.774-0.23-7.544-0.69-11.29
	c-0.093-1.641-0.562-3.239-1.37-4.67c-0.816-1.083-1.835-1.996-3-2.69C268.56,528.23,261.18,525.8,254.48,522.27z"/>
<path fill="#514E7F" d="M277.13,711.27c1.815,0.621,3.74,0.849,5.65,0.67c0.14-1.56,2.23-1.91,3.79-1.83
	c0.755-0.025,1.502,0.147,2.17,0.5c0.39,0.25,0.69,0.62,1.08,0.87c0.676,0.376,1.437,0.572,2.21,0.57l8.11,0.68
	c3.63,0.31,7.39,0.6,10.79-0.7c0.674-0.211,1.272-0.614,1.72-1.16c0.92-1.32,0-3.2-1.27-4.16s-2.91-1.4-4.18-2.38
	c-2.83-2.15-3.21-6.16-4.71-9.38c-1.049-2.037-2.353-3.932-3.88-5.64c-1.108-1.465-2.399-2.782-3.84-3.92
	c-3.25-2.36-7-2.31-10.82-2.65c-2.71-0.24-5.25-0.39-7.18,2c-2.4,3-1.44,9-1.3,12.51C275.658,701.959,276.213,706.647,277.13,711.27
	z"/>
<circle fill="#A1616A" cx="360.9" cy="470.82" r="18.72"/>
<path fill="#A1616A" d="M343.24,476.38c-2.68,2.31-6.53,2.48-10.05,2.84c-7.527,0.773-14.853,2.894-21.63,6.26
	c-0.938,0.404-1.787,0.989-2.5,1.72c-0.608,0.793-1.041,1.707-1.27,2.68c-0.644,2.106-0.885,4.315-0.71,6.51
	c0.245,2.129,0.858,4.2,1.81,6.12c2.598,5.379,6.607,9.951,11.6,13.23c0.88,0.655,1.878,1.134,2.94,1.41
	c2.46,0.51,4.84-0.91,7.27-1.55c2.21-0.577,4.54-0.504,6.71,0.21c2,0.68,4.19,1.92,6.17,1.09c1.267-0.709,2.252-1.831,2.79-3.18
	c1.912-3.614,3.618-7.333,5.11-11.14c0.536-1.486,1.153-2.942,1.85-4.36c2.17-4.13,5.92-7.32,7.79-11.61
	c0.384-0.663,0.451-1.463,0.18-2.18c-0.347-0.478-0.827-0.843-1.38-1.05c-2.765-1.583-5.285-3.56-7.48-5.87
	c-1.23-1.18-3.49-4.37-5.26-4.65C345.19,472.52,344.59,475.22,343.24,476.38z"/>
<path fill="#008000" d="M343.68,514.42c-2.17,1-4.73,0.57-7.08,0.08c-6.06-1.27-12.19-2.55-17.8-5.17
	c-1.753-0.671-3.271-1.839-4.37-3.36c-0.682-1.301-1.097-2.726-1.22-4.19l-1-7c-0.36-2.43,0.26-4.68,0.32-7.14
	c0.077-0.551-0.071-1.109-0.41-1.55c-0.342-0.288-0.785-0.428-1.23-0.39c-2.81,0.05-4.51,3-6.48,5c-1.139,1.154-2.499,2.066-4,2.68
	c-1.8,0.74-4,1.26-4.75,3.06c-0.3,0.75-0.26,1.6-0.58,2.35c-1.26,3-6.63,2-8,5c-0.39,0.84-0.36,1.89-1,2.55s-1.84,0.65-2.83,0.81
	c-3.91,0.64-5.8,5.15-9.14,7.28c-2.81,1.8-6.43,1.76-9.46,3.16c-1.68,0.78-3.17,2-4.95,2.51s-3.79,0.24-5.7,0.29
	c-0.412-0.039-0.821,0.095-1.13,0.37c-0.24,0.366-0.309,0.819-0.19,1.24c1.884,12.03,9.978,22.173,21.29,26.68
	c0.645,0.205,1.258,0.502,1.82,0.88c1.7,1.27,2,4,3.93,4.9c1.42,0.5,3.001,0.16,4.09-0.88c1.065-1.025,2.067-2.114,3-3.26
	c1.762-1.841,4.075-3.059,6.59-3.47c2.32-0.37,4.91-0.1,6.79-1.53c0.769-0.706,1.484-1.468,2.14-2.28
	c1.393-1.299,3.046-2.288,4.85-2.9c4.929-1.947,10.139-3.092,15.43-3.39c4.93-0.27,10,0.18,14.66-1.42
	c1.21-0.375,2.325-1.006,3.27-1.85c1.002-1.084,1.747-2.379,2.18-3.79C344.401,524.778,344.733,519.504,343.68,514.42z"/>
<path fill="#008000" d="M319.55,486.83c1.38-0.13,2.77,0,4.16,0c1.63,0,3.24-0.4,4.87-0.41c5.298,0.086,9.924,3.607,11.42,8.69
	c0.137,0.396,0.162,0.821,0.07,1.23c-0.111,0.417-0.511,0.689-0.94,0.64c-0.541-1.479-1.249-2.891-2.11-4.21
	c-1.55-2.116-3.759-3.656-6.28-4.38c-2.513-0.712-5.162-0.808-7.72-0.28c-1.07,0.2-2.11,0.48-3.15,0.77l-5,1.38
	c-0.92,0.25-1.85,0.5-2.74,0.83c-0.69,0.26-1.87,1.21-2.55,1.25c-0.92,0-0.18-0.8,0.23-1.34c0.816-1.114,1.959-1.945,3.27-2.38
	C315.158,487.769,317.33,487.168,319.55,486.83z"/>
<path fill="#A1616A" d="M332.17,543.06c1.21,3.88,2.42,7.77,3.94,11.54c2.717,6.556,6.14,12.796,10.21,18.61
	c2.621,3.829,5.439,7.521,8.44,11.06c3.75,4.43,7.94,8.89,9.28,14.54c0.77,3.28,0.51,6.69,0.83,10s1.41,6.88,4.11,8.88
	c1.94,1.42,4.41,1.85,6.78,2.23c1.69,0.27,3.81,0.36,4.7-1.11c0.302-0.603,0.463-1.266,0.47-1.94l0.4-4.89
	c0.09-1.06,0.47-2.41,1.52-2.46s1.6,1.36,2.5,2c1.2,0.84,3,0,3.66-1.27c0.544-1.376,0.579-2.9,0.1-4.3
	c-1.48-5.626-5.288-10.355-10.47-13c-1.783-0.72-3.494-1.608-5.11-2.65c-1.64-1.424-2.997-3.144-4-5.07
	c-9.29-15.27-18.62-30.63-25.16-47.27c-1.29-2.969-2.165-6.102-2.6-9.31c-0.31-3.27,0.19-6.56,0.41-9.84
	c0.388-5.892-0.159-11.809-1.62-17.53c-0.319-1.504-0.886-2.944-1.68-4.26c-2.69-4.1-9-4.7-13-1.88
	c-2.981,2.29-4.864,5.725-5.19,9.47c-0.29,3.32,1.63,6.76,2.59,9.85C326.233,524.007,329.197,533.54,332.17,543.06z"/>
<path fill="#464353" d="M388.13,457.58c0.15-1.56-1.25-3-2.84-4c-1.675-0.858-3.283-1.841-4.81-2.94c-1.42-1.23-2.2-2.83-3.62-4.06
	c-1.614-1.229-3.447-2.142-5.4-2.69c-4.155-1.457-8.517-2.237-12.92-2.31c-4.45,0-9,1-12.35,3.27c-0.827,0.52-1.541,1.2-2.1,2
	c-0.528,0.96-0.868,2.012-1,3.1c-0.798,3.355-1.879,6.637-3.23,9.81c-1.39,3.53-2.87,7.19-6.14,9.92c-3.5,2.91-8.85,4.59-11.16,8.11
	c-0.518,0.634-0.707,1.475-0.51,2.27c0.33,0.89,1.39,1.5,2.37,2.06c5.68,3.26,10.58,7.49,13.1,12.54s2.45,11-1.14,15.65
	c-1.32,1.72-3.14,3.76-1.85,5.49c2,2.63,8.69,1.12,10.25,3.9c0.49,0.89,0.2,1.9,0.2,2.87c0,2.92,2.81,5.51,6.22,6.86
	s7.36,1.67,11.2,1.84c1.019-2.291,1.12-4.887,0.28-7.25c-0.256-0.51-0.357-1.083-0.29-1.65c0.286-0.629,0.731-1.174,1.29-1.58
	c4.1-3.88,3.23-9.58,0.77-14.19s-6.3-8.82-7.73-13.67c-0.71-2.41-0.71-5.12,1.2-7.12c1.096-0.962,2.278-1.822,3.53-2.57
	c2.237-1.518,3.96-3.68,4.94-6.2c1.15-3.19,1-7,4.34-9.15c3.21-2,7.72-1.42,11.27-2.79C384.73,464.02,387.91,459.87,388.13,457.58z"
	/>
<path fill="#008000" d="M602.83,665.996c-1.613-1.327-3.735-2.378-6.169-3.056c-3.003-0.792-6.103-1.429-9.271-1.905v-11.334
	c4.87,0.459,9.437,1.762,13.185,3.762l3.677-4.905c-2.115-1.179-4.543-2.117-7.174-2.774c-2.916-0.739-5.977-1.23-9.102-1.461
	v-5.745h-8.515v5.801c-3.288,0.231-6.46,0.898-9.305,1.955c-2.57,0.952-4.733,2.279-6.305,3.867c-1.5,1.55-2.277,3.332-2.244,5.145
	c-0.147,1.964,0.763,3.902,2.583,5.505c1.675,1.388,3.888,2.485,6.429,3.19c3.05,0.815,6.205,1.469,9.43,1.955v10.861
	c-5.747-0.271-11.222-1.638-15.689-3.917l-3.677,4.912c2.497,1.292,5.338,2.3,8.391,2.978c3.346,0.749,6.842,1.205,10.388,1.355
	v5.695h8.515v-5.801c4.73-0.323,9.165-1.596,12.644-3.628c3.097-1.858,4.807-4.444,4.715-7.128
	C605.475,669.423,604.594,667.547,602.83,665.996z M580.047,659.835c-2.074-0.394-4.003-1.041-5.674-1.906
	c-1.34-0.746-2.077-1.828-2.007-2.95c-0.062-1.257,0.677-2.478,2.053-3.395c1.525-0.962,3.493-1.601,5.628-1.828V659.835z
	 M592.736,674.853c-1.439,0.923-3.313,1.534-5.346,1.743v-9.344c1.944,0.326,3.763,0.895,5.346,1.673
	c1.216,0.65,1.893,1.611,1.838,2.611C594.652,672.747,593.996,673.932,592.736,674.853L592.736,674.853z"/>
<text transform="matrix(1.1049 0 0 1 409.33 617.9889)" fill="#0D9E0D" font-family="'MyriadPro-Regular'" font-size="66.6888">€</text>
<text transform="matrix(1.1591 0 0 1 704.4774 606.0996)" fill="#2A932A" font-family="'MyriadPro-Regular'" font-size="59.5558">£</text>
<text transform="matrix(1.9281 0 0 1 553.0989 547.3028)" fill="#187F18" font-family="'MyriadPro-Regular'" font-size="51.0314">¥</text>
<text transform="matrix(2.1927 0.0226 -0.0103 0.9999 494.3196 606.0903)" fill="#1507D8" font-family="'MyriadPro-Regular'" font-size="41.7548">RWF</text>
<ellipse id="Ellipse_95" opacity="0.2" fill="#008000" enable-background="new    " cx="581.247" cy="289.569" rx="95.837" ry="94.769"/>
<ellipse id="Ellipse_96" fill="#008000" cx="581.247" cy="289.569" rx="77.168" ry="76.308"/>
<path id="Path_616" fill="#FFFFFF" d="M572.246,322.194l-27.196-34.576l15.816-12.164l12.876,16.371l43.499-45.405l14.547,13.626
	L572.246,322.194z"/>
</svg>
