<?xml version="1.0" encoding="utf-8"?>
<!-- Generator: Adobe Illustrator 17.0.0, SVG Export Plug-In . SVG Version: 6.00 Build 0)  -->
<!DOCTYPE svg PUBLIC "-//W3C//DTD SVG 1.1//EN" "http://www.w3.org/Graphics/SVG/1.1/DTD/svg11.dtd">
<svg version="1.1" id="b5c524f0-66c4-4225-a3aa-c25cef687e0c"
	 xmlns="http://www.w3.org/2000/svg" xmlns:xlink="http://www.w3.org/1999/xlink" x="0px" y="0px" width="740.675px"
	 height="597.175px" viewBox="0 0 740.675 597.175" enable-background="new 0 0 740.675 597.175" xml:space="preserve">
<path fill="#E6E6E6" d="M417.118,417.216c-4.166-4.783-9.805-8.282-16.895-9.591c-6.183-1.142-12.539-0.948-18.823-0.908
	l-79.461,0.502c-6.806,0.043-13.331,4.877-13.014,10.67c0.314,5.744,5.72,10.716,13.014,10.67
	c23.277-0.147,46.553-0.294,69.83-0.441c5.488-0.035,10.978-0.116,16.466-0.101c1.232,0.003,2.46,0.057,3.691,0.068
	c0.298,0.003,0.513,0.001,0.665-0.005c0.038,0.009,0.07,0.018,0.12,0.029c0.643,0.145,1.301,0.244,1.947,0.381
	c-0.226,0.005,0.419,0.335,0.743,0.447c0.045,0.072,0.139,0.199,0.298,0.397c0.221,0.34,0.876,1.373,0.903,1.34
	c0.984,2.04,1.796,4.133,2.43,6.264c1.512,4.699,1.845,5.682,2.063,10.091c0.275,5.57,5.789,10.935,13.014,10.67
	c6.815-0.25,13.309-4.696,13.014-10.67C426.626,436.964,424.47,425.657,417.118,417.216z"/>
<path fill="#E6E6E6" d="M306.61,441.294c-1.493-7.415-2.957-14.835-4.478-22.246c-1.544-7.518-4.696-14.403-11.833-19.337
	c-1.907-1.318-3.884-2.549-5.869-3.776c-0.698-0.431-1.395-0.864-2.085-1.304c-0.042-0.026-0.068-0.043-0.103-0.066
	c-0.076-0.053-0.167-0.117-0.289-0.202c-2.975-2.064-5.848-4.219-8.586-6.511c-2.431-2.035-4.756-4.157-6.975-6.365
	c-0.555-0.551-1.101-1.108-1.642-1.67c-0.093-0.097-0.593-0.627-0.923-0.973c-0.307-0.346-0.867-0.972-0.961-1.081
	c-0.631-0.732-1.251-1.47-1.859-2.215c-4.145-5.091-7.734-10.473-10.726-16.081c-0.297-0.556-0.586-1.116-0.869-1.678
	c-0.076-0.172-0.174-0.392-0.304-0.686c-0.603-1.359-1.205-2.717-1.756-4.092c-1.171-2.922-2.178-5.886-3.021-8.893
	c-0.416-1.485-0.791-2.978-1.125-4.478c-0.172-0.772-0.333-1.544-0.482-2.319c-0.024-0.129-0.171-0.964-0.257-1.436
	c-0.063-0.475-0.182-1.315-0.198-1.444c-0.095-0.781-0.18-1.562-0.254-2.345c-0.167-1.761-0.279-3.524-0.338-5.29
	c-0.1-3.14-0.032-6.279,0.206-9.417c0.135-1.764,0.327-3.522,0.564-5.278c0.015-0.108,0.025-0.193,0.036-0.271
	c0.015-0.079,0.031-0.167,0.051-0.278c0.175-0.97,0.36-1.939,0.565-2.905c0.781-3.668,1.796-7.299,3.041-10.878
	c0.59-1.693,1.231-3.373,1.922-5.038c0.308-0.74,0.626-1.476,0.954-2.21c-0.021,0.047,0.961-2.011,0.974-2.08
	c3.9-7.555,10.28-14.442,10.288-23.024c0.006-5.81-5.99-11.377-13.014-11.108c-7.279,0.225-13.034,5.136-13.014,11.108
	c0,0.131-0.001,0.242-0.001,0.35c-0.066,0.181-0.12,0.332-0.169,0.465c-0.761,1.355-1.693,2.643-2.527,3.964
	c-2.286,3.616-4.237,7.352-6.091,11.142c-3.035,6.172-5.357,12.564-6.937,19.091c-3.436,14.301-3.702,28.994-0.787,43.373
	c5.046,25.216,21.687,49.354,44.82,65.578c2.007,1.408,4.064,2.769,6.14,4.102c0.859,0.552,1.725,1.093,2.595,1.631
	c0.412,0.254,2.116,1.356,1.366,0.822c1.612,1.128,2.291,1.696,2.705,2.527c0.06,0.192,0.142,0.452,0.253,0.808
	c0.292,0.937,0.569,1.872,0.8,2.823c2.014,8.303,3.413,16.746,5.095,25.103c1.156,5.742,9.779,9.479,16.009,7.758
	C304.772,452.955,307.848,447.446,306.61,441.294z"/>
<path fill="#C5E217" d="M413.234,462.83c-10.499,0.024-19.038-7.508-19.09-16.838v-12.171c-14.339,1.426-63.44,1.096-77.515-0.914
	v12.598c-0.079,9.369-8.69,16.908-19.233,16.838c-10.431-0.069-18.869-7.568-18.947-16.838v-24.735
	c-38.818-19.164-62.932-55.491-63.033-94.953c0-33.23,16.946-64.228,46.493-85.047c19.211-13.582,42.553-21.75,67.027-23.455
	c3.322-0.231,6.664-0.349,9.934-0.349c11.52,0,63.497,1.582,76.538,4.916l29.736-26.222c0.894-0.799,2.244-1.038,3.414-0.605
	c1.18,0.417,1.951,1.436,1.939,2.565v4.169l5.79-5.096c0.892-0.8,2.241-1.04,3.411-0.606c1.181,0.417,1.952,1.436,1.941,2.566v46.59
	c50.099,40.138,54.099,108.767,8.933,153.29c-10.752,10.599-23.751,19.21-38.252,25.339v22.119
	C432.272,455.322,423.732,462.854,413.234,462.83z M395.645,432.308v13.684c0.079,8.633,8.018,15.574,17.732,15.504
	c9.603-0.069,17.368-6.97,17.446-15.504V423.03l0.428-0.181c20.357-8.584,37.637-22.014,49.924-38.799
	c32.352-44.258,23.524-102.874-20.785-138.013l-0.249-0.199v-47.185c0.011-0.588-0.391-1.118-1.007-1.331
	c-0.612-0.233-1.321-0.107-1.787,0.315l-8.35,7.349v-7.367c0.011-0.587-0.391-1.118-1.007-1.331
	c-0.613-0.232-1.324-0.106-1.79,0.318l-30.373,26.784l-0.431-0.12c-12.123-3.372-64.918-4.971-76.526-4.971
	c-3.231,0-6.534,0.116-9.817,0.345c-24.177,1.684-47.235,9.753-66.212,23.171c-29.186,20.565-45.925,51.182-45.925,84.002
	c0.101,39.118,24.09,75.104,62.645,93.977l0.387,0.191v25.521c0.081,8.633,8.022,15.573,17.736,15.501
	c9.6-0.071,17.362-6.969,17.443-15.501v-14.195l0.889,0.149c12.649,2.115,65.908,2.448,78.78,0.948L395.645,432.308z"/>
<path fill="#008000" d="M287.998,119.118l-110.74,33.28c-7.34,2.216-11.493,9.962-9.277,17.302
	c2.212,7.326,9.936,11.481,17.268,9.288l96.91-29.13l2.03-0.61c0.411-10.461,3.249-20.684,8.29-29.86
	c-0.633-0.285-1.309-0.46-2-0.52C289.643,118.787,288.8,118.872,287.998,119.118z"/>
<path fill="#2F2E41" d="M183.333,186.083c-3.015-0.007-5.687-1.941-6.638-4.801l-6.925-20.896c-1.216-3.669,0.772-7.63,4.442-8.846
	h0.001l90.131-29.87c3.669-1.216,7.63,0.772,8.847,4.442l0,0l6.925,20.896c1.198,3.573-0.659,7.451-4.193,8.759
	c-0.083,0.031-0.167,0.061-0.252,0.088l-90.129,29.869C184.829,185.961,184.083,186.082,183.333,186.083z"/>
<path fill="#C5E217" d="M352.128,82.008c-37.817,0.015-68.792,30.051-69.97,67.85c-0.02,0.71-0.03,1.43-0.03,2.15
	c0,38.66,31.34,70,70,70s70-31.34,70-70S390.788,82.008,352.128,82.008L352.128,82.008z M352.128,220.008
	c-37.539-0.039-67.961-30.461-68-68c0-0.93,0.02-1.85,0.06-2.76c1.525-37.523,33.181-66.705,70.704-65.18
	s66.705,33.181,65.18,70.704C418.59,191.222,388.608,220.009,352.128,220.008L352.128,220.008z"/>
<path fill="#008000" d="M377.373,194.648c-1.613-1.327-3.735-2.378-6.169-3.056c-3.003-0.792-6.103-1.429-9.271-1.905v-11.334
	c4.87,0.459,9.437,1.762,13.185,3.762l3.677-4.905c-2.115-1.179-4.543-2.117-7.174-2.774c-2.916-0.739-5.977-1.23-9.102-1.461
	v-5.745h-8.515v5.801c-3.288,0.231-6.46,0.897-9.305,1.955c-2.57,0.952-4.733,2.279-6.305,3.867c-1.5,1.55-2.277,3.332-2.244,5.145
	c-0.147,1.964,0.763,3.902,2.583,5.505c1.675,1.388,3.888,2.485,6.429,3.19c3.05,0.815,6.205,1.469,9.43,1.955v10.861
	c-5.747-0.271-11.222-1.638-15.689-3.917l-3.677,4.912c2.497,1.292,5.338,2.3,8.391,2.978c3.346,0.749,6.842,1.205,10.388,1.355
	v5.695h8.515v-5.801c4.73-0.323,9.165-1.596,12.644-3.627c3.097-1.858,4.807-4.444,4.715-7.128
	C380.019,198.075,379.137,196.199,377.373,194.648z M354.59,188.487c-2.074-0.394-4.003-1.041-5.674-1.905
	c-1.34-0.746-2.077-1.828-2.007-2.95c-0.062-1.257,0.677-2.478,2.053-3.395c1.525-0.962,3.493-1.601,5.628-1.828V188.487z
	 M367.279,203.505c-1.439,0.923-3.313,1.534-5.346,1.743v-9.344c1.944,0.326,3.763,0.895,5.346,1.673
	c1.216,0.65,1.893,1.611,1.838,2.611C369.196,201.399,368.539,202.584,367.279,203.505L367.279,203.505z"/>
<path fill="#2F2E41" d="M186.547,270.772c-3.178-0.005-5.957-2.144-6.775-5.216l-3.77-14.27c-0.983-3.735,1.243-7.56,4.975-8.551
	l118.941-31.43c3.737-0.975,7.559,1.253,8.551,4.985l3.194,12.09l-0.598,0.046c-30.505,2.372-59.691,13.432-84.108,31.871
	l-0.173,0.084l-38.46,10.16C187.743,270.694,187.146,270.772,186.547,270.772z"/>
<path fill="#CCCCCC" d="M390.272,241.194c-20.378-0.256-40.692,0.204-60.942,1.377c-6.921,0.401-12.911,2.573-12.911,6.225
	c0,3.053,5.941,6.629,12.911,6.225c20.24-1.174,40.554-1.633,60.942-1.377C406.894,253.852,406.884,241.402,390.272,241.194z"/>
<path fill="#3F3D56" d="M361.034,252.749c-2.168,0-53.091-0.083-53.091-7.251c0-7.168,50.922-7.25,53.091-7.25
	s53.091,0.083,53.091,7.25C414.125,252.667,363.203,252.749,361.034,252.749z M309.935,245.498
	c1.393,2.173,20.112,5.251,51.099,5.251s49.706-3.078,51.099-5.251c-1.393-2.173-20.112-5.25-51.099-5.25
	S311.328,243.326,309.935,245.498L309.935,245.498z"/>
<path fill="#2F2E41" d="M200.936,302.738c-2.495-0.011-4.616-2.518-5.006-5.917l-1.657-14.582c-0.431-3.818,1.461-7.397,4.229-8
	l88.118-19.042c2.769-0.594,5.363,2.015,5.8,5.832l1.657,14.582c0.431,3.818-1.461,7.397-4.228,8l-88.118,19.042
	C201.467,302.709,201.202,302.737,200.936,302.738z"/>
<circle fill="#008000" cx="153.189" cy="80.855" r="51"/>
<path fill="#2F2E41" d="M182.065,94.051c1.63-0.57,3.119-1.483,4.367-2.676c1.671-1.722,2.496-4.095,2.255-6.483
	c-0.141-1.704-1.07-3.245-2.512-4.164c-1.846-1.135-4.285-1.092-6.747,0.049l-0.284-19.908l-2,0.028l0.334,23.404L179,83.303
	c1.765-1.156,4.302-1.994,6.127-0.872c0.915,0.602,1.496,1.597,1.573,2.69c0.17,1.778-0.442,3.543-1.676,4.834
	c-2.168,2.151-5.377,2.872-9.039,3.531l0.354,1.968C178.285,95.158,180.202,94.688,182.065,94.051z"/>
<rect x="189.176" y="60.26" transform="matrix(-0.9887 0.1497 -0.1497 -0.9887 396.1019 92.703)" fill="#2F2E41" width="10.772" height="2"/>
<rect x="155.56" y="65.351" transform="matrix(-0.9887 0.1497 -0.1497 -0.9887 330.0108 107.8594)" fill="#2F2E41" width="10.772" height="2"/>
<path fill="#2F2E41" d="M186.892,302.069c-3.755-0.008-7.114-2.339-8.434-5.855l-35.163-94.169
	c-8.949-24.047,3.257-50.8,27.284-59.802l28.592-10.676c2.233-0.839,4.709-0.754,6.878,0.239c2.164,0.967,3.849,2.764,4.675,4.986
	l65.136,122.984c1.771,4.645-0.558,9.847-5.203,11.618c-0.018,0.007-0.035,0.013-0.053,0.02l-80.566,30.084
	C189.032,301.874,187.967,302.068,186.892,302.069z"/>
<path fill="#E6E6E6" d="M190.496,134.582l64.629,86.426l-43.732-85.519c-1.519-4.196-6.151-6.366-10.346-4.847
	c-0.001,0-0.002,0.001-0.003,0.001L190.496,134.582z"/>
<path fill="#008000" d="M292.828,200.218l-115.395-7.433c-7.65-0.49-13.454-7.088-12.964-14.738
	c0.49-7.65,7.088-13.454,14.738-12.964c0.003,0,0.007,0,0.01,0.001l115.395,7.433c3.582,0.23,6.299,3.321,6.069,6.903v0.001
	l-0.948,14.729C299.502,197.731,296.411,200.448,292.828,200.218L292.828,200.218z"/>
<path fill="#2F2E41" d="M261.993,204.983c-0.152,0-0.305-0.005-0.458-0.015l0,0l-94.756-6.104c-3.858-0.248-6.784-3.576-6.536-7.434
	v-0.001l1.62-25.158c0.249-3.858,3.577-6.784,7.435-6.535c0,0,0,0,0.001,0l94.756,6.103c3.856,0.253,6.779,3.579,6.535,7.435
	l-1.62,25.159c-0.182,2.754-1.961,5.145-4.546,6.111C263.646,204.835,262.823,204.983,261.993,204.983z"/>
<text transform="matrix(1.1049 0 0 1 286.4144 167.2306)" fill="#0D9E0D" font-family="'MyriadPro-Regular'" font-size="66.6888">€</text>
<text transform="matrix(1.1591 0 0 1 379.4476 161.1169)" fill="#2A932A" font-family="'MyriadPro-Regular'" font-size="59.5558">£</text>
<text transform="matrix(1.9281 0 0 1 325.0688 124.9044)" fill="#187F18" font-family="'MyriadPro-Regular'" font-size="51.0314">¥</text>
<text transform="matrix(1.0803 0 0 1 325.0688 153.6969)" fill="#1507D8" font-family="'MyriadPro-Regular'" font-size="26.1691">RWF</text>
<path fill="#C5E217" d="M390.586,401.054h-51.857c-8.128-0.008-14.715-5.819-14.724-12.99V269.608
	c0.009-7.171,6.596-12.981,14.724-12.989h51.857c8.128,0.008,14.715,5.819,14.724,12.989v21.199c0.54,0.199,0.893,0.665,0.894,1.182
	v13.793c-0.001,0.517-0.353,0.983-0.894,1.182v81.101C405.301,395.235,398.714,401.046,390.586,401.054z M338.729,257.603
	c-7.512,0.008-13.6,5.377-13.608,12.004v118.456c0.008,6.627,6.096,11.997,13.608,12.005h51.857
	c7.512-0.008,13.6-5.377,13.608-12.004v-81.987h0.558c0.185,0,0.335-0.133,0.335-0.295v-13.793c0-0.163-0.15-0.295-0.335-0.296
	h-0.558v-22.084c-0.008-6.627-6.096-11.997-13.608-12.004L338.729,257.603L338.729,257.603z"/>
<path fill="#008000" d="M387.321,262.664h-6.049c0.937,2.158-0.166,4.62-2.462,5.5c-0.538,0.207-1.114,0.312-1.696,0.312h-26.546
	c-2.48,0-4.491-1.889-4.491-4.22c0-0.546,0.113-1.087,0.333-1.593h-5.65c-5.221,0-9.453,3.976-9.453,8.881v112.557
	c0,4.905,4.232,8.881,9.453,8.881l0,0h46.56c5.221,0,9.453-3.976,9.453-8.881l0,0l0,0V271.545
	C396.774,266.64,392.541,262.664,387.321,262.664z"/>
<path opacity="0.1" fill="#008000" enable-background="new    " d="M737.7,151.867h-81.443c-3.888,0-7.04-8.081-7.04-18.049
	s3.152-18.049,7.04-18.049h14.079c-3.888,0-7.04-8.081-7.04-18.049s3.152-18.049,7.04-18.049l0,0h-10.053
	c-3.888,0-7.04-8.081-7.04-18.049s3.152-18.049,7.04-18.049h42.508c-9.432-11.239-20.458-19.238-33.156-23.434
	C553.729-18.037,512.346,7.215,497.748,33.253c-18.01,32.032-38.102,55.598-59.575,66.95
	c-71.514,37.821-205.254,83.341-326.472-14.574C51.453,36.924,6.673,119.197-20.163,256.618h772
	c-1.008-39.938-4.026-76.803-9.564-109.098C741.002,150.329,739.378,151.87,737.7,151.867z"/>
<path opacity="0.1" fill="#008000" enable-background="new    " d="M-136.678,220.588c-3.865,76.683-2.554,154.038,3.9,230.044
	l883.482,63.602c24.593-55.692,45.243-117.684,61.385-184.284L-136.678,220.588z M212.75,384.702h-17.396
	c4.803,0,8.698,7.666,8.698,17.122s-3.894,17.122-8.698,17.122H94.728c-4.803,0-8.698-7.666-8.698-17.122s3.894-17.122,8.698-17.122
	h17.396c-4.803,0-8.698-7.666-8.698-17.122s3.894-17.122,8.698-17.122H99.702c-4.803,0-8.698-7.666-8.698-17.122
	s3.894-17.122,8.698-17.122h100.627c4.803,0,8.698,7.666,8.698,17.122s-3.894,17.122-8.698,17.122l0,0h12.422
	c4.803,0,8.698,7.666,8.698,17.122S217.554,384.702,212.75,384.702L212.75,384.702z"/>
</svg>
