<?xml version="1.0" encoding="utf-8"?>
<!-- Generator: Adobe Illustrator 17.0.0, SVG Export Plug-In . SVG Version: 6.00 Build 0)  -->
<!DOCTYPE svg PUBLIC "-//W3C//DTD SVG 1.1//EN" "http://www.w3.org/Graphics/SVG/1.1/DTD/svg11.dtd">
<svg version="1.1" id="ecb8a146-dd8f-4f83-ab4e-53bb1469e238"
	 xmlns="http://www.w3.org/2000/svg" xmlns:xlink="http://www.w3.org/1999/xlink" x="0px" y="0px" width="1099px" height="797.68px"
	 viewBox="0 0 1099 797.68" enable-background="new 0 0 1099 797.68" xml:space="preserve">
<title>transfer money</title>
<path fill="#F2F2F2" d="M484.308,106.785c-165.358,0-299.408,120.016-299.408,268.063s134.049,268.063,299.408,268.063
	s299.407-120.016,299.407-268.063S649.666,106.785,484.308,106.785z M371,170.34c-6.449,0-6.449-10,0-10S377.449,170.34,371,170.34z
	 M624,269.34c-6.449,0-6.449-10,0-10S630.449,269.34,624,269.34z M724,320.34c-6.449,0-6.449-10,0-10S730.449,320.34,724,320.34z"/>
<ellipse fill="#F2F2F2" cx="211.389" cy="654.564" rx="118.8" ry="17.018"/>
<ellipse fill="#F2F2F2" cx="790.939" cy="627.951" rx="183.819" ry="26.332"/>
<path fill="#2F2E41" d="M750.098,374.848c0,0,1.565,4.671-7.303,8.874c-8.868,4.203-11.476,20.083-1.044,24.753
	s13.563,10.742,8.346,14.945s-14.607,15.413-2.086,18.215c12.521,2.802,14.085,8.407,10.434,10.742
	c-3.651,2.335,8.346-4.203,8.346-4.203s2.086,11.209,13.042,8.407c10.955-2.802,41.732-56.045,26.083-63.518
	C790.267,385.59,750.098,374.848,750.098,374.848z"/>
<path fill="#FFB9B9" d="M769.006,419.946c0,0,5.411,16.956-4.058,18.167c-5.877,0.82-11.445,2.898-16.234,6.055l17.586,20.59h32.467
	l20.291-18.167c0,0-27.056-18.167-21.645-29.068C802.824,406.623,769.006,419.946,769.006,419.946z"/>
<path opacity="0.1" enable-background="new    " d="M769.006,419.946c0,0,5.411,16.956-4.058,18.167
	c-5.877,0.82-11.445,2.898-16.234,6.055l17.586,20.59h32.467l20.291-18.167c0,0-27.056-18.167-21.645-29.068
	C802.824,406.623,769.006,419.946,769.006,419.946z"/>
<polygon fill="#FFB9B9" points="777.123,630.69 808.237,640.379 829.881,641.59 828.528,624.633 783.886,612.813 "/>
<path fill="#575A89" d="M817.03,627.056c0,0,0,16.956,2.706,16.956s39.231-3.634,50.053,0s27.056-9.689,18.939-16.956
	c-8.117-7.267-21.357-18.167-29.617-15.745s-42.081,8.478-42.081,8.478V627.056z"/>
<path fill="#575A89" d="M717.6,611.311c0,0-16.234,29.068-5.411,31.491c10.823,2.423,22.997-1.211,24.35-2.423
	s20.292-6.056,22.997-3.634c2.706,2.422,2.706-9.689,2.706-9.689L717.6,611.311z"/>
<path fill="#2F2E41" d="M731.128,571.342c0,0-25.703,31.491-6.764,39.969c18.939,8.478,109.576,8.478,116.339,0
	c6.764-8.478,9.469-35.124,0-37.546C831.233,571.343,731.128,571.342,731.128,571.342z"/>
<path opacity="0.2" enable-background="new    " d="M731.128,571.342c0,0-25.703,31.491-6.764,39.969
	c18.939,8.478,109.576,8.478,116.339,0c6.764-8.478,9.469-35.124,0-37.546C831.233,571.343,731.128,571.342,731.128,571.342z"/>
<ellipse fill="#FFB9B9" cx="779.828" cy="400.567" rx="31.114" ry="27.857"/>
<path fill="#008000" d="M850.173,455.07c0-3.634-17.586-9.689-18.939-9.689c-1.353,0-17.586-6.056-17.586-6.056
	s-5.412,12.112-27.056,15.745c-21.644,3.634-28.408-15.745-28.408-15.745l-27.056,4.845l8.118,49.658l-6.764,64.192l100.106,2.423
	l-2.706-65.403C829.882,495.039,850.173,458.704,850.173,455.07z M783,553.34c-6.449,0-6.449-10,0-10S789.449,553.34,783,553.34z"/>
<path fill="#FFB9B9" d="M716.247,475.66c0,0-8.117,64.192-2.706,69.037c5.411,4.845,27.056,18.167,27.056,18.167V548.33
	l-10.822-18.167l10.822-42.391L716.247,475.66z"/>
<path fill="#FFB9B9" d="M856.261,473.843c0,0-4.735,66.009-4.735,68.431c0,2.422-12.175,10.901-16.234,10.901
	c-4.058,0-6.764-6.056-6.764-6.056l9.469-9.689l-6.764-49.658L856.261,473.843z"/>
<path fill="#2F2E41" d="M843.409,566.497c0,0,60.875-30.279,62.229,0s-31.114,42.391-31.114,42.391s-83.873,22.517-87.255,14.286
	s-10.146-21.554-4.735-22.765c5.411-1.211,12.175-3.634,14.88-1.211c2.705,2.423,36.525-18.167,36.525-18.167L843.409,566.497z"/>
<path opacity="0.2" fill="none" stroke="#000000" stroke-width="2" stroke-miterlimit="10" enable-background="new    " d="
	M871.818,562.864c0,0-12.175,4.845-16.234,8.478c-4.058,3.634-21.645,9.689-21.645,9.689"/>
<path fill="#008000" d="M739.245,446.591l-8.117-2.423c0,0-29.762,27.857-20.292,35.124c9.47,7.267,14.88,9.689,17.586,12.112
	c2.706,2.423,16.234,3.634,16.234,3.634L739.245,446.591z"/>
<path fill="#008000" d="M837.998,452.648l12.175,2.423c0,0,9.469,18.167,12.175,20.59c2.706,2.423-4.058,1.211-8.117,6.056
	c-4.058,4.845-8.117,13.323-16.234,13.323c-8.117,0-18.939-12.112-18.939-12.112L837.998,452.648z"/>
<path fill="#2F2E41" d="M733.833,577.397c0,0-51.406-32.702-68.992-8.478c-17.586,24.223,75.757,56.925,89.284,61.77
	c13.528,4.845,25.703,9.689,25.703,9.689s12.175-26.646,12.175-31.491c0-4.845-9.469-4.845-12.175-4.845s-14.88-2.423-17.586-6.055
	C759.536,594.354,733.833,577.397,733.833,577.397z"/>
<path opacity="0.2" fill="none" stroke="#000000" stroke-width="2" stroke-miterlimit="10" enable-background="new    " d="
	M705.424,568.919c0,0,13.528,9.689,25.703,12.112c12.175,2.423,16.234,8.478,16.234,8.478"/>
<path fill="#575A89" d="M842.991,516.85c-0.137-0.007-0.275-0.011-0.413-0.011H731.67c-3.96,0-7.17,2.874-7.17,6.42
	c0,0.04,0.001,0.081,0.002,0.121l1.08,51.281c0.075,3.526,3.311,6.338,7.25,6.298l106.591-1.072c3.769-0.038,6.861-2.681,7.078-6.05
	l3.236-50.209C849.964,520.089,846.945,517.054,842.991,516.85z M783,553.34c-6.449,0-6.449-10,0-10S789.449,553.34,783,553.34z"/>
<path fill="#2F2E41" d="M781.49,365.574c0,0,1.734,5.174-8.09,9.831s-12.714,22.248-1.156,27.422
	c11.558,5.174,15.025,11.9,9.246,16.557c-5.779,4.657-16.181,17.074-2.312,20.178c13.869,3.104,15.603,9.313,11.558,11.9
	s9.246-4.656,9.246-4.656s2.312,12.417,14.447,9.313c12.135-3.104,24.244-59.534,10.716-74.069
	C812.568,368.535,781.49,365.574,781.49,365.574z"/>
<path fill="#2F2E41" d="M777.799,360.248c0.002-7.58,25.332-2.134,36.192,8.45c7.521,7.329,18.943,18.355,9.371,26.127
	s16.406,17.961,23.374,21.05c6.967,3.089,20.723,12.536,8.302,18.873c-12.421,6.337-12.22,12.735-7.546,14.249
	s-10.306-2.252-10.306-2.252s1.513,12.516-11.108,12.456s-48.83-62.16-40.18-79.422C793.942,363.73,777.799,360.248,777.799,360.248
	z"/>
<path fill="#2F2E41" d="M783.286,358.587c-33.872-1.826-37.272,21.002-37.272,21.002c0.234,13.211,23.666,6.773,30.174,8.743
	c7.851-5.057,22.986-14.625,33.81-21.453C802.139,361.924,792.882,359.051,783.286,358.587z"/>
<path fill="none" stroke="#3F3D56" stroke-width="2" stroke-miterlimit="10" d="M773.635,504.254
	c0,0-30.384-127.491-220.561-219.976"/>
<polygon fill="#3F3D56" points="560.91,281.497 561.291,282.895 553.598,284.565 556.022,291.313 554.492,291.752 551.542,283.533 
	"/>
<path fill="#2F2E41" d="M261.777,630.338l5.123-3.407c0,0,3.391,16.958-0.393,19.499c-3.784,2.541-17.973,6.776-17.973,11.857
	c0,5.081-32.163,11.857-33.108,4.234c-0.946-7.622,2.838-11.857,2.838-11.857s15.135-13.55,17.027-16.092
	c1.892-2.541,6.621-7.622,6.621-7.622L261.777,630.338z"/>
<path fill="#2F2E41" d="M186.101,419.455c0,0,0.142,0.745,0.388,2.109c0.227,1.211,0.539,2.922,0.917,5.031
	c3.973,21.707,15.561,85.607,14.776,87.716c-0.946,2.54-7.568,11.857,0,14.398c0.728,0.246,1.514,1.041,2.355,2.295
	c1.625,2.7,2.964,5.529,4.001,8.452c4.512,11.721,9.337,30.481,12.127,43.472c1.22,5.708,2.053,10.299,2.299,12.704
	c0.086,0.556,0.095,1.119,0.028,1.677c-0.946,3.388,5.676,15.244,8.513,18.632c2.838,3.388,7.568,6.776,6.621,10.163
	c-0.946,3.388,23.649,12.704,26.487,6.776c2.838-5.928,2.838-9.316,3.784-11.01s1.892-13.55-2.838-15.244
	c-4.729-1.694-1.892-31.336-6.621-37.264c-1.58-1.973-3.992-8.656-6.518-16.693c-0.993-3.151-1.996-6.505-2.98-9.867
	c-3.992-13.78-7.529-27.644-7.529-27.644l0.946-99.09l-52.027-5.928l-1.334,2.634l-2.659,5.225L186.101,419.455z"/>
<path fill="#2F2E41" d="M183.263,582.064c0,0-7.568-6.776-11.352,0c-3.784,6.776-7.568,33.03-14.189,38.958
	c-6.621,5.928-15.135,35.57-5.676,37.264c9.459,1.694,19.865-2.541,20.811-7.622s20.811-31.336,20.811-33.877
	s-13.243-11.857-13.243-11.857L183.263,582.064z"/>
<path fill="#2F2E41" d="M299.616,372.874c0,0-12.297,99.09-15.135,108.406c-2.838,9.316-17.973,44.887-22.703,50.816
	s-35,54.203-38.784,56.744s-11.352,9.316-11.352,9.316s-14.189,12.704-16.081,15.244s-17.973-5.082-18.919-10.163
	s0.946-13.55,1.892-16.938c0.946-3.388-1.892-8.469,0.946-11.01c2.838-2.541,17.027-15.244,17.027-21.173
	s24.595-40.652,34.055-48.274c9.46-7.622,7.568-20.326,7.568-20.326v-51.662l-52.027-14.398c0,0,2.838-40.652,9.46-40.652
	S289.21,365.252,299.616,372.874z"/>
<ellipse fill="#9F616A" cx="222.993" cy="203.49" rx="31.216" ry="27.948"/>
<path fill="#9F616A" d="M233.399,225.51c0,0,3.784,12.704,8.513,16.092c4.73,3.388-12.297,17.786-12.297,17.786l-32.163,1.694
	l-5.676-16.092c0,0,10.405-18.632,7.568-30.489C196.506,202.642,233.399,225.51,233.399,225.51z"/>
<path fill="#008000" d="M191.778,388.966l0.439-3.143C190.114,386.972,191.778,388.966,191.778,388.966z"/>
<path fill="#008000" d="M293.941,350.008l-15.135-56.744l-9.46-30.49l-22.704-22.867c0,0-8.513,0.847-10.405,3.388
	s-15.135,10.163-25.54,8.469c-10.405-1.694-17.027-4.234-18.919-3.388c-1.892,0.847-5.676,18.632-5.676,18.632l8.325,21.683
	c0.942,0.961,1.414,2.314,1.409,3.669l0.672,1.749l-1.892,74.529l-2.399,17.183c1.771-0.967,6.21-1.334,16.588,0.602
	c22.703,4.235,52.027-3.388,61.487-4.234c9.46-0.847,25.54-3.388,26.487-8.469S293.941,350.008,293.941,350.008z"/>
<path fill="#D0CDE1" d="M237.695,236.085c0,0,8.001-3.8,10.84-0.412c2.838,3.388,38.784,8.47,38.784,11.01
	c0,2.54,7.568,71.142,5.676,77.07s3.784,12.704,3.784,12.704l6.621,25.408c0,0,17.973,48.274,10.405,49.968
	c-7.568,1.694-14.189,0-17.027,0s-1.892-32.183-9.46-40.652s-17.973-29.642-19.865-33.877c-1.892-4.234-25.54-62.672-24.595-69.448
	S237.695,236.085,237.695,236.085z"/>
<path fill="#D0CDE1" d="M217.317,304.273c-5.676-13.551-18.919-64.366-18.919-64.366s-7.568,0-8.513,1.694
	c-0.946,1.694-10.405,12.704-14.189,15.244c-3.784,2.541-17.027,13.55-17.027,16.092c0,2.541,27.432,21.173,27.432,21.173
	s11.352,49.968,5.676,66.906c-5.676,16.938-14.189,57.591-10.405,60.132c3.784,2.541,12.297,3.388,12.297,0
	c0-3.388,5.676-39.806,10.405-47.428C208.804,366.099,222.993,317.825,217.317,304.273z M191,297.34c-6.449,0-6.449-10,0-10
	S197.449,297.34,191,297.34z"/>
<path fill="#9F616A" d="M323.264,323.753c0,0,0.946,26.254-9.46,39.806c-10.405,13.551-17.027,28.796-17.027,28.796
	s-17.027-4.234-19.865-9.316c-2.838-5.082-20.811-0.847-20.811-2.54c0-1.694,21.757-10.163,23.649-11.857s8.513-1.694,12.297-5.082
	c3.784-3.388,4.73-11.01,4.73-11.01l3.784-22.02L323.264,323.753z"/>
<path fill="#2F2E41" d="M244.493,186.257c2.402-0.195,4.878-0.41,7-1.435c4.756-2.296,6.017-8.835,2.397-12.426
	c-0.999-0.913-2.114-1.718-3.326-2.394l-7.191-4.382c-3.18-1.938-6.435-3.907-10.145-4.822c-3.354-0.826-6.898-0.742-10.371-0.548
	c-6.742,0.375-13.525,1.15-19.866,3.234c-6.341,2.084-12.256,5.57-16.096,10.545c-6.088,7.887-6.172,18.524-2.818,27.628
	c3.353,9.105,9.722,17.033,15.999,24.801l3.257-14.226c0.29-1.267,0.665-2.655,1.842-3.406c2.926-1.864,6.504,1.963,10.095,1.938
	c2.307-0.016,4.244-1.715,5.118-3.626c0.874-1.912,0.932-4.028,1.134-6.086c0.429-4.358,2.13-10.422,6.739-12.826
	C232.558,185.989,239.665,186.65,244.493,186.257z"/>
<path opacity="0.1" enable-background="new    " d="M242.743,420.139c0,0-3.195,82.738-5.087,85.279c-1.892,2.541,0-85.539,0-85.539
	L242.743,420.139z"/>
<path fill="#D0CDE1" d="M279.751,246.683h7.568c0,0,32.163,38.958,28.379,41.499c-3.784,2.541,0,9.316,0,9.316l7.568,12.704
	c0,0,9.46,7.622,6.621,9.316c-2.838,1.694-6.621,8.469-6.621,8.469s-18.919-2.54-24.595,7.622l-12.268-13.867L279.751,246.683z"/>
<polygon fill="#2F2E41" points="256.455,268.818 282.423,259.217 302.407,302.543 276.439,312.144 "/>
<path fill="#008000" d="M279.376,284.619c-2.868,1.061-6.076,0.008-7.164-2.352c-1.088-2.359,0.355-5.132,3.223-6.192
	c2.868-1.06,6.076-0.008,7.164,2.352C283.688,280.786,282.245,283.559,279.376,284.619z"/>
<path fill="#9F616A" d="M260.832,314.436c0,0-68.108,50.816-79.46,34.724c-11.352-16.092,12.297-29.642,12.297-29.642
	s20.811,0.847,44.46-12.704l23.649-9.316c0,0,21.589-27.596,28.946-17.088C298.081,290.918,278.166,309.208,260.832,314.436z"/>
<path fill="#D0CDE1" d="M190.948,297.337c-4.861-0.042-6.014-5.791-3.466-8.55c-4.204-10.271-8.002-19.237-8.002-19.237h-10.406
	l-10.405,3.388v25.408l-3.784,5.082c0,0,0.946,10.163,3.784,12.704c2.838,2.541,8.513,1.694,6.621,7.622
	c-1.137,3.865-1.458,7.887-0.946,11.857c0,0,17.027,19.479,17.973,16.938c0.946-2.541,14.189-33.877,16.081-33.877
	C199.262,318.671,195.402,308.453,190.948,297.337z"/>
<path fill="#2F2E41" d="M293.467,397.858c0,0,9.781-8.47,4.89-8.893c-4.891-0.423-21.918-8.893-24.755-4.658
	C270.764,388.542,293.467,397.858,293.467,397.858z"/>
<ellipse fill="#E8E852" cx="479.491" cy="229.832" rx="13.646" ry="6.468"/>
<path fill="none" stroke="#3F3D56" stroke-width="2" stroke-miterlimit="10" d="M531.667,251.392
	c-30.77-10.405-61.541-10.405-92.311,0v-33.777c30.1-8.132,62.211-8.132,92.311,0V251.392z"/>
<path fill="none" stroke="#3F3D56" stroke-width="2" stroke-miterlimit="10" d="M518.824,244.406
	c-22.208-7.509-44.416-7.509-66.624,0v-24.379c21.724-5.869,44.9-5.869,66.624,0V244.406z"/>
<ellipse fill="none" stroke="#3F3D56" stroke-width="2" stroke-miterlimit="10" cx="484.308" cy="226.957" rx="13.646" ry="6.468"/>
<path fill="#D8D823" d="M489.513,276.803c-7.384,1.35-14.017-0.394-14.815-3.894c-0.798-3.5,4.541-7.431,11.925-8.781
	c7.384-1.349,14.017,0.394,14.815,3.894S496.897,275.453,489.513,276.803z"/>
<path fill="none" stroke="#3F3D56" stroke-width="2" stroke-miterlimit="10" d="M544.017,282.252
	c-32.472-4.686-62.621,0.824-90.446,16.527l-7.545-33.095c27.676-13.356,59.137-19.106,90.446-16.527L544.017,282.252z"/>
<path fill="none" stroke="#3F3D56" stroke-width="2" stroke-miterlimit="10" d="M529.874,277.707
	c-23.436-3.381-45.196,0.594-65.278,11.928l-5.445-23.886c19.974-9.64,42.682-13.79,65.278-11.928L529.874,277.707z"/>
<path fill="none" stroke="#3F3D56" stroke-width="2" stroke-miterlimit="10" d="M493.591,273.124
	c-7.384,1.349-14.017-0.394-14.815-3.894s4.541-7.431,11.925-8.781c7.384-1.35,14.017,0.394,14.815,3.894
	C506.314,267.843,500.975,271.774,493.591,273.124z"/>
<path fill="#57B894" d="M498.851,311.527c-0.277,3.564-6.596,6.073-14.115,5.605c-7.518-0.468-13.389-3.737-13.112-7.3
	c0.277-3.564,6.596-6.073,14.115-5.605C493.258,304.695,499.128,307.963,498.851,311.527z"/>
<path fill="none" stroke="#3F3D56" stroke-width="2" stroke-miterlimit="10" d="M535.628,335.422
	c-29.889-12.292-60.585-14.204-92.088-5.737l2.619-33.696c30.658-6.242,62.691-4.246,92.088,5.737L535.628,335.422z"/>
<path fill="none" stroke="#3F3D56" stroke-width="2" stroke-miterlimit="10" d="M523.358,327.655
	c-21.573-8.871-43.726-10.252-66.464-4.141l1.89-24.32c22.127-4.505,45.247-3.064,66.464,4.141L523.358,327.655z"/>
<path fill="#B4B73D" stroke="#3F3D56" stroke-width="2" stroke-miterlimit="10" d="M503.879,308.958
	c-0.277,3.564-6.596,6.073-14.115,5.605c-7.518-0.468-13.389-3.737-13.112-7.3c0.277-3.564,6.596-6.073,14.115-5.605
	C498.286,302.126,504.156,305.395,503.879,308.958z"/>
<path fill="none" stroke="#3F3D56" stroke-width="2" stroke-miterlimit="10" d="M425.648,252.177c0,0-58.995-7.226-101.126,14.879"
	/>
<polygon fill="#3F3D56" points="325.941,259.627 327.474,260.061 325.078,266.816 332.779,268.461 332.405,269.86 323.027,267.854 
	"/>
<path fill="#008000" d="M437.713,468.131h-77.997c-1.715,0.002-3.106,1.275-3.108,2.846v14.19c3.891,0.084,6.416,3.024,7.028,6.593
	v12.864h0.295c0.098,0,0.177,0.073,0.177,0.162v6.845c0,0.09-0.079,0.162-0.177,0.162h-0.295v41.373c0,0.909-0.01,2.568-0.01,2.568
	h74.086c1.715-0.002,3.106-1.275,3.108-2.846v-81.912C440.819,469.406,439.429,468.133,437.713,468.131z"/>
<path fill="#008000" d="M582.628,421.442v77.646H446.215v-34.186c-0.003-3.232-2.864-5.851-6.393-5.854H414.24v-37.605H582.628z"/>
<path fill="#C5E217" d="M591.051,510.032H446.368v-0.541H590.46v-91.443c-0.002-2.24-1.985-4.055-4.431-4.058H409.073
	c-2.446,0.003-4.428,1.818-4.431,4.058v40.647h-0.591v-40.647c0.003-2.539,2.25-4.597,5.022-4.599H586.03
	c2.773,0.003,5.019,2.06,5.023,4.599v91.984H591.051z"/>
<path fill="#C5E217" d="M577.341,526.536H446.368v-0.541h130.974c7.242-0.007,13.11-5.381,13.119-12.013v-3.948H446.368v-0.541
	h144.683v4.49C591.042,520.912,584.909,526.528,577.341,526.536z"/>
<path fill="#C5E217" d="M538.471,553.049c-7.301-6.421-12.105-14.798-13.648-26.513h-53.811c-0.547,10.96-5.32,19.181-13.929,26.484
	l-0.909,0.029c8.883-7.372,13.775-15.652,14.261-26.795l0.011-0.259h54.904l0.031,0.239c1.516,11.914,6.42,20.345,13.901,26.772
	L538.471,553.049z"/>
<path fill="#C5E217" d="M439.68,564.242h-82.894V563.7h82.894c3.529-0.004,6.389-2.622,6.393-5.854v-92.821
	c-0.004-3.232-2.864-5.851-6.393-5.854h-82.894c-3.529,0.004-6.389,2.622-6.393,5.854v20.031h-0.591v-20.031
	c0.004-3.53,3.128-6.391,6.983-6.395h82.894c3.855,0.004,6.979,2.865,6.983,6.395v92.821
	C446.659,561.377,443.535,564.238,439.68,564.242z"/>
<path fill="#3F3D56" d="M398.233,465.475c-1.106,0-2.004-0.821-2.004-1.835s0.897-1.835,2.004-1.835
	c1.106,0,2.004,0.821,2.004,1.835C400.235,464.654,399.339,465.474,398.233,465.475z M398.233,462.23
	c-0.851,0-1.54,0.632-1.54,1.411c0,0.779,0.69,1.411,1.54,1.411s1.54-0.632,1.54-1.411l0,0
	C399.772,462.862,399.083,462.231,398.233,462.23L398.233,462.23z"/>
<path fill="#C5E217" d="M355.953,564.398h-27.44c-4.301-0.004-7.787-3.197-7.792-7.136v-65.071c0.005-3.939,3.49-7.131,7.792-7.136
	h27.44c4.301,0.004,7.787,3.197,7.792,7.136v11.645c0.286,0.109,0.473,0.366,0.473,0.65v7.577c0,0.284-0.187,0.54-0.473,0.65v44.55
	C363.74,561.202,360.255,564.394,355.953,564.398z M328.514,485.598c-3.975,0.004-7.196,2.954-7.201,6.595v65.071
	c0.005,3.64,3.226,6.59,7.201,6.594h27.44c3.975-0.004,7.196-2.954,7.201-6.594v-45.037h0.295c0.098,0,0.177-0.073,0.177-0.162
	v-7.577c0-0.09-0.079-0.162-0.177-0.162h-0.295v-12.132c-0.005-3.64-3.226-6.59-7.201-6.595H328.514z"/>
<path fill="#008000" d="M356.256,487.113h-3.582c0.555,1.245-0.098,2.667-1.458,3.175c-0.319,0.119-0.66,0.18-1.004,0.18h-15.72
	c-1.469,0-2.659-1.091-2.659-2.436c0-0.316,0.067-0.627,0.197-0.92h-3.346c-3.092,0-5.598,2.295-5.598,5.126v64.976
	c0,2.832,2.506,5.127,5.598,5.127l0,0h27.572c3.092,0,5.598-2.295,5.598-5.127l0,0l0,0V492.24
	C361.854,489.408,359.348,487.113,356.256,487.113z"/>
<path fill="#C5E217" d="M538.654,564.141h-81.831c-3.426,0-6.204-2.543-6.204-5.681c0-3.138,2.777-5.681,6.204-5.681h81.831
	c3.426,0,6.204,2.543,6.204,5.681C544.858,561.598,542.08,564.141,538.654,564.141z M456.822,553.319
	c-3.1,0-5.613,2.301-5.613,5.141c0,2.839,2.513,5.141,5.613,5.141h81.831c3.1,0,5.613-2.301,5.613-5.141
	c0-2.839-2.513-5.141-5.613-5.141H456.822z"/>
<path fill="#29A32B" d="M585.536,344.344H457.814c-6.248,0-11.314,3.549-11.314,7.928l0,0v43.607c0,4.379,5.065,7.928,11.314,7.928
	l0,0h127.723c6.248,0,11.314-3.549,11.314-7.928l0,0v-43.607C596.85,347.894,591.784,344.344,585.536,344.344L585.536,344.344z
	 M454.653,349.753c0.252-0.032,6.233-0.745,11.186,1.343c4.952,2.088,6.855,6.125,6.933,6.296l0.2,0.436l-0.643,0.08
	c-0.917,0.101-1.844,0.148-2.772,0.142c-2.249,0-5.508-0.261-8.414-1.486c-4.952-2.088-6.854-6.124-6.933-6.296l-0.2-0.435
	L454.653,349.753z M482.379,390.239h-22.781c-3.46-0.003-6.262-1.97-6.258-4.395c0.004-2.421,2.803-4.382,6.258-4.385h22.781
	c3.46,0.003,6.262,1.97,6.258,4.395C488.633,388.275,485.833,390.237,482.379,390.239z M586.029,389.441
	c-0.011,2.642-3.065,4.781-6.834,4.789h-17.085c-3.769-0.008-6.823-2.147-6.834-4.789v-7.184c0.011-2.642,3.065-4.781,6.834-4.789
	h17.085c3.769,0.008,6.823,2.147,6.834,4.789V389.441z"/>
<path opacity="0.1" fill="#008000" enable-background="new    " d="M1116.674,190.042c1.215,11.083,2.048,22.197,2.708,33.322H1120
	c-1.245-28.377-4.586-54.909-10.448-78.864C1111.586,159.706,1115.002,174.784,1116.674,190.042z"/>
<path opacity="0.1" fill="#008000" enable-background="new    " d="M1106.457,188.137c-2.11-17.857-6.446-35.437-7.976-53.318
	h-118.88c-5.711,0-10.341-6.831-10.341-15.256s4.63-15.256,10.341-15.256h20.681c-5.711,0-10.341-6.831-10.341-15.256
	c0-8.425,4.63-15.256,10.341-15.256h-14.768c-5.711,0-10.341-6.831-10.341-15.256c0-8.425,4.63-15.256,10.341-15.256h62.44
	c-13.855-9.5-30.05-16.262-48.703-19.808C828.995-8.796,768.208,12.548,746.765,34.558c-26.455,27.076-55.969,46.996-87.511,56.591
	c-105.047,31.969-301.501,70.446-479.559-12.319C91.197,37.661,25.419,107.205-14,223.364h1123.352
	C1108.692,211.601,1107.842,199.852,1106.457,188.137z M371,170.34c-6.449,0-6.449-10,0-10S377.449,170.34,371,170.34z"/>
<path opacity="0.1" fill="#008000" enable-background="new    " d="M1173.606,283.464c1.914,4.822,3.698,9.69,5.321,14.607
	c5.649,17.122,10.524,36.755,7.574,55.043c1.577,2.172,3.269,4.244,5.08,6.204c2.991-20.994,3.244-42.641,1.597-63.67
	c-1.295-16.534-3.415-35.852-10.78-51.776l-3.728-0.191C1175.756,256.693,1174.39,270.035,1173.606,283.464z"/>
<path opacity="0.1" fill="#008000" enable-background="new    " d="M1177.25,336.507c-0.396-6.671-1.598-13.375-3.227-19.908
	c0.101,3.365,0.013,6.735-0.316,10.116C1174.713,330.028,1175.901,333.302,1177.25,336.507z"/>
<path opacity="0.1" fill="#008000" enable-background="new    " d="M1207,371.34c-0.367-13.557-1.673-27.128-3.047-40.703
	c-0.431,13.447-1.746,26.864-4.132,40.032c-0.745,4.11-5.722,4.281-8.357,2.206c-2.984-2.35-5.755-5.006-8.327-7.886
	c-2.994,4.247-10.952,1.605-8.959-3.979c0.661-1.852,1.209-3.729,1.654-5.627c-2.542-3.911-4.782-8.057-6.729-12.334
	c-3.053,2.287-8.495,0.986-8.104-3.71c0.478-5.738,0.81-11.524,1.073-17.339c-0.363-1.633-0.7-3.262-0.98-4.878
	c-2.206-12.731-3.009-25.428-6.379-37.987c-3.404-12.688-7.88-25.028-12.482-37.322l-21.938-1.125
	c0.317,6.731,0.609,13.463,0.91,20.193c1.039,23.227-1.416,46.467-0.214,69.687c0.6,11.596,2.612,22.54,5.417,33.783
	c1.24,4.971,2.413,9.943,3.382,14.951l6.506,0.208c-1.754-9.189-2.997-18.44-3.853-27.732c-1.278-5.93-2.403-11.886-2.987-17.926
	c-0.895-9.259,0.362-18.079,1.165-27.241c-0.041-16.782,0.366-33.582,0.381-50.272c0.006-6.448,10.006-6.449,10,0
	c-0.004,4.933-0.047,9.878-0.103,14.83c0.677,0.782,1.107,1.836,1.103,3.17c-0.027,10.786-0.417,21.58-1.387,32.326
	c-0.014,0.155-0.029,0.308-0.043,0.462c0.031,14.514,0.424,29.014,1.75,43.409c2.088,9.77,4.558,19.466,5.831,29.354l63.037,2.018
	c0.081-1.93,0.132-3.861,0.18-5.792C1209.138,375.82,1207.078,374.229,1207,371.34z"/>
<path opacity="0.1" fill="#008000" enable-background="new    " d="M195.303,289.952h3.525c-1.313,0-2.578-0.17-3.782-0.467
	C195.14,289.636,195.227,289.791,195.303,289.952z"/>
<path opacity="0.1" fill="#008000" enable-background="new    " d="M1115.501,361.931c-2.661-10.945-4.186-21.922-4.591-33.188
	c-0.814-22.618,1.495-45.255,0.294-67.861c-0.367-6.902-0.68-13.807-1.003-20.711l-1309.953-67.161
	c-6.193,54.641-4.091,109.761,6.247,163.92l1313.048,42.045C1118.339,373.272,1116.884,367.615,1115.501,361.931z M360.034,289.952
	h-27.868c7.695,0,13.934,5.463,13.934,12.201c0,6.738-6.239,12.201-13.934,12.201H170.961c-7.695,0-13.934-5.463-13.934-12.201
	c0-6.738,6.239-12.201,13.934-12.201h15.736c0.633-1.322,1.835-2.351,3.605-2.566c-3.285-2.232-5.407-5.713-5.407-9.635
	c0-6.738,6.239-12.201,13.934-12.201h-19.899c-7.695,0-13.934-5.463-13.934-12.201c0-6.738,6.239-12.201,13.934-12.201h161.205
	c7.695,0,13.934,5.463,13.934,12.201c0,6.738-6.239,12.201-13.934,12.201h19.899c7.695,0,13.934,5.463,13.934,12.201
	C373.968,284.489,367.729,289.952,360.034,289.952z M624,269.34c-6.449,0-6.449-10,0-10S630.449,269.34,624,269.34z M724,320.34
	c-6.449,0-6.449-10,0-10S730.449,320.34,724,320.34z M848,289.34c-6.449,0-6.449-10,0-10S854.449,289.34,848,289.34z"/>
<path opacity="0.1" fill="#008000" enable-background="new    " d="M1202.498,244.904l-9.21-0.472
	c3.253,8.249,5.424,17.048,6.943,25.895C1200.439,261.845,1201.121,253.37,1202.498,244.904z"/>
<path opacity="0.1" fill="#008000" enable-background="new    " d="M1212.516,245.418c-1.001,5.69-1.672,11.393-2.071,17.108
	c2.605-0.154,5.412,1.452,5.555,4.814c1.625,38.317,6.525,76.626,5.013,114.884l0.824,0.026
	c39.398-39.684,72.479-83.857,98.34-131.313L1212.516,245.418z"/>
<path opacity="0.1" fill="#008000" enable-background="new    " d="M1165.604,260.706c0.738-5.896,1.684-11.751,2.92-17.544
	l-14.624-0.75c2.796,5.039,5.505,10.142,8.097,15.307C1163.528,258.101,1164.93,259.098,1165.604,260.706z"/>
</svg>
