<?xml version="1.0" encoding="utf-8"?>
<!-- Generator: Adobe Illustrator 17.0.0, SVG Export Plug-In . SVG Version: 6.00 Build 0)  -->
<!DOCTYPE svg PUBLIC "-//W3C//DTD SVG 1.1//EN" "http://www.w3.org/Graphics/SVG/1.1/DTD/svg11.dtd">
<svg version="1.1" id="_x39_6306a94-3bea-4326-87c9-b4488db4c6c8"
	 xmlns="http://www.w3.org/2000/svg" xmlns:xlink="http://www.w3.org/1999/xlink" x="0px" y="0px" width="1097.1px"
	 height="807.9px" viewBox="0 0 1097.1 807.9" enable-background="new 0 0 1097.1 807.9" xml:space="preserve">
<title>android</title>
<path opacity="0.1" fill="#008000" enable-background="new    " d="M11.85,429.95c17.36,74.2,54.11,138.34,112.19,169.43
	c120.7,64.61,392.91,31.29,596.07-7c102.657-19.282,195.838-72.551,264.54-151.23L11.85,429.95z"/>
<path opacity="0.1" fill="#008000" enable-background="new    " d="M1077.2,80.71H965.73c-5.321,0-9.635-4.314-9.635-9.635
	c0-5.321,4.314-9.635,9.635-9.635H985c-5.321,0-9.635-4.314-9.635-9.635s4.314-9.635,9.635-9.635l0,0h-13.76
	c-5.321,0-9.635-4.314-9.635-9.635s4.314-9.635,9.635-9.635h58.18c-12.91-6-28-10.27-45.38-12.51c-158.64-20.38-215.28-6.9-235.26,7
	c-24.65,17.1-52.15,29.68-81.54,35.74c-97.88,20.19-280.93,44.49-446.84-7.78c-82.46-26-143.75,17.92-180.48,91.28h1056.63
	c-1.38-21.32-5.51-41-13.09-58.24C1081.719,79.889,1079.497,80.712,1077.2,80.71z"/>
<path opacity="0.1" fill="#008000" enable-background="new    " d="M2.39,275.1c-4.282,43.151-2.829,86.68,4.32,129.45l978.68,35.79
	c27.243-31.339,50.118-66.223,68-103.7L2.39,275.1z M389.47,367.45H370.2c5.321,0,9.635,4.314,9.635,9.635
	c0,5.321-4.314,9.635-9.635,9.635H258.73c-5.321,0-9.635-4.314-9.635-9.635c0-5.321,4.314-9.635,9.635-9.635H278
	c-5.321,0-9.635-4.314-9.635-9.635c0-5.321,4.314-9.635,9.635-9.635h-13.76c-5.321,0-9.635-4.314-9.635-9.635
	c0-5.321,4.314-9.635,9.635-9.635h111.47c5.321,0,9.635,4.314,9.635,9.635c0,5.321-4.314,9.635-9.635,9.635l0,0h13.76
	c5.321,0,9.635,4.314,9.635,9.635C399.105,363.136,394.791,367.45,389.47,367.45L389.47,367.45z"/>
<path opacity="0.1" fill="#008000" enable-background="new    " d="M1096.6,137.29l-1068.49,26
	c-12.99,33.4-21.56,71.17-25.56,110.33h1075.33c7.021-22.998,12.214-46.514,15.53-70.33
	C1096.61,180.27,1097.89,158.02,1096.6,137.29z M219.47,222.45H200.2c5.321,0,9.635,4.314,9.635,9.635
	c0,5.321-4.314,9.635-9.635,9.635H88.73c-5.321,0-9.635-4.314-9.635-9.635c0-5.321,4.314-9.635,9.635-9.635H108
	c-5.321,0-9.635-4.314-9.635-9.635s4.314-9.635,9.635-9.635H94.24c-5.321,0-9.635-4.314-9.635-9.635
	c0-5.321,4.314-9.635,9.635-9.635h111.47c5.321,0,9.635,4.314,9.635,9.635c0,5.321-4.314,9.635-9.635,9.635h13.76
	c5.321,0,9.635,4.314,9.635,9.635S224.791,222.45,219.47,222.45z"/>
<g opacity="0.1">
	<path fill="none" stroke="#535461" stroke-width="2" stroke-miterlimit="10" d="M677.55,623.28c0,0,28.2-69.5,80.86-95.28
		c22.166-10.659,40.276-28.222,51.61-50.05c5.294-10.415,9.622-21.294,12.93-32.5"/>
	<path fill="#008000" d="M856.04,429c-5.49,6.9-33.9,17-33.9,17s3.42-30,8.91-36.85c5.91-6.569,16.027-7.103,22.596-1.193
		c6.011,5.408,7.042,14.45,2.404,21.073L856.04,429z"/>
	<path fill="#008000" d="M846.29,483.66c-8.36,2.81-37.68-4.18-37.68-4.18s19.15-23.28,27.51-26.09
		c8.541-2.266,17.302,2.822,19.567,11.363C857.748,472.521,853.726,480.612,846.29,483.66z"/>
	<path fill="#008000" d="M793.43,548.26c-8.63-1.79-30.42-22.63-30.42-22.63s28.28-10.43,36.92-8.64
		c8.512,2.372,13.489,11.196,11.117,19.708c-2.151,7.719-9.681,12.656-17.617,11.552V548.26z"/>
	<path fill="#008000" d="M742.43,588.14c-8.81-0.31-33.81-17.16-33.81-17.16s26.12-15.03,34.93-14.75
		c8.832-0.276,16.216,6.66,16.492,15.492c0.276,8.832-6.66,16.216-15.492,16.492C743.842,588.237,743.134,588.212,742.43,588.14z"/>
	<path fill="#008000" d="M781.31,459.95c1.13,8.75,20.22,32.07,20.22,32.07s12.57-27.4,11.45-36.15
		c-1.699-8.672-10.106-14.324-18.778-12.625C786.322,444.789,780.806,451.935,781.31,459.95z"/>
	<path fill="#008000" d="M722.25,507.34c3.69,8,28.89,24.55,28.89,24.55s3.8-29.91,0.11-37.91
		c-3.175-8.246-12.435-12.357-20.681-9.182c-8.246,3.175-12.357,12.435-9.182,20.681c0.247,0.641,0.535,1.266,0.862,1.871V507.34z"
		/>
	<path fill="#008000" d="M671.17,561.28c2.28,8.52,24.33,29.08,24.33,29.08s8.8-28.83,6.51-37.35
		c-2.849-8.365-11.94-12.835-20.305-9.986C674.115,545.61,669.611,553.415,671.17,561.28L671.17,561.28z"/>
	<path opacity="0.25" enable-background="new    " d="M856.04,429c-5.49,6.9-33.9,17-33.9,17s3.42-30,8.91-36.85
		c5.91-6.569,16.027-7.103,22.596-1.193c6.011,5.408,7.042,14.45,2.404,21.073L856.04,429z"/>
	<path opacity="0.25" enable-background="new    " d="M846.29,483.66c-8.36,2.81-37.68-4.18-37.68-4.18s19.15-23.28,27.51-26.09
		c8.541-2.266,17.302,2.822,19.567,11.363C857.748,472.521,853.726,480.612,846.29,483.66z"/>
	<path opacity="0.25" enable-background="new    " d="M793.43,548.26c-8.63-1.79-30.42-22.63-30.42-22.63s28.28-10.43,36.92-8.64
		c8.512,2.372,13.489,11.196,11.117,19.708c-2.151,7.719-9.681,12.656-17.617,11.552V548.26z"/>
	<path opacity="0.25" enable-background="new    " d="M742.43,588.14c-8.81-0.31-33.81-17.16-33.81-17.16s26.12-15.03,34.93-14.75
		c8.832-0.276,16.216,6.66,16.492,15.492c0.276,8.832-6.66,16.216-15.492,16.492C743.842,588.237,743.134,588.212,742.43,588.14z"/>
	<path opacity="0.25" enable-background="new    " d="M781.31,459.95c1.13,8.75,20.22,32.07,20.22,32.07s12.57-27.4,11.45-36.15
		c-1.699-8.672-10.106-14.324-18.778-12.625C786.322,444.789,780.806,451.935,781.31,459.95z"/>
	<path opacity="0.25" enable-background="new    " d="M722.25,507.34c3.69,8,28.89,24.55,28.89,24.55s3.8-29.91,0.11-37.91
		c-3.175-8.246-12.435-12.357-20.681-9.182c-8.246,3.175-12.357,12.435-9.182,20.681c0.247,0.641,0.535,1.266,0.862,1.871V507.34z"
		/>
	<path opacity="0.25" enable-background="new    " d="M671.17,561.28c2.28,8.52,24.33,29.08,24.33,29.08s8.8-28.83,6.51-37.35
		c-2.849-8.365-11.94-12.835-20.305-9.986C674.115,545.61,669.611,553.415,671.17,561.28L671.17,561.28z"/>
</g>
<g opacity="0.1">
	<path fill="none" stroke="#535461" stroke-width="2" stroke-miterlimit="10" d="M657.55,521.66c0,0,3.56-74.92,44.69-116.71
		c17.346-17.424,28.575-40.003,32-64.35c1.542-11.572,2.021-23.261,1.43-34.92"/>
	<path fill="#008000" d="M761.55,279.19c-2.89,8.33-26.35,27.26-26.35,27.26s-6.7-29.39-3.81-37.72
		c2.307-8.53,11.092-13.575,19.622-11.268c8.53,2.307,13.575,11.092,11.268,19.622C762.086,277.803,761.842,278.506,761.55,279.19z"
		/>
	<path fill="#008000" d="M770.43,333.95c-7,5.42-36.94,8.56-36.94,8.56s10.35-28.32,17.3-33.74
		c6.604-5.872,16.717-5.278,22.589,1.325c5.872,6.604,5.278,16.717-1.325,22.589C771.54,333.14,770.998,333.563,770.43,333.95z"/>
	<path fill="#008000" d="M741.98,412.47c-8.74,1.17-36.2-11.26-36.2-11.26s23.23-19.22,32-20.39
		c8.664-1.738,17.097,3.876,18.835,12.54c1.738,8.664-3.876,17.097-12.54,18.835c-0.678,0.136-1.365,0.228-2.055,0.275H741.98z"/>
	<path fill="#008000" d="M707.09,467c-8.42,2.63-37.59-5-37.59-5s19.64-22.87,28.06-25.5c8.585-2.095,17.242,3.166,19.337,11.751
		c1.908,7.821-2.292,15.842-9.807,18.729V467z"/>
	<path fill="#008000" d="M701.26,333.17c4,7.88,29.72,23.55,29.72,23.55s2.77-30-1.19-37.9c-4.463-7.627-14.264-10.191-21.89-5.728
		C700.948,317.16,698.104,325.76,701.26,333.17L701.26,333.17z"/>
	<path fill="#008000" d="M661.26,397.47c6.14,6.33,35.4,13.58,35.4,13.58s-6.33-29.47-12.47-35.8
		c-6.537-5.945-16.657-5.466-22.602,1.071c-5.424,5.963-5.564,15.03-0.328,21.159L661.26,397.47z"/>
	<path fill="#008000" d="M630.96,465.29c5,7.28,32.6,19.37,32.6,19.37s-1.26-30.12-6.24-37.4
		c-5.514-6.905-15.582-8.033-22.487-2.519c-6.188,4.941-7.831,13.666-3.863,20.519L630.96,465.29z"/>
</g>
<path opacity="0.1" fill="#008000" enable-background="new    " d="M299.74,775.76c39.32,13.22,87.29,5.18,131.9,6.11
	c6.11,0.13,12.57,0.51,17.47,2.79s7.31,6,10.67,9.15c12.5,11.79,38.11,15.58,60.5,13.58s42.92-8.62,64-13.66
	c36.52-8.72,78.27-12.68,114.29-3.18c3.31,0.87,6.79,1.87,10.33,1.53c7.9-0.78,10.25-7.1,15.77-10.71c10-6.52,31.63-4.75,36-13.34
	c2.57-5-3.34-10.2-9.77-13.64c-24.62-13.16-59.84-15.33-92.06-13.3s-63.9,7.63-96.29,7.65c-40.35,0-79.34-8.59-119.3-12.11
	c-27.68-2.44-57.89-2.14-83.84,5C331.36,749.45,325.16,766.89,299.74,775.76z"/>
<rect x="365.51" y="184.9" fill="#535461" width="7" height="99"/>
<rect x="365.51" y="317.9" fill="#535461" width="7" height="56"/>
<path fill="#535461" d="M417.61,87.9h220.8c26.013,0,47.1,21.087,47.1,47.1v589.8c0,26.013-21.087,47.1-47.1,47.1h-220.8
	c-26.013,0-47.1-21.087-47.1-47.1V135C370.51,108.987,391.597,87.9,417.61,87.9z"/>
<path fill="#008000" d="M417.61,119.9h220.8c26.013,0,47.1,21.087,47.1,47.1v528.8c0,26.013-21.087,47.1-47.1,47.1h-220.8
	c-26.013,0-47.1-21.087-47.1-47.1V167C370.51,140.987,391.597,119.9,417.61,119.9z"/>
<path fill="#EAEAF3" d="M506.01,102.9h45c1.933,0,3.5,1.567,3.5,3.5l0,0c0,1.933-1.567,3.5-3.5,3.5h-45c-1.933,0-3.5-1.567-3.5-3.5
	l0,0C502.51,104.467,504.077,102.9,506.01,102.9z"/>
<circle fill="#EAEAF3" cx="572.51" cy="106.9" r="5"/>
<path fill="#FFFFFF" d="M446.31,396.1v73c0.105,9.537-7.541,17.354-17.079,17.459c-0.084,0.001-0.167,0.001-0.251,0.001
	c-9.64,0-19-7.81-19-17.46v-73c0-9.52,9.33-17.33,19-17.33C438.535,378.808,446.272,386.545,446.31,396.1z M453.12,495.04
	c-0.022,10.278,8.292,18.628,18.57,18.65c0.027,0,0.053,0,0.08,0h12.54l0.19,38.51c0,23.25,34.79,23.07,34.79,0v-38.5h23.44v38.51
	c0,23.13,35,23.19,35,0V513.7h12.73c10.267-0.033,18.563-8.383,18.53-18.65c0,0,0,0,0,0v-113.1H453.12V495.04z M609.41,375.87h-157
	c0-27,16.13-50.42,40.08-62.64l-12-22.25c-1.76-3.09,2.71-5,4.22-2.39l12.23,22.44c21.755-9.517,46.495-9.517,68.25,0l12.16-22.37
	c1.58-2.71,6-0.69,4.22,2.39l-12,22.18C593.28,325.45,609.41,348.9,609.41,375.87z M501.83,340.87c0-3.656-2.964-6.62-6.62-6.62
	c-3.653,0.142-6.5,3.219-6.358,6.872c0.134,3.454,2.904,6.224,6.358,6.358c3.644,0,6.604-2.946,6.62-6.59L501.83,340.87z
	 M573.3,340.87c-0.056-3.6-3.019-6.474-6.62-6.419c-3.6,0.056-6.474,3.019-6.419,6.62c0.055,3.596,3.012,6.468,6.608,6.419
	c3.583-0.082,6.442-3.016,6.43-6.6V340.87z M633.04,378.75c-9.543-0.028-17.302,7.686-17.33,17.23c0,0.033,0,0.067,0,0.1v73
	c-0.039,9.604,7.716,17.421,17.32,17.46c0.003,0,0.007,0,0.01,0c9.71,0,19-7.81,19-17.46v-73c-0.03-9.68-9.36-17.31-19-17.31V378.75
	z"/>
<rect x="454.01" y="569.46" fill="#535461" width="65" height="3"/>
<rect x="543.01" y="569.46" fill="#535461" width="43" height="3"/>
<rect x="397.01" y="569.46" fill="#535461" width="49.04" height="3"/>
<rect x="611.01" y="569.46" fill="#535461" width="43" height="3"/>
<g id="Group_22_1_" transform="translate(-282 -122.601)">
	<g id="Group_2_1_" transform="translate(556.248 122.601)">
		<path id="Rectangle_76_1_" fill="#3F3D56" d="M619.84,208.427h3.498c0.69,0,1.249,0.57,1.249,1.273v47.828
			c0,0.703-0.559,1.273-1.249,1.273h-3.498c-0.69,0-1.249-0.57-1.249-1.273V209.7C618.591,208.997,619.15,208.427,619.84,208.427z"
			/>
		<path id="Rectangle_80_1_" fill="#3F3D56" d="M442.51,114.156h158.051c11.744,0,21.264,9.705,21.264,21.678v372.215
			c0,11.972-9.52,21.678-21.264,21.678H442.51c-11.744,0-21.264-9.705-21.264-21.678V135.834
			C421.246,123.862,430.766,114.156,442.51,114.156z"/>
		<path id="Path_176_1_" fill="#FFFFFF" d="M593.908,124.98h-23.009v2.822c0,7.384-5.872,13.37-13.115,13.37
			c-0.002,0-0.005,0-0.007,0h-73.173c-7.243,0.004-13.118-5.979-13.122-13.362c0-0.002,0-0.005,0-0.007v-2.822H449.94
			c-8.798,0-15.93,7.271-15.93,16.24v361.47c0,8.969,7.132,16.24,15.93,16.24h143.968c8.798,0,15.93-7.271,15.93-16.24V141.248
			c0.015-8.969-7.105-16.252-15.903-16.267C593.926,124.98,593.917,124.98,593.908,124.98z"/>
		<path id="Rectangle_81_1_" fill="#E6E8EC" d="M504.299,126.567h23.788c1.166,0,2.111,0.963,2.111,2.152v1.492
			c0,1.188-0.945,2.152-2.111,2.152h-23.788c-1.166,0-2.111-0.963-2.111-2.152v-1.492
			C502.188,127.53,503.133,126.567,504.299,126.567z"/>
		<ellipse id="Ellipse_5_1_" fill="#E6E8EC" cx="537.662" cy="129.464" rx="3.228" ry="3.291"/>
		<ellipse id="Ellipse_11_1_" fill="#FFFFFF" cx="522.761" cy="327.043" rx="37.944" ry="38.681"/>
		<path id="Path_222_1_" fill="#008000" d="M572.668,321.642c-0.001,28.553-22.707,51.698-50.715,51.697
			c-28.008-0.001-50.713-23.148-50.712-51.701c0.001-28.553,22.707-51.698,50.715-51.697
			C549.964,269.942,572.668,293.089,572.668,321.642L572.668,321.642z M516.093,349.007l37.619-38.35
			c1.278-1.299,1.281-3.409,0.006-4.712c-0.002-0.002-0.004-0.004-0.006-0.006l-4.629-4.684c-1.271-1.301-3.337-1.305-4.613-0.009
			c-0.003,0.003-0.006,0.006-0.009,0.009l-30.682,31.279l-14.326-14.639c-1.28-1.298-3.348-1.298-4.629,0l-4.629,4.746
			c-1.273,1.305-1.273,3.413,0,4.719l21.27,21.675c1.275,1.303,3.344,1.306,4.622,0.006c0.002-0.002,0.004-0.004,0.006-0.006
			L516.093,349.007z"/>
	</g>
</g>
<path fill="#59495D" d="M213.23,715.242c0,0,7.356,21.996,16.803,26.183c9.447,4.187,24.16,8.374,16.803,13.602
	c-7.356,5.229-29.583-3.145-47.333-3.145c-3.156,0-21.004-2.103-21.004-2.103s0-28.266,4.201-33.417
	C186.901,711.213,213.23,715.242,213.23,715.242z"/>
<path fill="#59495D" d="M100.834,715.242c0,0-4.201,25.121-12.602,28.266s-10.512,16.748,3.156,16.748s21.004-3.145,25.205-9.416
	l8.402-2.103c0,0,5.246-24.08,0-30.37L100.834,715.242z"/>
<path fill="#F0B9BB" d="M239.5,300.622c0,0,19.959,13.603,25.205,18.851c5.246,5.248,8.402,9.416,13.648,3.145
	s29.406-39.785,33.528-50.262c4.122-10.477,32.561-31.451,52.52-20.934c19.959,10.516-40.963,35.598-40.963,35.598l-34.573,68.052
	c0,0-1.045,7.332-18.914,0s-59.876-26.143-59.876-26.143L239.5,300.622z"/>
<path fill="#524D64" d="M215.34,441.974c0,0,9.447,64.867,5.246,77.487l-9.447,68.052c0,0,1.045,114.127,5.246,126.688
	c4.201,12.561-37.827,13.602-37.827,13.602s5.246-32.453,0-40.827c-5.246-8.374-4.201-93.193-4.201-93.193l-12.662-87.944
	l-26.27,104.692l-7.258,117.272c0,0-28.36-1.042-30.471-9.416s-5.246-118.314,0-128.791c5.246-10.477,0-87.944,0-87.944
	s4.201-59.678,16.803-67.01S215.34,441.974,215.34,441.974z"/>
<path fill="#F0B9BB" d="M147.042,218.968c0,0-2.11,50.262-19.959,40.827l15.778,47.176l35.717-2.103l21.004-28.266l-15.778-9.416
	c0,0-11.557,4.187-3.156-34.557L147.042,218.968z"/>
<path fill="#E2E8F0" d="M177.474,258.753c0,0,17.849,14.664,31.555,15.725c10.236,0.786,28.163,19.834,36.486,29.308
	c1.504,1.794,3.391,3.231,5.522,4.207c0,0-21.004,29.308-24.16,29.308l-6.311-4.187l-5.246,57.594v34.537l4.201,25.121
	c0,0-66.187,1.042-72.479-4.187s-42.028,4.187-42.028,4.187s10.512-68.052,3.156-76.426c-7.356-8.374-19.959-67.01-19.959-67.01
	s-8.402-24.08,0-31.451c0,0,24.278-6.801,36.092-15.273c4.033-2.957,8.898-4.573,13.904-4.619h0.769c0,0,0.71,15.725,16.468,18.851
	S181.182,271.923,177.474,258.753z"/>
<path fill="#E2E8F0" d="M106.08,336.22c0,0-31.555-4.187-34.672-4.187c-3.116,0,10.512-51.304,17.849-56.533
	c7.337-5.229,16.803,18.851,16.803,18.851L106.08,336.22z"/>
<path fill="#F0B9BB" d="M76.674,322.618c0,0-10.512,50.262-5.246,64.867c0,0-1.045,10.477,5.246,15.725
	c0,0,34.672,46.075,34.672,50.262c0,4.187,10.512,24.08,28.36,7.332c0,0,8.402-11.519-10.512-20.935
	c-18.914-9.416-34.672-57.594-34.672-57.594s15.778-38.743,9.447-51.304S76.674,322.618,76.674,322.618z"/>
<ellipse fill="#F0B9BB" cx="171.202" cy="216.865" rx="32.561" ry="32.453"/>
<path fill="#575168" d="M206.327,198.387c0.069-1.193,0.328-2.368,0.769-3.479c0.454-0.963,1.183-1.808,1.578-2.791
	c1.006-2.437,0-5.17-1.124-7.587c-2.938-7.391-6.717-14.421-11.261-20.954c-0.636-0.982-1.511-1.787-2.544-2.339
	c-1.183-0.382-2.43-0.522-3.668-0.413c-5.779,0-11.123-2.791-16.586-4.619s-11.833-2.693-16.665,0.59
	c-4.832,3.283-6.489,9.828-11.597,12.443c-1.381,0.708-2.919,1.061-4.28,1.828c-1.819,1.185-3.387,2.714-4.615,4.501
	c-5.754,5.665-8.57,13.655-7.632,21.662c0,5.897,0.611,12.462,5.305,15.902c1.07,0.781,1.992,1.746,2.722,2.85
	c0.898,1.451,1.351,3.132,1.302,4.836c0.237,3.243,1.499,6.467,1.736,9.71c-0.028,1.236,0.294,2.455,0.927,3.519
	c0.717,1.037,2.142,1.297,3.182,0.582c0.024-0.017,0.048-0.034,0.072-0.052l3.294-13.504c0.447-2.698,1.491-5.263,3.057-7.509
	c2.446-2.988,6.804-4.482,8.106-8.138c0.927-2.614,0.118-5.995,2.169-7.863c0.882-0.676,1.919-1.122,3.017-1.297
	c9.445-2.243,19.249-2.544,28.814-0.885c1.029,0.121,2.026,0.435,2.939,0.924c1.559,1.229,2.657,2.947,3.116,4.875
	c0.69,1.966,3.234,12.954,5.917,12.207C205.597,212.953,206.327,200.156,206.327,198.387z"/>
<text transform="matrix(1.8026 0 0 1 440.0491 598.2839)" font-family="'MyriadPro-Regular'" font-size="21.1635">installing</text>
</svg>
