<?xml version="1.0" encoding="utf-8"?>
<!-- Generator: Adobe Illustrator 17.0.0, SVG Export Plug-In . SVG Version: 6.00 Build 0)  -->
<!DOCTYPE svg PUBLIC "-//W3C//DTD SVG 1.1//EN" "http://www.w3.org/Graphics/SVG/1.1/DTD/svg11.dtd">
<svg version="1.1" id="a03e49aa-1ede-49ab-95c4-f5a45b19bb50"
	 xmlns="http://www.w3.org/2000/svg" xmlns:xlink="http://www.w3.org/1999/xlink" x="0px" y="0px" width="847.693px" height="656px"
	 viewBox="0 0 847.693 656" enable-background="new 0 0 847.693 656" xml:space="preserve">
<ellipse opacity="0.1" enable-background="new    " cx="422.822" cy="523.052" rx="424.871" ry="43.442"/>
<rect x="395.874" y="538.671" opacity="0.1" enable-background="new    " width="189.712" height="1.493"/>
<polyline opacity="0.1" enable-background="new    " points="729.006,540.164 642.245,540.164 643.256,539.044 643.256,538.671 
	729.006,538.671 "/>
<polyline opacity="0.1" enable-background="new    " points="729.006,533.824 643.256,533.824 643.256,532.331 729.006,532.331 "/>
<polyline opacity="0.1" enable-background="new    " points="729.006,527.48 643.256,527.48 643.256,525.99 728.424,525.99 "/>
<path opacity="0.1" enable-background="new    " d="M456.224,543.894c-1.191,0.453-2.351,0.951-3.472,1.493h-56.878v-1.493H456.224z
	"/>
<path opacity="0.1" enable-background="new    " d="M585.586,543.894v1.493H495.32c-1.121-0.541-2.28-1.04-3.472-1.493H585.586z"/>
<path opacity="0.1" enable-background="new    " d="M446.515,549.117c-0.653,0.482-1.283,0.979-1.888,1.493h-48.754v-1.493H446.515z
	"/>
<path opacity="0.1" enable-background="new    " d="M585.586,549.117v1.493h-82.142c-0.608-0.515-1.237-1.013-1.887-1.493H585.586z"
	/>
<path opacity="0.1" enable-background="new    " d="M440.899,554.337c-0.428,0.489-0.805,0.985-1.173,1.493h-43.853v-1.493H440.899z
	"/>
<path opacity="0.1" enable-background="new    " d="M585.586,554.337v1.493h-77.24c-0.368-0.508-0.762-1.004-1.173-1.493H585.586z"
	/>
<path opacity="0.1" enable-background="new    " d="M437.45,559.561c-0.244,0.492-0.471,0.988-0.676,1.493h-10.547v-1.493H437.45z"
	/>
<path opacity="0.1" enable-background="new    " d="M585.586,559.561v1.493h-74.286c-0.206-0.505-0.428-1.001-0.676-1.493H585.586z"
	/>
<path opacity="0.1" enable-background="new    " d="M435.595,564.784c-0.116,0.492-0.206,0.988-0.279,1.493h-9.091v-1.493H435.595z"
	/>
<path opacity="0.1" enable-background="new    " d="M585.586,564.784v1.493H512.75c-0.073-0.505-0.163-1.001-0.279-1.493H585.586z"
	/>
<rect x="540.56" y="515.929" opacity="0.1" enable-background="new    " width="3.034" height="0.224"/>
<rect x="545.114" y="515.929" opacity="0.1" enable-background="new    " width="3.034" height="0.224"/>
<rect x="429.008" y="529.906" opacity="0.1" enable-background="new    " width="124.453" height="1.12"/>
<path opacity="0.1" fill="#008000" enable-background="new    " d="M849.833,117.206h-91.546c-4.37,0-7.913-5.699-7.913-12.729
	s3.543-12.729,7.913-12.729h15.826c-4.37,0-7.913-5.699-7.913-12.729c0-7.03,3.543-12.729,7.913-12.729l0,0h-11.301
	c-4.37,0-7.913-5.699-7.913-12.729s3.543-12.729,7.913-12.729h47.781c-10.602-7.927-22.995-13.568-37.269-16.527
	C643.038-2.619,596.522,15.19,580.113,33.553c-20.244,22.591-42.829,39.211-66.966,47.217
	c-80.385,26.673-230.718,58.777-366.974-10.278C78.452,36.143,28.117,94.166-2.049,191.083h867.773
	c-1.133-28.166-4.525-54.166-10.75-76.942C853.544,116.122,851.719,117.209,849.833,117.206z"/>
<image overflow="visible" width="1031" height="571" xlink:href="wasac2.png"  transform="matrix(0.7 0 0 0.714 40.5979 100.8182)">
</image>
</svg>
